<svg xmlns="http://www.w3.org/2000/svg" width="1000" height="1000" viewBox="0 0 1000 1000" version="1.1"><path d="M 585 145.911 C 554.252 154.384, 533.113 174.874, 524.517 204.537 C 521.583 214.664, 519.696 241, 521.905 241 C 522.572 241, 522.840 241.450, 522.500 242 C 522.089 242.665, 572.347 243, 672.512 243 C 801.725 243, 823.346 242.797, 824.571 241.571 C 826.264 239.879, 826.653 223, 825 223 C 824.450 223, 824 221.650, 824 220 C 824 218.350, 824.459 217, 825.019 217 C 825.580 217, 825.819 215.988, 825.551 214.750 C 823.972 207.460, 821.606 198.299, 820.968 197.004 C 820.560 196.177, 818.713 192.410, 816.863 188.633 C 815.013 184.856, 812.263 180.421, 810.750 178.777 C 809.237 177.133, 808 175.364, 808 174.846 C 808 173.327, 794.042 160, 792.451 160 C 791.653 160, 791 159.593, 791 159.095 C 791 157.022, 775.274 148.852, 772.745 149.611 C 771.700 149.925, 770.747 149.503, 770.388 148.569 C 770.057 147.706, 768.736 147, 767.452 147 C 766.168 147, 764.812 146.505, 764.438 145.899 C 764.054 145.278, 762.519 145.046, 760.917 145.367 C 759.356 145.679, 757.809 145.499, 757.480 144.967 C 757.102 144.356, 726.440 144.022, 674.191 144.060 C 597.912 144.116, 590.996 144.259, 585 145.911 M 172 167.752 C 172 168.165, 169.967 169.582, 167.482 170.900 C 164.998 172.218, 161.423 175.003, 159.539 177.089 C 154.331 182.853, 153 188.841, 153 206.500 C 153 225.256, 154.317 230.580, 160.479 236.742 L 164.737 241 186.868 241 C 203.889 241, 209.008 241.289, 209.033 242.250 C 209.052 242.938, 209.931 242.463, 210.988 241.196 C 212.044 239.928, 213.556 239.028, 214.347 239.196 C 216.024 239.550, 220.244 235.283, 222.752 230.696 C 224.212 228.027, 224.554 224.244, 224.825 207.750 C 225.049 194.129, 224.816 188, 224.075 188 C 223.484 188, 223 186.853, 223 185.450 C 223 178.789, 215.253 171.266, 205.101 168.070 C 201.277 166.866, 172 166.585, 172 167.752 M 179.250 242.746 C 184.613 242.925, 193.387 242.925, 198.750 242.746 C 204.113 242.566, 199.725 242.419, 189 242.419 C 178.275 242.419, 173.887 242.566, 179.250 242.746 M 616.768 302.725 C 618.565 302.947, 621.265 302.943, 622.768 302.715 C 624.271 302.486, 622.800 302.304, 619.500 302.310 C 616.200 302.315, 614.971 302.502, 616.768 302.725 M 594.750 303.723 C 596.538 303.945, 599.462 303.945, 601.250 303.723 C 603.038 303.502, 601.575 303.320, 598 303.320 C 594.425 303.320, 592.962 303.502, 594.750 303.723 M 637.750 303.723 C 639.538 303.945, 642.462 303.945, 644.250 303.723 C 646.038 303.502, 644.575 303.320, 641 303.320 C 637.425 303.320, 635.962 303.502, 637.750 303.723 M 89.328 363.750 C 124.983 363.896, 183.033 363.895, 218.328 363.750 C 253.622 363.604, 224.450 363.485, 153.500 363.485 C 82.550 363.485, 53.672 363.604, 89.328 363.750 M 396.750 363.748 C 405.688 363.914, 420.313 363.914, 429.250 363.748 C 438.188 363.582, 430.875 363.447, 413 363.447 C 395.125 363.447, 387.813 363.582, 396.750 363.748 M 838.250 363.750 C 863.413 363.898, 904.588 363.898, 929.750 363.750 C 954.913 363.601, 934.325 363.479, 884 363.479 C 833.675 363.479, 813.088 363.601, 838.250 363.750 M 121.012 572.750 C 121.022 751.140, 121.229 781.271, 122.475 785.955 C 127.255 803.914, 140.958 818.450, 158 823.639 C 161.025 824.560, 163.927 825.693, 164.450 826.157 C 165.718 827.282, 231.544 827.245, 233.764 826.118 C 234.719 825.633, 237.750 824.727, 240.500 824.104 C 257.130 820.337, 271.971 807.112, 278.252 790.461 L 280.500 784.500 280.759 574.750 L 281.018 365 201.009 365 L 121 365 121.012 572.750" stroke="none" fill="#477b9e" fill-rule="evenodd"/><path d="M 479.500 144.693 C 477.850 144.909, 475.825 145.378, 475 145.736 C 474.175 146.093, 473.050 146.441, 472.500 146.509 C 468.592 146.992, 465 148.347, 465 149.339 C 465 149.988, 464.053 151.110, 462.895 151.833 C 461.738 152.556, 461.089 152.664, 461.454 152.074 C 461.819 151.483, 461.690 151, 461.166 151 C 460.642 151, 459.936 151.726, 459.595 152.613 C 459.131 153.821, 458.646 153.951, 457.657 153.131 C 456.676 152.316, 455.847 152.479, 454.419 153.768 C 453.364 154.721, 451.242 156.150, 449.704 156.944 C 445.498 159.115, 439 164.964, 439 166.578 C 439 167.360, 438.325 168, 437.500 168 C 436.675 168, 436 168.690, 436 169.532 C 436 170.375, 434.988 171.471, 433.750 171.969 C 432.443 172.494, 432.128 172.907, 433 172.953 C 433.858 172.999, 433.157 173.894, 431.359 175.046 C 429.632 176.153, 427.627 178.507, 426.903 180.279 C 426.180 182.051, 424.182 185.525, 422.463 188 C 419.603 192.117, 418.420 194.883, 415.188 205 C 414.573 206.925, 414.151 210.439, 414.250 212.808 C 414.356 215.353, 413.918 217.432, 413.180 217.888 C 412.273 218.449, 412.009 221.726, 412.216 229.866 L 412.500 241.071 466.500 241.264 L 520.500 241.457 467.500 241.992 L 414.500 242.527 468.191 242.763 C 503.164 242.917, 522.097 242.651, 522.500 242 C 522.840 241.450, 522.572 241, 521.905 241 C 519.696 241, 521.583 214.664, 524.517 204.537 C 533.113 174.874, 554.252 154.384, 585 145.911 C 591.447 144.135, 591.056 144.121, 537 144.210 C 507.025 144.259, 481.150 144.477, 479.500 144.693 M 99.750 168.299 C 98.237 168.897, 97 169.749, 97 170.193 C 97 170.637, 96.100 171, 95 171 C 92.404 171, 85.531 177.898, 83.314 182.727 C 81.861 185.894, 81.576 189.712, 81.541 206.500 C 81.504 224.324, 81.707 226.881, 83.405 230 C 86.214 235.162, 89.216 238.984, 90.054 238.466 C 90.459 238.216, 91.048 238.684, 91.364 239.506 C 91.679 240.328, 92.851 241, 93.969 241 C 95.086 241, 96 241.516, 96 242.147 C 96 243.001, 110.439 243.193, 152.498 242.897 C 183.571 242.679, 208.996 242.162, 208.998 241.750 C 208.999 241.338, 199.041 241, 186.868 241 L 164.737 241 160.479 236.742 C 154.317 230.580, 153 225.256, 153 206.500 C 153 188.841, 154.331 182.853, 159.539 177.089 C 161.423 175.003, 164.998 172.218, 167.482 170.900 C 169.967 169.582, 172 168.165, 172 167.752 C 172 166.529, 102.905 167.053, 99.750 168.299 M 116.813 241.749 C 125.785 241.914, 140.185 241.914, 148.813 241.748 C 157.441 241.581, 150.100 241.446, 132.500 241.446 C 114.900 241.447, 107.841 241.583, 116.813 241.749 M 191 364.054 C 140.675 364.415, 82.731 364.776, 62.237 364.855 L 24.973 365 25.237 577.537 C 25.427 730.780, 25.807 790.272, 26.600 790.787 C 28.186 791.815, 30 795.552, 30 797.790 C 30 799.538, 35.176 807.199, 38.967 811.062 C 42.742 814.909, 49.752 819.915, 50.424 819.243 C 50.831 818.836, 51.772 819.335, 52.515 820.352 C 53.259 821.368, 54.319 821.921, 54.872 821.579 C 55.425 821.237, 56.242 821.556, 56.689 822.288 C 57.776 824.070, 63.615 826.362, 65.360 825.692 C 66.128 825.397, 67.283 825.684, 67.927 826.328 C 68.778 827.180, 81.548 827.586, 114.722 827.815 C 167.784 828.181, 171.683 827.805, 158 823.639 C 140.958 818.450, 127.255 803.914, 122.475 785.955 C 121.229 781.271, 121.022 751.140, 121.012 572.750 L 121 365 201.009 365 L 281.018 365 280.759 574.750 L 280.500 784.500 278.252 790.461 C 271.974 807.104, 257.197 820.279, 240.500 824.122 C 232.953 825.859, 232.827 825.911, 233.496 826.993 C 234.259 828.228, 238 828.338, 238 827.125 C 238 826.644, 239.422 825.966, 241.159 825.618 C 248.297 824.191, 259.150 817.865, 265.950 811.170 C 275.595 801.673, 279.967 792.826, 281.957 778.780 C 282.832 772.605, 283.050 718.841, 282.815 567.259 L 282.500 364.018 332 363.750 L 381.500 363.481 332 363.439 C 304.775 363.416, 241.325 363.693, 191 364.054 M 380.775 399.750 C 380.624 418.863, 380.772 434.862, 381.104 435.304 C 381.437 435.747, 383.620 433.059, 385.957 429.333 C 395.021 414.876, 409.630 397.207, 425.711 381.250 L 442.088 365 411.569 365 L 381.051 365 380.775 399.750 M 796.036 366.361 C 796.841 367.110, 801.595 371.352, 806.600 375.789 C 834.219 400.270, 860.303 437.738, 875.346 474.537 C 879.287 484.178, 880.758 488.313, 884.937 501.500 C 885.460 503.150, 886.804 508.325, 887.924 513 C 894.346 539.807, 895.406 549.127, 895.432 579 C 895.446 594.697, 894.956 607.960, 894.159 613.500 C 884.475 680.787, 856.593 735.306, 808.442 781.103 C 793.452 795.362, 770.519 812.154, 753.031 821.678 C 749.171 823.780, 746.010 825.849, 746.007 826.275 C 746.003 826.701, 788.413 826.926, 840.250 826.775 L 934.500 826.500 940.500 824.099 C 948.507 820.895, 956.552 815.340, 961.814 809.382 C 967.665 802.756, 967.519 802.967, 971.224 795.821 L 974.500 789.500 974.759 577.250 L 975.018 365 884.795 365 C 808.635 365, 794.800 365.212, 796.036 366.361 M 836.360 567 C 836.360 572.225, 836.529 574.362, 836.735 571.750 C 836.941 569.138, 836.941 564.862, 836.735 562.250 C 836.529 559.638, 836.360 561.775, 836.360 567 M 401.310 579.500 C 401.315 582.800, 401.502 584.029, 401.725 582.232 C 401.947 580.435, 401.943 577.735, 401.715 576.232 C 401.486 574.729, 401.304 576.200, 401.310 579.500 M 836.360 591 C 836.360 596.225, 836.529 598.362, 836.735 595.750 C 836.941 593.138, 836.941 588.862, 836.735 586.250 C 836.529 583.638, 836.360 585.775, 836.360 591 M 380.500 751.251 C 380.500 782.125, 380.024 785.973, 374.872 796.768 C 368.779 809.536, 352.285 822.623, 339.728 824.653 C 337.653 824.988, 335.714 825.654, 335.419 826.131 C 335.117 826.620, 369.345 826.990, 413.691 826.978 C 492.090 826.956, 492.487 826.945, 490 825 C 488.625 823.924, 487.158 823.034, 486.739 823.022 C 485.680 822.991, 468.848 812.593, 461 807.121 C 432.651 787.356, 407.556 761.689, 388.286 732.750 C 384.715 727.388, 381.503 723, 381.147 723.001 C 380.791 723.001, 380.500 735.713, 380.500 751.251 M 612.206 797.741 C 615.895 797.932, 622.195 797.934, 626.206 797.743 C 630.218 797.553, 627.200 797.396, 619.500 797.395 C 611.800 797.393, 608.518 797.549, 612.206 797.741" stroke="none" fill="#3f6d8e" fill-rule="evenodd"/><path d="M 585 145.911 C 554.252 154.384, 533.113 174.874, 524.517 204.537 C 521.583 214.664, 519.696 241, 521.905 241 C 522.572 241, 522.840 241.450, 522.500 242 C 522.089 242.665, 572.347 243, 672.512 243 C 801.725 243, 823.346 242.797, 824.571 241.571 C 826.264 239.879, 826.653 223, 825 223 C 824.450 223, 824 221.650, 824 220 C 824 218.350, 824.459 217, 825.019 217 C 825.580 217, 825.819 215.988, 825.551 214.750 C 823.972 207.460, 821.606 198.299, 820.968 197.004 C 820.560 196.177, 818.713 192.410, 816.863 188.633 C 815.013 184.856, 812.263 180.421, 810.750 178.777 C 809.237 177.133, 808 175.364, 808 174.846 C 808 173.327, 794.042 160, 792.451 160 C 791.653 160, 791 159.593, 791 159.095 C 791 157.022, 775.274 148.852, 772.745 149.611 C 771.700 149.925, 770.747 149.503, 770.388 148.569 C 770.057 147.706, 768.736 147, 767.452 147 C 766.168 147, 764.812 146.505, 764.438 145.899 C 764.054 145.278, 762.519 145.046, 760.917 145.367 C 759.356 145.679, 757.809 145.499, 757.480 144.967 C 757.102 144.356, 726.440 144.022, 674.191 144.060 C 597.912 144.116, 590.996 144.259, 585 145.911 M 172 167.752 C 172 168.165, 169.967 169.582, 167.482 170.900 C 164.998 172.218, 161.423 175.003, 159.539 177.089 C 154.331 182.853, 153 188.841, 153 206.500 C 153 225.256, 154.317 230.580, 160.479 236.742 L 164.737 241 186.868 241 C 203.889 241, 209.008 241.289, 209.033 242.250 C 209.052 242.938, 209.931 242.463, 210.988 241.196 C 212.044 239.928, 213.556 239.028, 214.347 239.196 C 216.024 239.550, 220.244 235.283, 222.752 230.696 C 224.212 228.027, 224.554 224.244, 224.825 207.750 C 225.049 194.129, 224.816 188, 224.075 188 C 223.484 188, 223 186.853, 223 185.450 C 223 178.789, 215.253 171.266, 205.101 168.070 C 201.277 166.866, 172 166.585, 172 167.752 M 179.250 242.746 C 184.613 242.925, 193.387 242.925, 198.750 242.746 C 204.113 242.566, 199.725 242.419, 189 242.419 C 178.275 242.419, 173.887 242.566, 179.250 242.746 M 616.768 302.725 C 618.565 302.947, 621.265 302.943, 622.768 302.715 C 624.271 302.486, 622.800 302.304, 619.500 302.310 C 616.200 302.315, 614.971 302.502, 616.768 302.725 M 594.750 303.723 C 596.538 303.945, 599.462 303.945, 601.250 303.723 C 603.038 303.502, 601.575 303.320, 598 303.320 C 594.425 303.320, 592.962 303.502, 594.750 303.723 M 637.750 303.723 C 639.538 303.945, 642.462 303.945, 644.250 303.723 C 646.038 303.502, 644.575 303.320, 641 303.320 C 637.425 303.320, 635.962 303.502, 637.750 303.723 M 89.328 363.750 C 124.983 363.896, 183.033 363.895, 218.328 363.750 C 253.622 363.604, 224.450 363.485, 153.500 363.485 C 82.550 363.485, 53.672 363.604, 89.328 363.750 M 396.750 363.748 C 405.688 363.914, 420.313 363.914, 429.250 363.748 C 438.188 363.582, 430.875 363.447, 413 363.447 C 395.125 363.447, 387.813 363.582, 396.750 363.748 M 838.250 363.750 C 863.413 363.898, 904.588 363.898, 929.750 363.750 C 954.913 363.601, 934.325 363.479, 884 363.479 C 833.675 363.479, 813.088 363.601, 838.250 363.750 M 121.012 572.750 C 121.022 751.140, 121.229 781.271, 122.475 785.955 C 127.255 803.914, 140.958 818.450, 158 823.639 C 161.025 824.560, 163.927 825.693, 164.450 826.157 C 165.718 827.282, 231.544 827.245, 233.764 826.118 C 234.719 825.633, 237.750 824.727, 240.500 824.104 C 257.130 820.337, 271.971 807.112, 278.252 790.461 L 280.500 784.500 280.759 574.750 L 281.018 365 201.009 365 L 121 365 121.012 572.750" stroke="none" fill="#477b9e" fill-rule="evenodd"/><path d="M 479.500 144.693 C 477.850 144.909, 475.825 145.378, 475 145.736 C 474.175 146.093, 473.050 146.441, 472.500 146.509 C 468.592 146.992, 465 148.347, 465 149.339 C 465 149.988, 464.053 151.110, 462.895 151.833 C 461.738 152.556, 461.089 152.664, 461.454 152.074 C 461.819 151.483, 461.690 151, 461.166 151 C 460.642 151, 459.936 151.726, 459.595 152.613 C 459.131 153.821, 458.646 153.951, 457.657 153.131 C 456.676 152.316, 455.847 152.479, 454.419 153.768 C 453.364 154.721, 451.242 156.150, 449.704 156.944 C 445.498 159.115, 439 164.964, 439 166.578 C 439 167.360, 438.325 168, 437.500 168 C 436.675 168, 436 168.690, 436 169.532 C 436 170.375, 434.988 171.471, 433.750 171.969 C 432.443 172.494, 432.128 172.907, 433 172.953 C 433.858 172.999, 433.157 173.894, 431.359 175.046 C 429.632 176.153, 427.627 178.507, 426.903 180.279 C 426.180 182.051, 424.182 185.525, 422.463 188 C 419.603 192.117, 418.420 194.883, 415.188 205 C 414.573 206.925, 414.151 210.439, 414.250 212.808 C 414.356 215.353, 413.918 217.432, 413.180 217.888 C 412.273 218.449, 412.009 221.726, 412.216 229.866 L 412.500 241.071 466.500 241.264 L 520.500 241.457 467.500 241.992 L 414.500 242.527 468.191 242.763 C 503.164 242.917, 522.097 242.651, 522.500 242 C 522.840 241.450, 522.572 241, 521.905 241 C 519.696 241, 521.583 214.664, 524.517 204.537 C 533.113 174.874, 554.252 154.384, 585 145.911 C 591.447 144.135, 591.056 144.121, 537 144.210 C 507.025 144.259, 481.150 144.477, 479.500 144.693 M 99.750 168.299 C 98.237 168.897, 97 169.749, 97 170.193 C 97 170.637, 96.100 171, 95 171 C 92.404 171, 85.531 177.898, 83.314 182.727 C 81.861 185.894, 81.576 189.712, 81.541 206.500 C 81.504 224.324, 81.707 226.881, 83.405 230 C 86.214 235.162, 89.216 238.984, 90.054 238.466 C 90.459 238.216, 91.048 238.684, 91.364 239.506 C 91.679 240.328, 92.851 241, 93.969 241 C 95.086 241, 96 241.516, 96 242.147 C 96 243.001, 110.439 243.193, 152.498 242.897 C 183.571 242.679, 208.996 242.162, 208.998 241.750 C 208.999 241.338, 199.041 241, 186.868 241 L 164.737 241 160.479 236.742 C 154.317 230.580, 153 225.256, 153 206.500 C 153 188.841, 154.331 182.853, 159.539 177.089 C 161.423 175.003, 164.998 172.218, 167.482 170.900 C 169.967 169.582, 172 168.165, 172 167.752 C 172 166.529, 102.905 167.053, 99.750 168.299 M 116.813 241.749 C 125.785 241.914, 140.185 241.914, 148.813 241.748 C 157.441 241.581, 150.100 241.446, 132.500 241.446 C 114.900 241.447, 107.841 241.583, 116.813 241.749 M 191 364.054 C 140.675 364.415, 82.731 364.776, 62.237 364.855 L 24.973 365 25.237 577.537 C 25.427 730.780, 25.807 790.272, 26.600 790.787 C 28.186 791.815, 30 795.552, 30 797.790 C 30 799.538, 35.176 807.199, 38.967 811.062 C 42.742 814.909, 49.752 819.915, 50.424 819.243 C 50.831 818.836, 51.772 819.335, 52.515 820.352 C 53.259 821.368, 54.319 821.921, 54.872 821.579 C 55.425 821.237, 56.242 821.556, 56.689 822.288 C 57.776 824.070, 63.615 826.362, 65.360 825.692 C 66.128 825.397, 67.283 825.684, 67.927 826.328 C 68.778 827.180, 81.548 827.586, 114.722 827.815 C 167.784 828.181, 171.683 827.805, 158 823.639 C 140.958 818.450, 127.255 803.914, 122.475 785.955 C 121.229 781.271, 121.022 751.140, 121.012 572.750 L 121 365 201.009 365 L 281.018 365 280.759 574.750 L 280.500 784.500 278.252 790.461 C 271.974 807.104, 257.197 820.279, 240.500 824.122 C 232.953 825.859, 232.827 825.911, 233.496 826.993 C 234.259 828.228, 238 828.338, 238 827.125 C 238 826.644, 239.422 825.966, 241.159 825.618 C 248.297 824.191, 259.150 817.865, 265.950 811.170 C 275.595 801.673, 279.967 792.826, 281.957 778.780 C 282.832 772.605, 283.050 718.841, 282.815 567.259 L 282.500 364.018 332 363.750 L 381.500 363.481 332 363.439 C 304.775 363.416, 241.325 363.693, 191 364.054 M 380.775 399.750 C 380.624 418.863, 380.772 434.862, 381.104 435.304 C 381.437 435.747, 383.620 433.059, 385.957 429.333 C 395.021 414.876, 409.630 397.207, 425.711 381.250 L 442.088 365 411.569 365 L 381.051 365 380.775 399.750 M 796.036 366.361 C 796.841 367.110, 801.595 371.352, 806.600 375.789 C 834.219 400.270, 860.303 437.738, 875.346 474.537 C 879.287 484.178, 880.758 488.313, 884.937 501.500 C 885.460 503.150, 886.804 508.325, 887.924 513 C 894.346 539.807, 895.406 549.127, 895.432 579 C 895.446 594.697, 894.956 607.960, 894.159 613.500 C 884.475 680.787, 856.593 735.306, 808.442 781.103 C 793.452 795.362, 770.519 812.154, 753.031 821.678 C 749.171 823.780, 746.010 825.849, 746.007 826.275 C 746.003 826.701, 788.413 826.926, 840.250 826.775 L 934.500 826.500 940.500 824.099 C 948.507 820.895, 956.552 815.340, 961.814 809.382 C 967.665 802.756, 967.519 802.967, 971.224 795.821 L 974.500 789.500 974.759 577.250 L 975.018 365 884.795 365 C 808.635 365, 794.800 365.212, 796.036 366.361 M 836.360 567 C 836.360 572.225, 836.529 574.362, 836.735 571.750 C 836.941 569.138, 836.941 564.862, 836.735 562.250 C 836.529 559.638, 836.360 561.775, 836.360 567 M 401.310 579.500 C 401.315 582.800, 401.502 584.029, 401.725 582.232 C 401.947 580.435, 401.943 577.735, 401.715 576.232 C 401.486 574.729, 401.304 576.200, 401.310 579.500 M 836.360 591 C 836.360 596.225, 836.529 598.362, 836.735 595.750 C 836.941 593.138, 836.941 588.862, 836.735 586.250 C 836.529 583.638, 836.360 585.775, 836.360 591 M 380.500 751.251 C 380.500 782.125, 380.024 785.973, 374.872 796.768 C 368.779 809.536, 352.285 822.623, 339.728 824.653 C 337.653 824.988, 335.714 825.654, 335.419 826.131 C 335.117 826.620, 369.345 826.990, 413.691 826.978 C 492.090 826.956, 492.487 826.945, 490 825 C 488.625 823.924, 487.158 823.034, 486.739 823.022 C 485.680 822.991, 468.848 812.593, 461 807.121 C 432.651 787.356, 407.556 761.689, 388.286 732.750 C 384.715 727.388, 381.503 723, 381.147 723.001 C 380.791 723.001, 380.500 735.713, 380.500 751.251 M 612.206 797.741 C 615.895 797.932, 622.195 797.934, 626.206 797.743 C 630.218 797.553, 627.200 797.396, 619.500 797.395 C 611.800 797.393, 608.518 797.549, 612.206 797.741" stroke="none" fill="#3f6d8e" fill-rule="evenodd"/><path d="M 479.500 144.693 C 477.850 144.909, 475.825 145.378, 475 145.736 C 474.175 146.093, 473.050 146.441, 472.500 146.509 C 468.592 146.992, 465 148.347, 465 149.339 C 465 149.988, 464.053 151.110, 462.895 151.833 C 461.738 152.556, 461.089 152.664, 461.454 152.074 C 461.819 151.483, 461.690 151, 461.166 151 C 460.642 151, 459.936 151.726, 459.595 152.613 C 459.131 153.821, 458.646 153.951, 457.657 153.131 C 456.676 152.316, 455.847 152.479, 454.419 153.768 C 453.364 154.721, 451.242 156.150, 449.704 156.944 C 445.498 159.115, 439 164.964, 439 166.578 C 439 167.360, 438.325 168, 437.500 168 C 436.675 168, 436 168.690, 436 169.532 C 436 170.375, 434.988 171.471, 433.750 171.969 C 432.443 172.494, 432.128 172.907, 433 172.953 C 433.858 172.999, 433.157 173.894, 431.359 175.046 C 429.632 176.153, 427.627 178.507, 426.903 180.279 C 426.180 182.051, 424.182 185.525, 422.463 188 C 419.603 192.117, 418.420 194.883, 415.188 205 C 414.573 206.925, 414.151 210.439, 414.250 212.808 C 414.356 215.353, 413.918 217.432, 413.180 217.888 C 412.273 218.449, 412.009 221.726, 412.216 229.866 L 412.500 241.071 466.500 241.264 L 520.500 241.457 467.500 241.992 L 414.500 242.527 468.191 242.763 C 503.164 242.917, 522.097 242.651, 522.500 242 C 522.840 241.450, 522.572 241, 521.905 241 C 519.696 241, 521.583 214.664, 524.517 204.537 C 533.113 174.874, 554.252 154.384, 585 145.911 C 591.447 144.135, 591.056 144.121, 537 144.210 C 507.025 144.259, 481.150 144.477, 479.500 144.693 M 99.750 168.299 C 98.237 168.897, 97 169.749, 97 170.193 C 97 170.637, 96.100 171, 95 171 C 92.404 171, 85.531 177.898, 83.314 182.727 C 81.861 185.894, 81.576 189.712, 81.541 206.500 C 81.504 224.324, 81.707 226.881, 83.405 230 C 86.214 235.162, 89.216 238.984, 90.054 238.466 C 90.459 238.216, 91.048 238.684, 91.364 239.506 C 91.679 240.328, 92.851 241, 93.969 241 C 95.086 241, 96 241.516, 96 242.147 C 96 243.001, 110.439 243.193, 152.498 242.897 C 183.571 242.679, 208.996 242.162, 208.998 241.750 C 208.999 241.338, 199.041 241, 186.868 241 L 164.737 241 160.479 236.742 C 154.317 230.580, 153 225.256, 153 206.500 C 153 188.841, 154.331 182.853, 159.539 177.089 C 161.423 175.003, 164.998 172.218, 167.482 170.900 C 169.967 169.582, 172 168.165, 172 167.752 C 172 166.529, 102.905 167.053, 99.750 168.299 M 116.813 241.749 C 125.785 241.914, 140.185 241.914, 148.813 241.748 C 157.441 241.581, 150.100 241.446, 132.500 241.446 C 114.900 241.447, 107.841 241.583, 116.813 241.749 M 191 364.054 C 140.675 364.415, 82.731 364.776, 62.237 364.855 L 24.973 365 25.237 577.537 C 25.427 730.780, 25.807 790.272, 26.600 790.787 C 28.186 791.815, 30 795.552, 30 797.790 C 30 799.538, 35.176 807.199, 38.967 811.062 C 42.742 814.909, 49.752 819.915, 50.424 819.243 C 50.831 818.836, 51.772 819.335, 52.515 820.352 C 53.259 821.368, 54.319 821.921, 54.872 821.579 C 55.425 821.237, 56.242 821.556, 56.689 822.288 C 57.776 824.070, 63.615 826.362, 65.360 825.692 C 66.128 825.397, 67.283 825.684, 67.927 826.328 C 68.778 827.180, 81.548 827.586, 114.722 827.815 C 167.784 828.181, 171.683 827.805, 158 823.639 C 140.958 818.450, 127.255 803.914, 122.475 785.955 C 121.229 781.271, 121.022 751.140, 121.012 572.750 L 121 365 201.009 365 L 281.018 365 280.759 574.750 L 280.500 784.500 278.252 790.461 C 271.974 807.104, 257.197 820.279, 240.500 824.122 C 232.953 825.859, 232.827 825.911, 233.496 826.993 C 234.259 828.228, 238 828.338, 238 827.125 C 238 826.644, 239.422 825.966, 241.159 825.618 C 248.297 824.191, 259.150 817.865, 265.950 811.170 C 275.595 801.673, 279.967 792.826, 281.957 778.780 C 282.832 772.605, 283.050 718.841, 282.815 567.259 L 282.500 364.018 332 363.750 L 381.500 363.481 332 363.439 C 304.775 363.416, 241.325 363.693, 191 364.054 M 380.775 399.750 C 380.624 418.863, 380.772 434.862, 381.104 435.304 C 381.437 435.747, 383.620 433.059, 385.957 429.333 C 395.021 414.876, 409.630 397.207, 425.711 381.250 L 442.088 365 411.569 365 L 381.051 365 380.775 399.750 M 796.036 366.361 C 796.841 367.110, 801.595 371.352, 806.600 375.789 C 834.219 400.270, 860.303 437.738, 875.346 474.537 C 879.287 484.178, 880.758 488.313, 884.937 501.500 C 885.460 503.150, 886.804 508.325, 887.924 513 C 894.346 539.807, 895.406 549.127, 895.432 579 C 895.446 594.697, 894.956 607.960, 894.159 613.500 C 884.475 680.787, 856.593 735.306, 808.442 781.103 C 793.452 795.362, 770.519 812.154, 753.031 821.678 C 749.171 823.780, 746.010 825.849, 746.007 826.275 C 746.003 826.701, 788.413 826.926, 840.250 826.775 L 934.500 826.500 940.500 824.099 C 948.507 820.895, 956.552 815.340, 961.814 809.382 C 967.665 802.756, 967.519 802.967, 971.224 795.821 L 974.500 789.500 974.759 577.250 L 975.018 365 884.795 365 C 808.635 365, 794.800 365.212, 796.036 366.361 M 836.360 567 C 836.360 572.225, 836.529 574.362, 836.735 571.750 C 836.941 569.138, 836.941 564.862, 836.735 562.250 C 836.529 559.638, 836.360 561.775, 836.360 567 M 401.310 579.500 C 401.315 582.800, 401.502 584.029, 401.725 582.232 C 401.947 580.435, 401.943 577.735, 401.715 576.232 C 401.486 574.729, 401.304 576.200, 401.310 579.500 M 836.360 591 C 836.360 596.225, 836.529 598.362, 836.735 595.750 C 836.941 593.138, 836.941 588.862, 836.735 586.250 C 836.529 583.638, 836.360 585.775, 836.360 591 M 380.500 751.251 C 380.500 782.125, 380.024 785.973, 374.872 796.768 C 368.779 809.536, 352.285 822.623, 339.728 824.653 C 337.653 824.988, 335.714 825.654, 335.419 826.131 C 335.117 826.620, 369.345 826.990, 413.691 826.978 C 492.090 826.956, 492.487 826.945, 490 825 C 488.625 823.924, 487.158 823.034, 486.739 823.022 C 485.680 822.991, 468.848 812.593, 461 807.121 C 432.651 787.356, 407.556 761.689, 388.286 732.750 C 384.715 727.388, 381.503 723, 381.147 723.001 C 380.791 723.001, 380.500 735.713, 380.500 751.251 M 612.206 797.741 C 615.895 797.932, 622.195 797.934, 626.206 797.743 C 630.218 797.553, 627.200 797.396, 619.500 797.395 C 611.800 797.393, 608.518 797.549, 612.206 797.741" stroke="none" fill="#3f6d8e" fill-rule="evenodd"/><path d="M 75.783 244.151 C 75.572 244.784, 72.826 245.516, 69.681 245.777 C 66.536 246.037, 63.720 246.644, 63.423 247.125 C 63.125 247.606, 62.060 248, 61.055 248 C 56.935 248, 44.323 256.281, 39.160 262.377 C 26.819 276.947, 25 285.479, 25 328.810 L 25 360 71.913 360 L 118.825 360 119.270 324.750 C 119.751 286.652, 120.106 283.686, 125.517 272.475 C 128.918 265.430, 140.315 253.450, 147 249.894 L 151.500 247.500 123.500 247 C 103.119 246.636, 95.500 246.183, 95.500 245.333 C 95.500 244.692, 95.090 243.792, 94.590 243.333 C 94.061 242.849, 93.981 243.024, 94.399 243.750 C 95.280 245.281, 90.444 245.528, 89.500 244 C 88.622 242.580, 76.261 242.716, 75.783 244.151 M 337 243.881 C 337 244.366, 339.137 245.300, 341.750 245.957 C 354.685 249.211, 369.100 261.084, 374.892 273.254 C 380.460 284.955, 380.995 289.746, 380.943 327.500 L 380.897 361.500 413.199 361.522 L 445.500 361.543 413.700 361.258 C 396.210 361.100, 382.104 360.641, 382.354 360.236 C 382.603 359.831, 397.270 359.625, 414.946 359.777 C 438.475 359.980, 446.898 360.356, 446.388 361.182 C 445.959 361.876, 446.141 362.031, 446.862 361.585 C 447.506 361.187, 447.755 360.413, 447.416 359.864 C 447.077 359.316, 447.632 358.236, 448.650 357.465 C 450.910 355.753, 452.373 355.588, 451.405 357.155 C 450.959 357.876, 451.131 358.037, 451.862 357.585 C 452.506 357.187, 452.796 356.479, 452.507 356.011 C 451.910 355.046, 456.681 350.992, 458.385 351.015 C 458.998 351.024, 458.825 351.467, 458 352 C 456.861 352.736, 456.823 352.973, 457.844 352.985 C 458.583 352.993, 459.423 352.100, 459.710 351 C 459.998 349.900, 460.657 349, 461.176 349 C 461.694 349, 461.811 349.497, 461.436 350.104 C 461.061 350.711, 461.957 350.419, 463.427 349.456 C 464.920 348.478, 465.871 347.107, 465.582 346.352 C 465.285 345.580, 465.718 345, 466.590 345 C 467.490 345, 467.825 345.474, 467.405 346.155 C 466.972 346.854, 467.129 347.038, 467.802 346.622 C 468.413 346.245, 468.659 345.275, 468.349 344.468 C 467.993 343.539, 468.398 343, 469.452 343 C 470.457 343, 470.835 343.458, 470.405 344.155 C 469.972 344.854, 470.129 345.038, 470.802 344.622 C 471.413 344.245, 471.659 343.275, 471.349 342.468 C 470.993 341.539, 471.398 341, 472.452 341 C 473.457 341, 473.835 341.458, 473.405 342.155 C 472.959 342.876, 473.131 343.037, 473.862 342.585 C 474.506 342.187, 474.788 341.465, 474.488 340.981 C 473.736 339.764, 477.311 338, 480.528 338 C 482.346 338, 483.353 337.368, 483.710 336 C 483.998 334.900, 484.657 334, 485.176 334 C 485.694 334, 485.797 334.520, 485.405 335.155 C 484.962 335.870, 485.130 336.038, 485.845 335.595 C 486.480 335.203, 487 334.234, 487 333.441 C 487 332.648, 487.702 332, 488.559 332 C 489.483 332, 489.827 332.470, 489.405 333.155 C 488.972 333.854, 489.129 334.038, 489.802 333.622 C 490.413 333.245, 490.659 332.275, 490.349 331.468 C 489.961 330.456, 490.459 330, 491.952 330 C 493.335 330, 493.860 330.418, 493.405 331.155 C 492.972 331.854, 493.129 332.038, 493.802 331.622 C 494.413 331.245, 494.633 330.208, 494.292 329.318 C 493.776 327.973, 494.162 327.815, 496.586 328.381 C 498.453 328.816, 499.012 328.735, 498.143 328.155 C 496.166 326.836, 498.322 325.824, 501.704 326.485 C 503.761 326.886, 503.991 326.809, 502.573 326.190 C 500.721 325.382, 500.718 325.322, 502.493 324.641 C 503.509 324.251, 504.605 324.362, 504.930 324.886 C 505.277 325.449, 507.130 325.096, 509.439 324.028 C 512.673 322.533, 513.021 322.116, 511.429 321.644 C 510.355 321.325, 510.744 321.221, 512.308 321.408 C 514.363 321.655, 514.975 321.377, 514.589 320.372 C 514.250 319.487, 514.783 319, 516.090 319 C 517.206 319, 517.843 319.445, 517.507 319.989 C 517.162 320.546, 517.545 320.728, 518.385 320.406 C 519.204 320.092, 519.629 319.197, 519.330 318.417 C 518.964 317.463, 519.494 317, 520.952 317 C 522.143 317, 522.843 317.445, 522.507 317.989 C 522.162 318.546, 522.545 318.728, 523.385 318.406 C 524.204 318.092, 524.629 317.197, 524.330 316.417 C 523.967 315.471, 524.486 315, 525.893 315 C 527.052 315, 528 315.436, 528 315.969 C 528 316.501, 528.713 316.664, 529.584 316.329 C 530.725 315.892, 530.835 315.516, 529.977 314.986 C 527.948 313.732, 530.627 312.856, 534.733 313.430 C 537.420 313.806, 537.783 313.732, 536 313.172 L 533.500 312.387 535.924 311.742 C 537.256 311.387, 538.831 311.398, 539.424 311.767 C 540.811 312.632, 545.221 312.096, 546.450 310.914 C 546.972 310.411, 548.772 309.941, 550.450 309.868 L 553.500 309.737 550 308.953 L 546.500 308.169 550.500 308.181 C 557.401 308.203, 557.728 308.128, 556 306.926 C 554.879 306.146, 555.575 305.967, 558.750 306.217 C 561.705 306.451, 563 306.164, 563 305.276 C 563 304.433, 564.506 304, 567.441 304 C 569.884 304, 572.160 303.550, 572.500 303 C 572.840 302.450, 575.593 302, 578.618 302 C 581.643 302, 583.890 302.369, 583.612 302.819 C 583.333 303.270, 584.544 303.415, 586.303 303.142 C 589.371 302.666, 589.399 302.620, 587 302.016 L 584.500 301.387 587 300.707 C 590.405 299.781, 603.232 299.816, 602.654 300.750 C 602.399 301.162, 609.797 301.500, 619.094 301.500 C 628.392 301.500, 635.999 301.107, 635.999 300.628 C 636 299.211, 663.826 301.540, 665.450 303.092 C 666.039 303.655, 665.850 304.006, 664.950 304.015 C 663.717 304.028, 663.724 304.176, 665 305 C 666.958 306.266, 668.282 306.266, 667.500 305 C 667.126 304.395, 668.509 304, 671 304 C 673.767 304, 674.893 304.365, 674.431 305.112 C 673.743 306.224, 675.617 307.969, 677.500 307.969 C 678.050 307.969, 677.825 307.533, 677 307 C 675.917 306.300, 676.752 306.054, 680 306.115 C 683.269 306.176, 683.855 306.380, 682.145 306.861 C 679.960 307.474, 680.069 307.624, 683.645 308.924 C 685.765 309.695, 689.975 310.312, 693 310.294 C 697.406 310.269, 697.903 310.412, 695.500 311.013 C 692.635 311.730, 692.613 311.775, 695 312.027 C 696.375 312.172, 699.075 312.246, 701 312.191 C 704.073 312.104, 704.195 312.186, 702 312.861 L 699.500 313.631 702.215 314.170 C 703.708 314.467, 705.067 314.299, 705.234 313.797 C 705.401 313.296, 706.355 313.199, 707.353 313.582 C 708.596 314.059, 708.800 314.506, 707.999 315 C 707.235 315.472, 707.553 315.911, 708.917 316.268 C 710.064 316.568, 710.751 316.405, 710.442 315.907 C 710.134 315.408, 710.857 315, 712.048 315 C 713.506 315, 714.036 315.463, 713.670 316.417 C 713.371 317.197, 713.796 318.092, 714.615 318.406 C 715.455 318.728, 715.838 318.546, 715.493 317.989 C 715.157 317.445, 715.857 317, 717.048 317 C 718.506 317, 719.036 317.463, 718.670 318.417 C 718.371 319.197, 718.810 320.097, 719.645 320.417 C 721.960 321.306, 722.678 321.085, 721 320 C 719.784 319.214, 719.919 319.028, 721.719 319.015 C 723.220 319.005, 723.762 319.456, 723.396 320.410 C 722.758 322.074, 726.100 323.398, 730.500 323.223 C 732.842 323.130, 733.078 323.273, 731.577 323.876 C 729.933 324.536, 730.223 324.876, 733.577 326.216 C 736.138 327.241, 737.722 327.431, 738.138 326.764 C 738.489 326.203, 739.325 326.083, 739.995 326.497 C 740.933 327.076, 740.939 327.420, 740.023 327.986 C 739.171 328.512, 739.298 328.900, 740.468 329.349 C 741.424 329.716, 741.850 329.566, 741.493 328.989 C 741.157 328.445, 741.632 328, 742.548 328 C 743.575 328, 744.005 328.544, 743.670 329.417 C 743.371 330.197, 743.796 331.092, 744.615 331.406 C 745.455 331.728, 745.838 331.546, 745.493 330.989 C 745.157 330.445, 745.632 330, 746.548 330 C 747.575 330, 748.005 330.544, 747.670 331.417 C 747.371 332.197, 747.796 333.092, 748.615 333.406 C 749.455 333.728, 749.838 333.546, 749.493 332.989 C 749.157 332.445, 749.610 332, 750.500 332 C 751.466 332, 751.831 332.464, 751.406 333.152 C 750.402 334.777, 753.663 336.882, 756.296 336.307 C 757.742 335.992, 758.077 336.130, 757.270 336.710 C 756.382 337.348, 756.867 338.081, 759.020 339.353 C 760.840 340.428, 762 340.677, 762 339.993 C 762 339.353, 763.717 339.837, 766 341.120 C 768.200 342.357, 770 343.791, 770 344.307 C 770 344.823, 769.314 344.676, 768.476 343.980 C 767.638 343.284, 766.751 342.915, 766.507 343.160 C 766.262 343.405, 767.464 344.434, 769.179 345.447 C 770.893 346.459, 771.978 346.773, 771.589 346.144 C 771.200 345.515, 771.359 345, 771.941 345 C 772.523 345, 773 345.450, 773 346 C 773 346.550, 773.788 347.036, 774.750 347.079 C 775.806 347.127, 776.002 347.359, 775.244 347.664 C 774.553 347.943, 774.230 348.563, 774.526 349.042 C 774.822 349.521, 775.703 349.668, 776.483 349.368 C 777.817 348.856, 781.541 351.190, 788.500 356.899 C 790.248 358.333, 790.711 359.067, 789.609 358.657 C 788.151 358.115, 787.959 358.246, 788.773 359.227 C 789.618 360.244, 808.435 360.448, 882.458 360.240 L 975.086 359.979 974.793 320.240 L 974.500 280.500 971.829 275 C 968.356 267.846, 963.355 261, 961.602 261 C 960.840 261, 959.952 259.988, 959.628 258.750 C 958.660 255.048, 942.176 245, 937.070 245 C 935.996 245, 934.840 244.550, 934.500 244 C 933.542 242.450, 830.755 242.645, 829.200 244.200 C 828.267 245.133, 828 245.096, 828 244.033 C 828 243.282, 827.663 243.004, 827.250 243.417 C 826.837 243.829, 826.500 244.692, 826.500 245.333 C 826.500 246.218, 776.548 246.500, 619.500 246.500 C 457.709 246.500, 412.552 246.235, 412.738 245.286 C 412.876 244.584, 412.348 244.313, 411.488 244.643 C 410.670 244.957, 410 244.716, 410 244.107 C 410 243.318, 399.518 243, 373.500 243 C 353.111 243, 337 243.389, 337 243.881 M 282.446 326.500 C 282.447 344.100, 282.583 351.159, 282.749 342.187 C 282.914 333.215, 282.914 318.815, 282.748 310.187 C 282.581 301.559, 282.446 308.900, 282.446 326.500 M 611.250 299.743 C 615.513 299.931, 622.487 299.931, 626.750 299.743 C 631.013 299.556, 627.525 299.402, 619 299.402 C 610.475 299.402, 606.987 299.556, 611.250 299.743 M 48.819 361.749 C 62.195 361.907, 83.795 361.907, 96.819 361.749 C 109.844 361.591, 98.900 361.462, 72.500 361.462 C 46.100 361.463, 35.444 361.592, 48.819 361.749 M 837.826 361.750 C 863.305 361.898, 904.705 361.898, 929.826 361.750 C 954.947 361.601, 934.100 361.479, 883.500 361.479 C 832.900 361.479, 812.347 361.601, 837.826 361.750" stroke="none" fill="#b5dcff" fill-rule="evenodd"/><path d="M 210.500 244 C 210.114 244.624, 200.421 245, 184.735 245 L 159.588 245 152.065 248.750 C 142.408 253.564, 130.605 264.940, 126.585 273.309 C 121.476 283.947, 121.054 287.920, 120.974 326.197 L 120.900 361.500 200.700 361.500 L 280.500 361.500 280.797 327 C 281.123 289.023, 280.683 284.432, 275.713 274 C 271.757 265.694, 260.750 254.464, 253 250.826 C 244.670 246.915, 242.125 246, 239.575 246 C 238.294 246, 236.685 245.325, 236 244.500 C 235.022 243.322, 232.222 243, 222.937 243 C 216.136 243, 210.856 243.425, 210.500 244" stroke="none" fill="#dbedff" fill-rule="evenodd"/><path d="M 585 145.911 C 554.252 154.384, 533.113 174.874, 524.517 204.537 C 521.583 214.664, 519.696 241, 521.905 241 C 522.572 241, 522.840 241.450, 522.500 242 C 522.089 242.665, 572.347 243, 672.512 243 C 801.725 243, 823.346 242.797, 824.571 241.571 C 826.264 239.879, 826.653 223, 825 223 C 824.450 223, 824 221.650, 824 220 C 824 218.350, 824.459 217, 825.019 217 C 825.580 217, 825.819 215.988, 825.551 214.750 C 823.972 207.460, 821.606 198.299, 820.968 197.004 C 820.560 196.177, 818.713 192.410, 816.863 188.633 C 815.013 184.856, 812.263 180.421, 810.750 178.777 C 809.237 177.133, 808 175.364, 808 174.846 C 808 173.327, 794.042 160, 792.451 160 C 791.653 160, 791 159.593, 791 159.095 C 791 157.022, 775.274 148.852, 772.745 149.611 C 771.700 149.925, 770.747 149.503, 770.388 148.569 C 770.057 147.706, 768.736 147, 767.452 147 C 766.168 147, 764.812 146.505, 764.438 145.899 C 764.054 145.278, 762.519 145.046, 760.917 145.367 C 759.356 145.679, 757.809 145.499, 757.480 144.967 C 757.102 144.356, 726.440 144.022, 674.191 144.060 C 597.912 144.116, 590.996 144.259, 585 145.911 M 172 167.752 C 172 168.165, 169.967 169.582, 167.482 170.900 C 164.998 172.218, 161.423 175.003, 159.539 177.089 C 154.331 182.853, 153 188.841, 153 206.500 C 153 225.256, 154.317 230.580, 160.479 236.742 L 164.737 241 186.868 241 C 203.889 241, 209.008 241.289, 209.033 242.250 C 209.052 242.938, 209.931 242.463, 210.988 241.196 C 212.044 239.928, 213.556 239.028, 214.347 239.196 C 216.024 239.550, 220.244 235.283, 222.752 230.696 C 224.212 228.027, 224.554 224.244, 224.825 207.750 C 225.049 194.129, 224.816 188, 224.075 188 C 223.484 188, 223 186.853, 223 185.450 C 223 178.789, 215.253 171.266, 205.101 168.070 C 201.277 166.866, 172 166.585, 172 167.752 M 179.250 242.746 C 184.613 242.925, 193.387 242.925, 198.750 242.746 C 204.113 242.566, 199.725 242.419, 189 242.419 C 178.275 242.419, 173.887 242.566, 179.250 242.746 M 616.768 302.725 C 618.565 302.947, 621.265 302.943, 622.768 302.715 C 624.271 302.486, 622.800 302.304, 619.500 302.310 C 616.200 302.315, 614.971 302.502, 616.768 302.725 M 594.750 303.723 C 596.538 303.945, 599.462 303.945, 601.250 303.723 C 603.038 303.502, 601.575 303.320, 598 303.320 C 594.425 303.320, 592.962 303.502, 594.750 303.723 M 637.750 303.723 C 639.538 303.945, 642.462 303.945, 644.250 303.723 C 646.038 303.502, 644.575 303.320, 641 303.320 C 637.425 303.320, 635.962 303.502, 637.750 303.723 M 89.328 363.750 C 124.983 363.896, 183.033 363.895, 218.328 363.750 C 253.622 363.604, 224.450 363.485, 153.500 363.485 C 82.550 363.485, 53.672 363.604, 89.328 363.750 M 396.750 363.748 C 405.688 363.914, 420.313 363.914, 429.250 363.748 C 438.188 363.582, 430.875 363.447, 413 363.447 C 395.125 363.447, 387.813 363.582, 396.750 363.748 M 838.250 363.750 C 863.413 363.898, 904.588 363.898, 929.750 363.750 C 954.913 363.601, 934.325 363.479, 884 363.479 C 833.675 363.479, 813.088 363.601, 838.250 363.750 M 121.012 572.750 C 121.022 751.140, 121.229 781.271, 122.475 785.955 C 127.255 803.914, 140.958 818.450, 158 823.639 C 161.025 824.560, 163.927 825.693, 164.450 826.157 C 165.718 827.282, 231.544 827.245, 233.764 826.118 C 234.719 825.633, 237.750 824.727, 240.500 824.104 C 257.130 820.337, 271.971 807.112, 278.252 790.461 L 280.500 784.500 280.759 574.750 L 281.018 365 201.009 365 L 121 365 121.012 572.750" stroke="none" fill="#477b9e" fill-rule="evenodd"/><path d="M 116.813 241.749 C 125.785 241.914, 140.185 241.914, 148.813 241.748 C 157.441 241.581, 150.100 241.446, 132.500 241.446 C 114.900 241.447, 107.841 241.583, 116.813 241.749 M 414 241.750 C 413.999 242.431, 452.558 242.420, 501.500 241.724 C 511.950 241.576, 496.538 241.352, 467.250 241.227 C 437.962 241.102, 414 241.338, 414 241.750 M 615.250 303.735 C 617.862 303.941, 622.138 303.941, 624.750 303.735 C 627.362 303.529, 625.225 303.360, 620 303.360 C 614.775 303.360, 612.638 303.529, 615.250 303.735 M 660.395 306.830 C 660.852 307.570, 660.405 308, 659.180 308 C 656.435 308, 633.936 313.727, 625 316.700 C 599.007 325.348, 570.698 340.125, 548.057 356.862 C 534.649 366.774, 513 386.253, 513 388.406 C 513 388.677, 516.277 387.234, 520.282 385.199 C 526.696 381.941, 532.372 379.366, 541 375.800 C 542.375 375.232, 544.281 374.369, 545.236 373.883 C 546.191 373.397, 547.852 373, 548.927 373 C 550.002 373, 551.160 372.550, 551.500 372 C 551.840 371.450, 553.190 371, 554.500 371 C 555.810 371, 557.129 370.600, 557.432 370.110 C 557.734 369.621, 559.448 368.975, 561.241 368.673 C 563.033 368.372, 567.875 367.414, 572 366.544 C 588.474 363.068, 593.962 362.622, 619.500 362.680 C 647.937 362.745, 657.207 363.767, 676 368.908 C 677.925 369.434, 680.625 370.158, 682 370.516 C 683.375 370.874, 685.400 371.534, 686.500 371.983 C 687.600 372.431, 690.075 373.339, 692 374 C 695.798 375.304, 696.747 375.679, 705 379.138 C 722.015 386.270, 743.398 399.335, 758.080 411.571 C 769.547 421.129, 787.643 440.435, 795.569 451.570 C 801.597 460.037, 813 478.265, 813 479.433 C 813 479.637, 814.769 483.560, 816.932 488.152 C 826.175 507.776, 831.885 527.194, 835.561 551.500 C 836.856 560.066, 837.183 594.632, 836.048 603 C 831.195 638.767, 820.518 668.703, 802.564 696.877 C 774.583 740.783, 728.641 775.062, 679.500 788.699 C 656.289 795.140, 641.232 797.311, 619.500 797.352 C 604.207 797.380, 580.035 794.996, 575.500 793.011 C 574.400 792.530, 572.150 791.922, 570.500 791.660 C 564.288 790.673, 549.442 786.507, 543.500 784.083 C 538.031 781.852, 535.913 780.920, 528.762 777.597 C 524.506 775.618, 520.803 774, 520.532 774 C 520.261 774, 517.529 772.394, 514.461 770.432 L 508.883 766.863 515.691 773.770 C 529.366 787.640, 545.243 800.593, 561.750 811.346 C 576.354 820.860, 588.883 827.331, 612.617 837.617 C 616.576 839.333, 635.484 845.255, 644 847.447 C 647.575 848.367, 652.127 849.543, 654.116 850.060 C 656.105 850.577, 658.670 851, 659.816 851 C 660.963 851, 662.266 851.653, 662.712 852.450 C 663.409 853.696, 665.145 853.563, 675.012 851.510 C 681.330 850.195, 688.188 848.643, 690.250 848.060 C 692.313 847.477, 695.462 846.610, 697.250 846.132 C 706.235 843.733, 721.362 837.887, 722.456 836.391 C 723.142 835.453, 724.222 835.019, 724.870 835.420 C 726.125 836.195, 739 830.376, 739 829.033 C 739 828.286, 742.248 826.853, 744.500 826.609 C 745.050 826.549, 745.725 826.250, 746 825.945 C 746.275 825.640, 750.325 823.206, 755 820.536 C 825.016 780.555, 875.340 711.600, 890.405 635 C 894.831 612.496, 895.455 605.547, 895.432 579 C 895.406 549.127, 894.346 539.807, 887.924 513 C 886.804 508.325, 885.460 503.150, 884.937 501.500 C 880.758 488.313, 879.287 484.178, 875.346 474.537 C 860.009 437.019, 833.543 399.336, 804.864 374.183 L 794.963 365.500 885.232 364.992 L 975.500 364.484 883.340 364.242 L 791.180 364 786.045 359.941 C 767.614 345.373, 736.344 328.513, 712 320.019 C 710.075 319.348, 707.600 318.443, 706.500 318.008 C 699.783 315.354, 687.237 312.053, 672.500 309.061 C 667.550 308.056, 662.639 306.880, 661.586 306.447 C 660.236 305.892, 659.885 306.005, 660.395 306.830 M 48.819 364.749 C 62.195 364.907, 83.795 364.907, 96.819 364.749 C 109.844 364.591, 98.900 364.462, 72.500 364.462 C 46.100 364.463, 35.444 364.592, 48.819 364.749 M 282.815 567.272 C 283.050 718.844, 282.832 772.605, 281.957 778.780 C 279.967 792.826, 275.595 801.673, 265.950 811.170 C 259.150 817.865, 248.297 824.191, 241.159 825.618 C 232.031 827.444, 242.177 828, 284.599 828 C 321.932 828, 331.824 827.727, 334.349 826.626 C 336.082 825.870, 339.525 824.694, 342 824.012 C 359.788 819.114, 374.914 803.224, 379.227 784.904 C 380.100 781.199, 380.500 770.619, 380.500 751.251 C 380.500 735.713, 380.791 723.001, 381.147 723.001 C 381.503 723, 384.715 727.388, 388.286 732.750 C 407.556 761.689, 432.651 787.356, 461 807.121 C 468.630 812.441, 485.683 823, 486.645 823 C 487.011 823, 488.704 824.046, 490.406 825.324 C 492.108 826.602, 494.400 827.979, 495.500 828.385 L 497.500 829.124 495.500 827.276 C 494.400 826.259, 489.997 823.511, 485.715 821.169 C 476.968 816.384, 464.060 808.092, 456.395 802.335 C 453.587 800.226, 448.637 796.498, 445.395 794.050 C 436.043 786.990, 410.168 760.512, 401.139 748.762 C 365.118 701.886, 345.962 650.475, 343.191 593.237 C 340.285 533.229, 355.477 477.552, 388.141 428.500 C 401.555 408.357, 411.737 396.272, 430.492 378.239 L 445.324 363.978 363.912 364.011 L 282.500 364.045 282.815 567.272 M 380.775 399.750 C 380.624 418.863, 380.772 434.862, 381.104 435.304 C 381.437 435.747, 383.620 433.059, 385.957 429.333 C 395.021 414.876, 409.630 397.207, 425.711 381.250 L 442.088 365 411.569 365 L 381.051 365 380.775 399.750 M 464.481 426.250 L 454.500 436.500 464.750 426.519 C 474.270 417.248, 475.455 416, 474.731 416 C 474.583 416, 469.971 420.613, 464.481 426.250" stroke="none" fill="#365e7d" fill-rule="evenodd"/><path d="M 241 244 C 241 244.550, 241.755 245, 242.677 245 C 243.599 245, 247.989 246.760, 252.432 248.910 C 265.035 255.010, 275.272 266.725, 280.390 280.903 C 282.254 286.068, 282.438 289.417, 282.770 324.250 L 283.130 362 331.629 362 L 380.128 362 379.798 323.750 L 379.467 285.500 376.775 278.740 C 373.372 270.198, 369.722 264.903, 362.601 258.177 C 356.793 252.691, 344.240 246, 339.757 246 C 338.451 246, 336.509 245.339, 335.441 244.532 C 333.801 243.291, 326.333 243.059, 287.250 243.032 C 257.062 243.011, 241 243.347, 241 244" stroke="none" fill="#8bcaff" fill-rule="evenodd"/><path d="M 75.783 244.151 C 75.572 244.784, 72.826 245.516, 69.681 245.777 C 66.536 246.037, 63.720 246.644, 63.423 247.125 C 63.125 247.606, 62.060 248, 61.055 248 C 56.935 248, 44.323 256.281, 39.160 262.377 C 26.819 276.947, 25 285.479, 25 328.810 L 25 360 71.913 360 L 118.825 360 119.270 324.750 C 119.751 286.652, 120.106 283.686, 125.517 272.475 C 128.918 265.430, 140.315 253.450, 147 249.894 L 151.500 247.500 123.500 247 C 103.119 246.636, 95.500 246.183, 95.500 245.333 C 95.500 244.692, 95.090 243.792, 94.590 243.333 C 94.061 242.849, 93.981 243.024, 94.399 243.750 C 95.280 245.281, 90.444 245.528, 89.500 244 C 88.622 242.580, 76.261 242.716, 75.783 244.151 M 337 243.881 C 337 244.366, 339.137 245.300, 341.750 245.957 C 354.685 249.211, 369.100 261.084, 374.892 273.254 C 380.460 284.955, 380.995 289.746, 380.943 327.500 L 380.897 361.500 413.199 361.522 L 445.500 361.543 413.700 361.258 C 396.210 361.100, 382.104 360.641, 382.354 360.236 C 382.603 359.831, 397.270 359.625, 414.946 359.777 C 438.475 359.980, 446.898 360.356, 446.388 361.182 C 445.959 361.876, 446.141 362.031, 446.862 361.585 C 447.506 361.187, 447.755 360.413, 447.416 359.864 C 447.077 359.316, 447.632 358.236, 448.650 357.465 C 450.910 355.753, 452.373 355.588, 451.405 357.155 C 450.959 357.876, 451.131 358.037, 451.862 357.585 C 452.506 357.187, 452.796 356.479, 452.507 356.011 C 451.910 355.046, 456.681 350.992, 458.385 351.015 C 458.998 351.024, 458.825 351.467, 458 352 C 456.861 352.736, 456.823 352.973, 457.844 352.985 C 458.583 352.993, 459.423 352.100, 459.710 351 C 459.998 349.900, 460.657 349, 461.176 349 C 461.694 349, 461.811 349.497, 461.436 350.104 C 461.061 350.711, 461.957 350.419, 463.427 349.456 C 464.920 348.478, 465.871 347.107, 465.582 346.352 C 465.285 345.580, 465.718 345, 466.590 345 C 467.490 345, 467.825 345.474, 467.405 346.155 C 466.972 346.854, 467.129 347.038, 467.802 346.622 C 468.413 346.245, 468.659 345.275, 468.349 344.468 C 467.993 343.539, 468.398 343, 469.452 343 C 470.457 343, 470.835 343.458, 470.405 344.155 C 469.972 344.854, 470.129 345.038, 470.802 344.622 C 471.413 344.245, 471.659 343.275, 471.349 342.468 C 470.993 341.539, 471.398 341, 472.452 341 C 473.457 341, 473.835 341.458, 473.405 342.155 C 472.959 342.876, 473.131 343.037, 473.862 342.585 C 474.506 342.187, 474.788 341.465, 474.488 340.981 C 473.736 339.764, 477.311 338, 480.528 338 C 482.346 338, 483.353 337.368, 483.710 336 C 483.998 334.900, 484.657 334, 485.176 334 C 485.694 334, 485.797 334.520, 485.405 335.155 C 484.962 335.870, 485.130 336.038, 485.845 335.595 C 486.480 335.203, 487 334.234, 487 333.441 C 487 332.648, 487.702 332, 488.559 332 C 489.483 332, 489.827 332.470, 489.405 333.155 C 488.972 333.854, 489.129 334.038, 489.802 333.622 C 490.413 333.245, 490.659 332.275, 490.349 331.468 C 489.961 330.456, 490.459 330, 491.952 330 C 493.335 330, 493.860 330.418, 493.405 331.155 C 492.972 331.854, 493.129 332.038, 493.802 331.622 C 494.413 331.245, 494.633 330.208, 494.292 329.318 C 493.776 327.973, 494.162 327.815, 496.586 328.381 C 498.453 328.816, 499.012 328.735, 498.143 328.155 C 496.166 326.836, 498.322 325.824, 501.704 326.485 C 503.761 326.886, 503.991 326.809, 502.573 326.190 C 500.721 325.382, 500.718 325.322, 502.493 324.641 C 503.509 324.251, 504.605 324.362, 504.930 324.886 C 505.277 325.449, 507.130 325.096, 509.439 324.028 C 512.673 322.533, 513.021 322.116, 511.429 321.644 C 510.355 321.325, 510.744 321.221, 512.308 321.408 C 514.363 321.655, 514.975 321.377, 514.589 320.372 C 514.250 319.487, 514.783 319, 516.090 319 C 517.206 319, 517.843 319.445, 517.507 319.989 C 517.162 320.546, 517.545 320.728, 518.385 320.406 C 519.204 320.092, 519.629 319.197, 519.330 318.417 C 518.964 317.463, 519.494 317, 520.952 317 C 522.143 317, 522.843 317.445, 522.507 317.989 C 522.162 318.546, 522.545 318.728, 523.385 318.406 C 524.204 318.092, 524.629 317.197, 524.330 316.417 C 523.967 315.471, 524.486 315, 525.893 315 C 527.052 315, 528 315.436, 528 315.969 C 528 316.501, 528.713 316.664, 529.584 316.329 C 530.725 315.892, 530.835 315.516, 529.977 314.986 C 527.948 313.732, 530.627 312.856, 534.733 313.430 C 537.420 313.806, 537.783 313.732, 536 313.172 L 533.500 312.387 535.924 311.742 C 537.256 311.387, 538.831 311.398, 539.424 311.767 C 540.811 312.632, 545.221 312.096, 546.450 310.914 C 546.972 310.411, 548.772 309.941, 550.450 309.868 L 553.500 309.737 550 308.953 L 546.500 308.169 550.500 308.181 C 557.401 308.203, 557.728 308.128, 556 306.926 C 554.879 306.146, 555.575 305.967, 558.750 306.217 C 561.705 306.451, 563 306.164, 563 305.276 C 563 304.433, 564.506 304, 567.441 304 C 569.884 304, 572.160 303.550, 572.500 303 C 572.840 302.450, 575.593 302, 578.618 302 C 581.643 302, 583.890 302.369, 583.612 302.819 C 583.333 303.270, 584.544 303.415, 586.303 303.142 C 589.371 302.666, 589.399 302.620, 587 302.016 L 584.500 301.387 587 300.707 C 590.405 299.781, 603.232 299.816, 602.654 300.750 C 602.399 301.162, 609.797 301.500, 619.094 301.500 C 628.392 301.500, 635.999 301.107, 635.999 300.628 C 636 299.211, 663.826 301.540, 665.450 303.092 C 666.039 303.655, 665.850 304.006, 664.950 304.015 C 663.717 304.028, 663.724 304.176, 665 305 C 666.958 306.266, 668.282 306.266, 667.500 305 C 667.126 304.395, 668.509 304, 671 304 C 673.767 304, 674.893 304.365, 674.431 305.112 C 673.743 306.224, 675.617 307.969, 677.500 307.969 C 678.050 307.969, 677.825 307.533, 677 307 C 675.917 306.300, 676.752 306.054, 680 306.115 C 683.269 306.176, 683.855 306.380, 682.145 306.861 C 679.960 307.474, 680.069 307.624, 683.645 308.924 C 685.765 309.695, 689.975 310.312, 693 310.294 C 697.406 310.269, 697.903 310.412, 695.500 311.013 C 692.635 311.730, 692.613 311.775, 695 312.027 C 696.375 312.172, 699.075 312.246, 701 312.191 C 704.073 312.104, 704.195 312.186, 702 312.861 L 699.500 313.631 702.215 314.170 C 703.708 314.467, 705.067 314.299, 705.234 313.797 C 705.401 313.296, 706.355 313.199, 707.353 313.582 C 708.596 314.059, 708.800 314.506, 707.999 315 C 707.235 315.472, 707.553 315.911, 708.917 316.268 C 710.064 316.568, 710.751 316.405, 710.442 315.907 C 710.134 315.408, 710.857 315, 712.048 315 C 713.506 315, 714.036 315.463, 713.670 316.417 C 713.371 317.197, 713.796 318.092, 714.615 318.406 C 715.455 318.728, 715.838 318.546, 715.493 317.989 C 715.157 317.445, 715.857 317, 717.048 317 C 718.506 317, 719.036 317.463, 718.670 318.417 C 718.371 319.197, 718.810 320.097, 719.645 320.417 C 721.960 321.306, 722.678 321.085, 721 320 C 719.784 319.214, 719.919 319.028, 721.719 319.015 C 723.220 319.005, 723.762 319.456, 723.396 320.410 C 722.758 322.074, 726.100 323.398, 730.500 323.223 C 732.842 323.130, 733.078 323.273, 731.577 323.876 C 729.933 324.536, 730.223 324.876, 733.577 326.216 C 736.138 327.241, 737.722 327.431, 738.138 326.764 C 738.489 326.203, 739.325 326.083, 739.995 326.497 C 740.933 327.076, 740.939 327.420, 740.023 327.986 C 739.171 328.512, 739.298 328.900, 740.468 329.349 C 741.424 329.716, 741.850 329.566, 741.493 328.989 C 741.157 328.445, 741.632 328, 742.548 328 C 743.575 328, 744.005 328.544, 743.670 329.417 C 743.371 330.197, 743.796 331.092, 744.615 331.406 C 745.455 331.728, 745.838 331.546, 745.493 330.989 C 745.157 330.445, 745.632 330, 746.548 330 C 747.575 330, 748.005 330.544, 747.670 331.417 C 747.371 332.197, 747.796 333.092, 748.615 333.406 C 749.455 333.728, 749.838 333.546, 749.493 332.989 C 749.157 332.445, 749.610 332, 750.500 332 C 751.466 332, 751.831 332.464, 751.406 333.152 C 750.402 334.777, 753.663 336.882, 756.296 336.307 C 757.742 335.992, 758.077 336.130, 757.270 336.710 C 756.382 337.348, 756.867 338.081, 759.020 339.353 C 760.840 340.428, 762 340.677, 762 339.993 C 762 339.353, 763.717 339.837, 766 341.120 C 768.200 342.357, 770 343.791, 770 344.307 C 770 344.823, 769.314 344.676, 768.476 343.980 C 767.638 343.284, 766.751 342.915, 766.507 343.160 C 766.262 343.405, 767.464 344.434, 769.179 345.447 C 770.893 346.459, 771.978 346.773, 771.589 346.144 C 771.200 345.515, 771.359 345, 771.941 345 C 772.523 345, 773 345.450, 773 346 C 773 346.550, 773.788 347.036, 774.750 347.079 C 775.806 347.127, 776.002 347.359, 775.244 347.664 C 774.553 347.943, 774.230 348.563, 774.526 349.042 C 774.822 349.521, 775.703 349.668, 776.483 349.368 C 777.817 348.856, 781.541 351.190, 788.500 356.899 C 790.248 358.333, 790.711 359.067, 789.609 358.657 C 788.151 358.115, 787.959 358.246, 788.773 359.227 C 789.618 360.244, 808.435 360.448, 882.458 360.240 L 975.086 359.979 974.793 320.240 L 974.500 280.500 971.829 275 C 968.356 267.846, 963.355 261, 961.602 261 C 960.840 261, 959.952 259.988, 959.628 258.750 C 958.660 255.048, 942.176 245, 937.070 245 C 935.996 245, 934.840 244.550, 934.500 244 C 933.542 242.450, 830.755 242.645, 829.200 244.200 C 828.267 245.133, 828 245.096, 828 244.033 C 828 243.282, 827.663 243.004, 827.250 243.417 C 826.837 243.829, 826.500 244.692, 826.500 245.333 C 826.500 246.218, 776.548 246.500, 619.500 246.500 C 457.709 246.500, 412.552 246.235, 412.738 245.286 C 412.876 244.584, 412.348 244.313, 411.488 244.643 C 410.670 244.957, 410 244.716, 410 244.107 C 410 243.318, 399.518 243, 373.500 243 C 353.111 243, 337 243.389, 337 243.881 M 282.446 326.500 C 282.447 344.100, 282.583 351.159, 282.749 342.187 C 282.914 333.215, 282.914 318.815, 282.748 310.187 C 282.581 301.559, 282.446 308.900, 282.446 326.500 M 611.250 299.743 C 615.513 299.931, 622.487 299.931, 626.750 299.743 C 631.013 299.556, 627.525 299.402, 619 299.402 C 610.475 299.402, 606.987 299.556, 611.250 299.743 M 48.819 361.749 C 62.195 361.907, 83.795 361.907, 96.819 361.749 C 109.844 361.591, 98.900 361.462, 72.500 361.462 C 46.100 361.463, 35.444 361.592, 48.819 361.749 M 837.826 361.750 C 863.305 361.898, 904.705 361.898, 929.826 361.750 C 954.947 361.601, 934.100 361.479, 883.500 361.479 C 832.900 361.479, 812.347 361.601, 837.826 361.750" stroke="none" fill="#b5dcff" fill-rule="evenodd"/><path d="M 588.500 305.113 C 585.200 305.622, 579.350 306.531, 575.500 307.132 C 562.188 309.212, 533.725 316.382, 531.550 318.204 C 531.028 318.642, 529.784 319, 528.786 319 C 527.789 319, 526.191 319.414, 525.236 319.920 C 524.281 320.426, 520.800 321.846, 517.500 323.074 C 500.135 329.541, 472.892 344.682, 456.354 357.058 C 451.252 360.876, 446.678 364, 446.189 364 C 444.506 364, 415.642 392.522, 407.228 402.500 C 389.476 423.553, 370.883 454.647, 361.485 479 C 347.383 515.545, 341.275 553.684, 343.191 593.237 C 345.962 650.475, 365.118 701.886, 401.139 748.762 C 410.168 760.512, 436.043 786.990, 445.395 794.050 C 448.637 796.498, 453.587 800.226, 456.395 802.335 C 464.060 808.092, 476.968 816.384, 485.715 821.169 C 489.997 823.511, 494.400 826.263, 495.500 827.285 C 498.454 830.028, 508.995 834.975, 509.030 833.635 C 509.047 833.011, 509.483 833.222, 509.999 834.105 C 510.845 835.552, 520.923 839.679, 531.500 842.910 C 533.700 843.582, 536.400 844.501, 537.500 844.952 C 538.600 845.403, 541.525 846.320, 544 846.990 C 546.475 847.660, 549.564 848.625, 550.865 849.135 C 552.166 849.645, 554.110 849.782, 555.187 849.441 C 556.279 849.094, 557.885 849.444, 558.822 850.233 C 560.593 851.724, 575.768 854.565, 576.745 853.588 C 577.059 853.274, 577.989 853.576, 578.811 854.259 C 579.945 855.200, 589.640 855.500, 618.903 855.500 C 656.206 855.500, 663 855.107, 663 852.950 C 663 851.788, 662.618 851.654, 654.500 849.982 C 644.223 847.864, 619.322 840.499, 612.500 837.559 C 582.965 824.830, 566.590 815.679, 546.500 800.676 C 536.560 793.253, 517.642 776.628, 515.616 773.537 C 514.786 772.270, 508.570 767.508, 501.803 762.954 C 485.454 751.952, 478.029 745.932, 465.741 733.710 C 444.768 712.852, 427.954 687.954, 417.990 663 C 416.782 659.975, 415.413 656.600, 414.948 655.500 C 414.483 654.400, 413.121 650.350, 411.920 646.500 C 410.720 642.650, 409.402 638.600, 408.991 637.500 C 407.043 632.278, 404.995 621.183, 402.810 604 C 401.364 592.635, 401.356 565.657, 402.795 554.500 C 404.573 540.713, 405.846 532.868, 406.973 528.750 C 407.538 526.688, 408.494 523.087, 409.097 520.750 C 409.701 518.413, 410.601 515.719, 411.097 514.764 C 411.594 513.809, 412 512.340, 412 511.500 C 412 510.660, 412.397 509.191, 412.883 508.236 C 413.369 507.281, 414.217 505.375, 414.767 504 C 421.349 487.543, 422.945 484.146, 431.609 468.169 C 436 460.071, 452.468 438.534, 461.478 429.107 C 472.339 417.743, 486.016 406.369, 500.447 396.701 C 507.050 392.277, 514.463 386.448, 516.920 383.748 C 522.336 377.796, 536.619 365.451, 547.500 357.315 C 570.036 340.464, 598.661 325.463, 625 316.700 C 634.150 313.656, 656.461 308, 659.321 308 C 663.408 308, 659.475 306.181, 654 305.540 C 644.735 304.454, 594.874 304.129, 588.500 305.113" stroke="none" fill="#294b64" fill-rule="evenodd"/><path d="M 174.250 243.747 C 180.712 243.921, 191.287 243.921, 197.750 243.747 C 204.213 243.573, 198.925 243.430, 186 243.430 C 173.075 243.430, 167.787 243.573, 174.250 243.747 M 596.250 243.750 C 638.463 243.894, 707.538 243.894, 749.750 243.750 C 791.963 243.606, 757.425 243.487, 673 243.487 C 588.575 243.487, 554.038 243.606, 596.250 243.750 M 306.820 362.749 C 320.745 362.906, 343.245 362.906, 356.820 362.749 C 370.394 362.592, 359 362.464, 331.500 362.464 C 304 362.464, 292.894 362.592, 306.820 362.749 M 598.777 363.557 C 598.470 363.863, 594.683 364.531, 590.360 365.041 C 586.037 365.551, 580.475 366.399, 578 366.926 C 575.525 367.453, 571.250 368.366, 568.500 368.955 C 560.550 370.657, 549.421 374.076, 543 376.788 C 541.625 377.369, 538.475 378.662, 536 379.660 C 511.824 389.416, 486.191 406.666, 466.478 426.445 C 439.130 453.884, 419.343 488.111, 410.370 523.500 C 406.071 540.452, 405.282 545.425, 403.841 564.651 C 402.093 587.976, 404.235 611.292, 410.352 635.529 C 411.997 642.048, 414.531 650.151, 416.050 653.750 C 417.063 656.148, 417.776 657.882, 420.672 664.979 C 430.521 689.114, 446.976 712.881, 468.164 733.570 C 489.035 753.950, 511.354 768.975, 535.750 779.069 C 536.987 779.581, 539.013 780.428, 540.250 780.952 C 542.887 782.067, 557.158 786.746, 561.500 787.919 C 572.716 790.949, 574.320 791.296, 590.500 794.188 C 599.847 795.858, 639.218 795.820, 648.500 794.131 C 652.350 793.431, 659.100 792.019, 663.500 790.993 C 669.702 789.547, 670.365 789.249, 666.451 789.666 C 661.369 790.208, 654.671 788.689, 640.500 783.779 C 596.271 768.458, 556.438 737.045, 530.444 696.988 C 523.852 686.831, 510.288 660.379, 511.202 659.464 C 511.454 659.213, 514.549 662.268, 518.080 666.254 C 536.355 686.881, 554.499 698.878, 579 706.537 C 596.508 712.010, 599.982 712.507, 620 712.409 C 636.649 712.327, 639.601 712.044, 649.500 709.576 C 661.993 706.461, 682.163 697.266, 693.500 689.517 C 722.599 669.627, 742.686 639.290, 749.755 604.558 C 752.073 593.168, 752.050 565.444, 749.713 554.093 C 740.995 511.747, 713.638 476.949, 674.723 458.708 C 671.545 457.219, 668.656 456, 668.301 456 C 667.947 456, 666.947 455.398, 666.079 454.663 C 663.839 452.766, 652.058 449.355, 641.500 447.547 C 624.870 444.700, 600.009 445.823, 584.500 450.123 C 559.285 457.114, 534.916 472.506, 518.635 491.726 C 514.730 496.336, 511.387 499.661, 511.205 499.115 C 510.574 497.222, 522.945 473.434, 530.768 461.500 C 539.793 447.731, 546.128 439.762, 556.892 428.638 C 579.997 404.763, 611.421 384.706, 641.500 374.635 C 654.033 370.439, 655.532 370, 657.321 370 C 658.244 370, 659 369.508, 659 368.906 C 659 368.183, 660.781 367.999, 664.250 368.363 L 669.500 368.913 665 367.951 C 646.405 363.977, 637.062 363, 617.648 363 C 607.575 363, 599.083 363.251, 598.777 363.557 M 751.500 408.481 C 753.150 409.959, 757.875 414.100, 762 417.683 L 769.500 424.197 763.476 418.348 C 760.163 415.132, 755.438 410.991, 752.976 409.146 C 750.250 407.104, 749.673 406.843, 751.500 408.481 M 781.909 437.750 C 785.419 441.738, 788.495 445, 788.745 445 C 789.395 445, 779.393 433.558, 777.288 431.894 C 776.319 431.127, 778.398 433.762, 781.909 437.750 M 600.665 448.030 C 585.561 450.410, 573.468 454.280, 560 461.043 C 525.172 478.533, 499.044 511.415, 490.110 549 C 487.706 559.114, 487.001 566.053, 487.018 579.434 C 487.059 610.068, 495.085 634.333, 513.127 658.362 C 541.260 695.831, 585.889 715.662, 631.746 711.071 C 642.490 709.995, 661.610 705.766, 663.301 704.091 C 663.741 703.655, 660.210 701.431, 655.452 699.148 C 641.311 692.362, 630.473 684.642, 618.964 673.155 C 601.146 655.371, 589.335 634.915, 583.654 612 C 580.912 600.939, 578 584.019, 578 579.146 C 577.999 574.548, 580.622 559.565, 583.627 547 C 592.330 510.605, 620.047 476.501, 654.212 460.149 C 659.554 457.592, 663.941 455.262, 663.962 454.972 C 664.012 454.275, 653.179 451.050, 645 449.327 C 636.918 447.625, 608.511 446.794, 600.665 448.030 M 801.090 463.250 C 803.363 466.962, 805.412 470, 805.642 470 C 806.331 470, 801.671 462.178, 799.229 459.236 C 797.979 457.731, 798.817 459.538, 801.090 463.250 M 604.637 541.038 C 596.670 544.064, 592.326 547.510, 584.891 556.704 C 581.627 560.740, 579.497 570.066, 579.570 580 C 579.669 593.321, 582.345 600.254, 590.560 608.469 C 594.068 611.977, 601.611 617, 603.371 617 C 604.202 617, 605.129 617.400, 605.432 617.890 C 605.734 618.379, 607.561 619.054, 609.491 619.390 C 611.421 619.725, 614.638 620.282, 616.641 620.626 C 628.378 622.643, 647.417 612.496, 654.468 600.465 C 662.069 587.495, 661.921 570.317, 654.100 557.662 C 650.934 552.540, 642.695 545.289, 637.310 542.886 C 634.665 541.706, 631.719 540.348, 630.764 539.870 C 627.529 538.249, 609.904 539.037, 604.637 541.038 M 835.385 579 C 835.385 585.875, 835.545 588.688, 835.740 585.250 C 835.936 581.813, 835.936 576.188, 835.740 572.750 C 835.545 569.313, 835.385 572.125, 835.385 579 M 832.615 609.615 C 832.249 612.732, 832.149 615.482, 832.392 615.726 C 832.636 615.969, 833.152 613.635, 833.538 610.538 C 833.925 607.442, 834.026 604.692, 833.762 604.428 C 833.498 604.164, 832.982 606.498, 832.615 609.615 M 823.671 647.766 C 822.800 650.430, 821.771 653.485, 821.384 654.555 C 820.998 655.625, 820.990 656.226, 821.367 655.890 C 822.346 655.020, 826.184 643.851, 825.678 643.344 C 825.446 643.112, 824.543 645.102, 823.671 647.766 M 797.263 701.012 C 793.902 705.968, 791.575 709.762, 792.092 709.443 C 793.459 708.598, 804.548 692, 803.745 692 C 803.540 692, 800.623 696.055, 797.263 701.012 M 770.982 732.750 L 760.500 743.500 771.250 733.018 C 777.163 727.253, 782 722.415, 782 722.268 C 782 721.546, 780.718 722.765, 770.982 732.750 M 749 751.622 C 742.586 756.639, 741.661 757.906, 747.295 753.957 C 751.499 751.010, 754.962 747.901, 753.872 748.051 C 753.668 748.080, 751.475 749.687, 749 751.622" stroke="none" fill="#64a6f4" fill-rule="evenodd"/><path d="M 48.750 362.749 C 62.088 362.907, 83.913 362.907, 97.250 362.749 C 110.588 362.592, 99.675 362.463, 73 362.463 C 46.325 362.463, 35.413 362.592, 48.750 362.749 M 397.250 362.748 C 406.462 362.913, 421.538 362.913, 430.750 362.748 C 439.962 362.583, 432.425 362.448, 414 362.448 C 395.575 362.448, 388.038 362.583, 397.250 362.748 M 837.826 362.750 C 863.305 362.898, 904.705 362.898, 929.826 362.750 C 954.947 362.601, 934.100 362.479, 883.500 362.479 C 832.900 362.479, 812.347 362.601, 837.826 362.750 M 659 369 C 659 369.550, 658.244 370, 657.321 370 C 655.532 370, 654.033 370.439, 641.500 374.635 C 625.338 380.046, 609.220 388.068, 593.226 398.660 C 567.397 415.766, 547.816 435.465, 530.762 461.500 C 522.940 473.442, 510.575 497.225, 511.205 499.115 C 511.387 499.661, 514.730 496.336, 518.635 491.726 C 534.916 472.506, 559.285 457.114, 584.500 450.123 C 600.009 445.823, 624.870 444.700, 641.500 447.547 C 652.058 449.355, 663.839 452.766, 666.079 454.663 C 666.947 455.398, 667.947 456, 668.301 456 C 668.656 456, 671.545 457.219, 674.723 458.708 C 713.638 476.949, 740.995 511.747, 749.713 554.093 C 752.050 565.444, 752.073 593.168, 749.755 604.558 C 742.686 639.290, 722.599 669.627, 693.500 689.517 C 682.163 697.266, 661.993 706.461, 649.500 709.576 C 639.601 712.044, 636.649 712.327, 620 712.409 C 599.982 712.507, 596.508 712.010, 579 706.537 C 554.499 698.878, 536.355 686.881, 518.080 666.254 C 514.549 662.268, 511.454 659.213, 511.202 659.464 C 510.951 659.716, 513.655 665.916, 517.212 673.243 C 531.181 702.016, 550.104 726.300, 573.500 745.478 C 598.769 766.192, 622.976 778.997, 653.922 788.023 C 661.351 790.189, 668.813 790.181, 674.403 788 C 675.556 787.550, 679.200 786.411, 682.500 785.469 C 727.762 772.556, 771.046 740.323, 798.793 698.868 C 814.506 675.393, 823.928 652.486, 831.028 620.500 C 835.991 598.138, 835.664 558.779, 830.316 535 C 829.512 531.425, 828.502 526.925, 828.071 525 C 824.540 509.230, 812.031 480.464, 801.546 464 C 780.458 430.887, 750.656 403.873, 716.066 386.519 C 701.823 379.373, 681.434 372.144, 666.500 368.944 C 661.107 367.789, 659 367.804, 659 369 M 604.637 541.038 C 596.670 544.064, 592.326 547.510, 584.891 556.704 C 581.627 560.740, 579.497 570.066, 579.570 580 C 579.669 593.321, 582.345 600.254, 590.560 608.469 C 594.068 611.977, 601.611 617, 603.371 617 C 604.202 617, 605.129 617.400, 605.432 617.890 C 605.734 618.379, 607.561 619.054, 609.491 619.390 C 611.421 619.725, 614.638 620.282, 616.641 620.626 C 628.378 622.643, 647.417 612.496, 654.468 600.465 C 662.069 587.495, 661.921 570.317, 654.100 557.662 C 650.934 552.540, 642.695 545.289, 637.310 542.886 C 634.665 541.706, 631.719 540.348, 630.764 539.870 C 627.529 538.249, 609.904 539.037, 604.637 541.038 M 632.565 550.027 C 622.137 559.889, 617.610 573.466, 620.357 586.639 C 621.176 590.565, 622.837 595.720, 624.048 598.094 C 626.226 602.362, 636.986 614, 638.756 614 C 641.007 614, 649.345 606.204, 652.547 601.106 C 663.004 584.455, 660.578 564.202, 646.477 550.435 C 643.416 547.446, 640.229 545, 639.395 545 C 638.562 545, 635.488 547.262, 632.565 550.027" stroke="none" fill="#7fb3fa" fill-rule="evenodd"/><path d="M 600.665 448.030 C 585.561 450.410, 573.468 454.280, 560 461.043 C 525.172 478.533, 499.044 511.415, 490.110 549 C 487.706 559.114, 487.001 566.053, 487.018 579.434 C 487.059 610.068, 495.085 634.333, 513.127 658.362 C 541.260 695.831, 585.889 715.662, 631.746 711.071 C 642.490 709.995, 661.610 705.766, 663.301 704.091 C 663.741 703.655, 660.210 701.431, 655.452 699.148 C 641.311 692.362, 630.473 684.642, 618.964 673.155 C 601.146 655.371, 589.335 634.915, 583.654 612 C 580.912 600.939, 578 584.019, 578 579.146 C 577.999 574.548, 580.622 559.565, 583.627 547 C 592.330 510.605, 620.047 476.501, 654.212 460.149 C 659.554 457.592, 663.941 455.262, 663.962 454.972 C 664.012 454.275, 653.179 451.050, 645 449.327 C 636.918 447.625, 608.511 446.794, 600.665 448.030 M 465.500 732 C 470.427 736.950, 474.683 741, 474.958 741 C 475.233 741, 471.427 736.950, 466.500 732 C 461.573 727.050, 457.317 723, 457.042 723 C 456.767 723, 460.573 727.050, 465.500 732" stroke="none" fill="#3d8bd8" fill-rule="evenodd"/><path d="M 174.250 243.747 C 180.712 243.921, 191.287 243.921, 197.750 243.747 C 204.213 243.573, 198.925 243.430, 186 243.430 C 173.075 243.430, 167.787 243.573, 174.250 243.747 M 596.250 243.750 C 638.463 243.894, 707.538 243.894, 749.750 243.750 C 791.963 243.606, 757.425 243.487, 673 243.487 C 588.575 243.487, 554.038 243.606, 596.250 243.750 M 306.820 362.749 C 320.745 362.906, 343.245 362.906, 356.820 362.749 C 370.394 362.592, 359 362.464, 331.500 362.464 C 304 362.464, 292.894 362.592, 306.820 362.749 M 598.777 363.557 C 598.470 363.863, 594.683 364.531, 590.360 365.041 C 586.037 365.551, 580.475 366.399, 578 366.926 C 575.525 367.453, 571.250 368.366, 568.500 368.955 C 560.550 370.657, 549.421 374.076, 543 376.788 C 541.625 377.369, 538.475 378.662, 536 379.660 C 511.824 389.416, 486.191 406.666, 466.478 426.445 C 439.130 453.884, 419.343 488.111, 410.370 523.500 C 406.071 540.452, 405.282 545.425, 403.841 564.651 C 402.093 587.976, 404.235 611.292, 410.352 635.529 C 411.997 642.048, 414.531 650.151, 416.050 653.750 C 417.063 656.148, 417.776 657.882, 420.672 664.979 C 430.521 689.114, 446.976 712.881, 468.164 733.570 C 489.035 753.950, 511.354 768.975, 535.750 779.069 C 536.987 779.581, 539.013 780.428, 540.250 780.952 C 542.887 782.067, 557.158 786.746, 561.500 787.919 C 572.716 790.949, 574.320 791.296, 590.500 794.188 C 599.847 795.858, 639.218 795.820, 648.500 794.131 C 652.350 793.431, 659.100 792.019, 663.500 790.993 C 669.702 789.547, 670.365 789.249, 666.451 789.666 C 661.369 790.208, 654.671 788.689, 640.500 783.779 C 596.271 768.458, 556.438 737.045, 530.444 696.988 C 523.852 686.831, 510.288 660.379, 511.202 659.464 C 511.454 659.213, 514.549 662.268, 518.080 666.254 C 536.355 686.881, 554.499 698.878, 579 706.537 C 596.508 712.010, 599.982 712.507, 620 712.409 C 636.649 712.327, 639.601 712.044, 649.500 709.576 C 661.993 706.461, 682.163 697.266, 693.500 689.517 C 722.599 669.627, 742.686 639.290, 749.755 604.558 C 752.073 593.168, 752.050 565.444, 749.713 554.093 C 740.995 511.747, 713.638 476.949, 674.723 458.708 C 671.545 457.219, 668.656 456, 668.301 456 C 667.947 456, 666.947 455.398, 666.079 454.663 C 663.839 452.766, 652.058 449.355, 641.500 447.547 C 624.870 444.700, 600.009 445.823, 584.500 450.123 C 559.285 457.114, 534.916 472.506, 518.635 491.726 C 514.730 496.336, 511.387 499.661, 511.205 499.115 C 510.574 497.222, 522.945 473.434, 530.768 461.500 C 539.793 447.731, 546.128 439.762, 556.892 428.638 C 579.997 404.763, 611.421 384.706, 641.500 374.635 C 654.033 370.439, 655.532 370, 657.321 370 C 658.244 370, 659 369.508, 659 368.906 C 659 368.183, 660.781 367.999, 664.250 368.363 L 669.500 368.913 665 367.951 C 646.405 363.977, 637.062 363, 617.648 363 C 607.575 363, 599.083 363.251, 598.777 363.557 M 751.500 408.481 C 753.150 409.959, 757.875 414.100, 762 417.683 L 769.500 424.197 763.476 418.348 C 760.163 415.132, 755.438 410.991, 752.976 409.146 C 750.250 407.104, 749.673 406.843, 751.500 408.481 M 781.909 437.750 C 785.419 441.738, 788.495 445, 788.745 445 C 789.395 445, 779.393 433.558, 777.288 431.894 C 776.319 431.127, 778.398 433.762, 781.909 437.750 M 600.665 448.030 C 585.561 450.410, 573.468 454.280, 560 461.043 C 525.172 478.533, 499.044 511.415, 490.110 549 C 487.706 559.114, 487.001 566.053, 487.018 579.434 C 487.059 610.068, 495.085 634.333, 513.127 658.362 C 541.260 695.831, 585.889 715.662, 631.746 711.071 C 642.490 709.995, 661.610 705.766, 663.301 704.091 C 663.741 703.655, 660.210 701.431, 655.452 699.148 C 641.311 692.362, 630.473 684.642, 618.964 673.155 C 601.146 655.371, 589.335 634.915, 583.654 612 C 580.912 600.939, 578 584.019, 578 579.146 C 577.999 574.548, 580.622 559.565, 583.627 547 C 592.330 510.605, 620.047 476.501, 654.212 460.149 C 659.554 457.592, 663.941 455.262, 663.962 454.972 C 664.012 454.275, 653.179 451.050, 645 449.327 C 636.918 447.625, 608.511 446.794, 600.665 448.030 M 801.090 463.250 C 803.363 466.962, 805.412 470, 805.642 470 C 806.331 470, 801.671 462.178, 799.229 459.236 C 797.979 457.731, 798.817 459.538, 801.090 463.250 M 604.637 541.038 C 596.670 544.064, 592.326 547.510, 584.891 556.704 C 581.627 560.740, 579.497 570.066, 579.570 580 C 579.669 593.321, 582.345 600.254, 590.560 608.469 C 594.068 611.977, 601.611 617, 603.371 617 C 604.202 617, 605.129 617.400, 605.432 617.890 C 605.734 618.379, 607.561 619.054, 609.491 619.390 C 611.421 619.725, 614.638 620.282, 616.641 620.626 C 628.378 622.643, 647.417 612.496, 654.468 600.465 C 662.069 587.495, 661.921 570.317, 654.100 557.662 C 650.934 552.540, 642.695 545.289, 637.310 542.886 C 634.665 541.706, 631.719 540.348, 630.764 539.870 C 627.529 538.249, 609.904 539.037, 604.637 541.038 M 835.385 579 C 835.385 585.875, 835.545 588.688, 835.740 585.250 C 835.936 581.813, 835.936 576.188, 835.740 572.750 C 835.545 569.313, 835.385 572.125, 835.385 579 M 832.615 609.615 C 832.249 612.732, 832.149 615.482, 832.392 615.726 C 832.636 615.969, 833.152 613.635, 833.538 610.538 C 833.925 607.442, 834.026 604.692, 833.762 604.428 C 833.498 604.164, 832.982 606.498, 832.615 609.615 M 823.671 647.766 C 822.800 650.430, 821.771 653.485, 821.384 654.555 C 820.998 655.625, 820.990 656.226, 821.367 655.890 C 822.346 655.020, 826.184 643.851, 825.678 643.344 C 825.446 643.112, 824.543 645.102, 823.671 647.766 M 797.263 701.012 C 793.902 705.968, 791.575 709.762, 792.092 709.443 C 793.459 708.598, 804.548 692, 803.745 692 C 803.540 692, 800.623 696.055, 797.263 701.012 M 770.982 732.750 L 760.500 743.500 771.250 733.018 C 777.163 727.253, 782 722.415, 782 722.268 C 782 721.546, 780.718 722.765, 770.982 732.750 M 749 751.622 C 742.586 756.639, 741.661 757.906, 747.295 753.957 C 751.499 751.010, 754.962 747.901, 753.872 748.051 C 753.668 748.080, 751.475 749.687, 749 751.622" stroke="none" fill="#64a6f4" fill-rule="evenodd"/><path d="M 412.852 244.252 C 413.266 244.666, 506.506 244.891, 620.052 244.752 L 826.500 244.500 619.300 244 C 505.340 243.725, 412.439 243.839, 412.852 244.252 M 112.186 244.748 C 121.363 244.913, 136.663 244.913, 146.186 244.749 C 155.709 244.584, 148.200 244.449, 129.500 244.449 C 110.800 244.449, 103.009 244.583, 112.186 244.748 M 380.450 326 C 380.450 344.975, 380.584 352.738, 380.748 343.250 C 380.913 333.762, 380.913 318.238, 380.748 308.750 C 380.584 299.262, 380.450 307.025, 380.450 326 M 607.768 301.725 C 609.565 301.947, 612.265 301.943, 613.768 301.715 C 615.271 301.486, 613.800 301.304, 610.500 301.310 C 607.200 301.315, 605.971 301.502, 607.768 301.725 M 625.768 301.725 C 627.565 301.947, 630.265 301.943, 631.768 301.715 C 633.271 301.486, 631.800 301.304, 628.500 301.310 C 625.200 301.315, 623.971 301.502, 625.768 301.725 M 592.250 302.728 C 594.313 302.944, 597.688 302.944, 599.750 302.728 C 601.813 302.513, 600.125 302.336, 596 302.336 C 591.875 302.336, 590.188 302.513, 592.250 302.728 M 639.250 302.728 C 641.313 302.944, 644.688 302.944, 646.750 302.728 C 648.813 302.513, 647.125 302.336, 643 302.336 C 638.875 302.336, 637.188 302.513, 639.250 302.728 M 160.824 362.750 C 183.003 362.900, 219.003 362.900, 240.824 362.750 C 262.646 362.599, 244.500 362.476, 200.500 362.477 C 156.500 362.477, 138.646 362.600, 160.824 362.750 M 632.565 550.027 C 622.137 559.889, 617.610 573.466, 620.357 586.639 C 621.176 590.565, 622.837 595.720, 624.048 598.094 C 626.226 602.362, 636.986 614, 638.756 614 C 640.808 614, 649.124 606.482, 651.959 602.064 C 661.777 586.764, 661.148 568.555, 650.312 554.341 C 647.511 550.667, 640.521 545, 638.790 545 C 638.290 545, 635.488 547.262, 632.565 550.027" stroke="none" fill="#9cc5fa" fill-rule="evenodd"/><path d="M 65.500 244 C 65.160 244.550, 63.980 245, 62.878 245 C 58.108 245, 47.522 251.478, 40 259 C 29.985 269.015, 25.817 277.273, 25.365 288 C 25.146 293.190, 25.318 294.730, 25.925 293 C 26.406 291.625, 26.845 289.182, 26.900 287.571 C 27.118 281.174, 32.356 270.410, 39.160 262.377 C 44.323 256.281, 56.935 248, 61.055 248 C 62.060 248, 63.160 247.550, 63.500 247 C 63.840 246.450, 65.779 245.994, 67.809 245.986 C 72.403 245.969, 76 245.046, 76 243.883 C 76 242.659, 66.262 242.767, 65.500 244 M 89.500 244 C 89.840 244.550, 91.126 245, 92.359 245 C 93.592 245, 95.043 245.443, 95.584 245.984 C 96.167 246.567, 107.740 247.075, 124.034 247.234 L 151.500 247.500 147 249.894 C 140.315 253.450, 128.918 265.430, 125.517 272.475 C 120.106 283.685, 119.751 286.653, 119.270 324.740 L 118.825 359.981 71.663 360.241 L 24.500 360.501 72.703 361 L 120.906 361.500 120.976 326.202 C 121.051 287.927, 121.473 283.953, 126.585 273.309 C 130.498 265.163, 142.400 253.550, 151.500 249 L 158.500 245.500 127.035 245.235 C 108.074 245.076, 95.179 244.579, 94.585 243.985 C 93.289 242.689, 88.698 242.702, 89.500 244 M 410 243.640 C 410 246.939, 409.771 246.936, 619.691 246.968 C 756.107 246.989, 826.091 246.662, 826.500 246 C 826.911 245.335, 757.677 245, 619.559 245 C 481.853 245, 412 244.663, 412 244 C 412 243.450, 411.550 243, 411 243 C 410.450 243, 410 243.288, 410 243.640 M 177.195 244.746 C 183.077 244.922, 192.977 244.923, 199.195 244.747 C 205.413 244.571, 200.600 244.427, 188.500 244.426 C 176.400 244.425, 171.313 244.569, 177.195 244.746 M 281.448 326.500 C 281.447 344.650, 281.582 352.216, 281.748 343.314 C 281.913 334.411, 281.914 319.561, 281.749 310.314 C 281.583 301.066, 281.448 308.350, 281.448 326.500 M 611.250 299.743 C 615.513 299.931, 622.487 299.931, 626.750 299.743 C 631.013 299.556, 627.525 299.402, 619 299.402 C 610.475 299.402, 606.987 299.556, 611.250 299.743 M 586.500 301 C 585.169 301.572, 587.405 301.883, 593.191 301.930 C 597.987 301.969, 602.159 301.552, 602.500 301 C 603.266 299.760, 589.386 299.760, 586.500 301 M 636 300.878 C 636 301.628, 639.128 302, 645.441 302 C 650.656 302, 655.159 302.448, 655.500 303 C 655.840 303.550, 658.431 304, 661.259 304 C 667.885 304, 666.350 302.377, 659 301.611 C 643.908 300.038, 636 299.786, 636 300.878 M 572.500 303 C 572.160 303.550, 569.884 304, 567.441 304 C 564.866 304, 563 304.464, 563 305.105 C 563 305.840, 564.422 305.993, 567.250 305.560 C 569.587 305.203, 573.975 304.666, 577 304.367 C 584.614 303.615, 585.814 302, 578.759 302 C 575.656 302, 572.840 302.450, 572.500 303 M 667.500 305 C 667.840 305.550, 669.415 306, 671 306 C 672.585 306, 674.160 305.550, 674.500 305 C 674.874 304.395, 673.491 304, 671 304 C 668.509 304, 667.126 304.395, 667.500 305 M 533.832 312.355 C 529.068 313.842, 527.974 315, 531.333 315 C 532.800 315, 534 314.550, 534 314 C 534 313.450, 535.377 313, 537.059 313 C 538.844 313, 539.861 312.583, 539.500 312 C 538.782 310.838, 538.670 310.845, 533.832 312.355 M 499 326.254 C 496.525 327.438, 494.350 328.766, 494.167 329.204 C 493.983 329.642, 492.971 330, 491.917 330 C 490.863 330, 490 330.450, 490 331 C 490 331.550, 489.325 332, 488.500 332 C 487.675 332, 487 332.488, 487 333.083 C 487 333.679, 487.337 334.005, 487.750 333.806 C 488.163 333.608, 490.413 332.565, 492.750 331.487 C 495.087 330.410, 497 329.184, 497 328.764 C 497 328.344, 497.900 328, 499 328 C 500.100 328, 501 327.550, 501 327 C 501 326.450, 501.900 326, 503 326 C 504.100 326, 505 325.550, 505 325 C 505 323.610, 504.155 323.786, 499 326.254 M 474.500 339.777 C 472.850 340.724, 471.350 341.837, 471.167 342.250 C 470.983 342.663, 470.196 343, 469.417 343 C 468.637 343, 468 343.450, 468 344 C 468 344.550, 467.298 345, 466.441 345 C 465.584 345, 465.160 345.449, 465.499 345.998 C 465.854 346.572, 468.533 345.363, 471.808 343.150 C 474.939 341.035, 478.175 339.046, 479 338.731 C 480.333 338.222, 480.333 338.152, 479 338.106 C 478.175 338.077, 476.150 338.829, 474.500 339.777 M 762 339.936 C 762 340.521, 762.675 341, 763.500 341 C 764.325 341, 765.004 341.337, 765.008 341.750 C 765.012 342.163, 766.137 343.020, 767.508 343.656 C 771.523 345.518, 770.368 343.575, 766 341.120 C 763.800 339.884, 762 339.351, 762 339.936 M 780.519 352.504 C 783.258 354.431, 786.527 356.742, 787.781 357.639 C 789.036 358.537, 790.237 359.096, 790.450 358.883 C 791.057 358.276, 778.269 349, 776.825 349 C 776.117 349, 777.779 350.577, 780.519 352.504 M 452.414 354.750 C 449.711 356.813, 447.346 358.849, 447.158 359.275 C 446.970 359.702, 432.407 360.015, 414.795 359.972 C 397.183 359.929, 382.537 360.130, 382.248 360.419 C 381.958 360.708, 396.200 361.070, 413.896 361.222 L 446.070 361.500 450.285 358.199 C 452.603 356.384, 455.610 354.021, 456.967 352.949 C 458.324 351.877, 458.960 351, 458.381 351 C 457.802 351, 455.117 352.688, 452.414 354.750 M 836.750 360.750 C 862.187 360.898, 903.812 360.898, 929.250 360.750 C 954.688 360.601, 933.875 360.480, 883 360.480 C 832.125 360.480, 811.313 360.601, 836.750 360.750" stroke="none" fill="#bbdefb" fill-rule="evenodd"/><path d="M 116.250 243.748 C 124.912 243.915, 139.087 243.915, 147.750 243.748 C 156.412 243.582, 149.325 243.445, 132 243.445 C 114.675 243.445, 107.587 243.582, 116.250 243.748 M 440.250 243.749 C 454.962 243.905, 479.038 243.905, 493.750 243.749 C 508.462 243.593, 496.425 243.466, 467 243.466 C 437.575 243.466, 425.538 243.593, 440.250 243.749 M 608.250 362.746 C 614.163 362.923, 623.837 362.923, 629.750 362.746 C 635.663 362.569, 630.825 362.425, 619 362.425 C 607.175 362.425, 602.337 362.569, 608.250 362.746 M 582.115 364.908 C 581.262 365.448, 582.606 365.602, 585.615 365.310 C 592.388 364.651, 593.332 364.170, 588 364.094 C 585.525 364.059, 582.877 364.425, 582.115 364.908 M 465.479 426.250 L 456.500 435.500 465.750 426.521 C 474.341 418.181, 475.455 417, 474.729 417 C 474.580 417, 470.418 421.163, 465.479 426.250 M 403.310 557.500 C 403.315 560.800, 403.502 562.029, 403.725 560.232 C 403.947 558.435, 403.943 555.735, 403.715 554.232 C 403.486 552.729, 403.304 554.200, 403.310 557.500 M 607.768 796.725 C 609.565 796.947, 612.265 796.943, 613.768 796.715 C 615.271 796.486, 613.800 796.304, 610.500 796.310 C 607.200 796.315, 605.971 796.502, 607.768 796.725 M 625.768 796.725 C 627.565 796.947, 630.265 796.943, 631.768 796.715 C 633.271 796.486, 631.800 796.304, 628.500 796.310 C 625.200 796.315, 623.971 796.502, 625.768 796.725" stroke="none" fill="#477aa7" fill-rule="evenodd"/></svg>