<svg xmlns="http://www.w3.org/2000/svg" width="1000" height="1000" viewBox="0 0 1000 1000" version="1.1"><path d="M 348 106 C 348 106.550, 347.410 107, 346.689 107 C 345.967 107, 344.505 107.810, 343.439 108.800 C 342.372 109.791, 340.773 110.878, 339.885 111.217 C 337.167 112.255, 330.959 120.602, 328.925 125.955 C 326.727 131.740, 325.841 231.834, 328 230.500 C 328.550 230.160, 329 230.584, 329 231.441 C 329 233.205, 330.222 233.418, 332.764 232.097 C 340.363 228.148, 365.899 224.429, 379.355 225.313 C 393.370 226.233, 392.202 230.933, 391.820 175.157 C 391.501 128.636, 391.493 128.488, 389.209 124.500 C 385.785 118.522, 380.983 112, 380.005 112 C 379.531 112, 378.548 111.424, 377.821 110.719 C 372.640 105.696, 348 101.797, 348 106 M 635 108.932 C 630.067 109.660, 623 112.712, 623 114.114 C 623 114.601, 622.462 115, 621.805 115 C 620.162 115, 615 120.073, 615 121.687 C 615 122.409, 614.640 123, 614.199 123 C 613.759 123, 612.302 125.138, 610.961 127.750 L 608.523 132.500 608.189 177.154 C 607.817 226.905, 607.779 226.594, 614.186 225.313 C 617.388 224.672, 637.125 226.513, 644 228.092 C 655.652 230.770, 663.377 233.205, 669.017 235.979 C 672.842 237.861, 673 235.816, 673 184.553 C 673 125.529, 673.555 128.923, 661.984 117.152 C 655.188 110.238, 645.712 107.352, 635 108.932" stroke="none" fill="#ffba33" fill-rule="evenodd"/><path d="M 363.268 548.162 C 353.516 565.547, 351.581 568.984, 349 573.500 C 347.900 575.425, 346.100 578.575, 345 580.500 C 340.791 587.866, 320.471 624.074, 317.221 630 C 315.863 632.475, 313.964 635.850, 313 637.500 C 312.036 639.150, 310.130 642.525, 308.765 645 C 307.400 647.475, 305.319 651.188, 304.141 653.250 C 302.964 655.313, 301.100 658.575, 300 660.500 C 295.791 667.866, 275.471 704.074, 272.221 710 C 270.863 712.475, 268.964 715.850, 268 717.500 C 267.036 719.150, 265.130 722.525, 263.765 725 C 262.400 727.475, 260.319 731.188, 259.141 733.250 C 257.964 735.313, 256.036 738.688, 254.859 740.750 C 251.465 746.692, 240.073 766.996, 227.506 789.500 C 225.970 792.250, 222.143 799, 219 804.500 C 199.091 839.342, 199 839.558, 199 851.607 C 199 867.735, 207.934 882.073, 221.445 887.630 C 223.946 888.658, 225.994 889.837, 225.996 890.250 C 225.998 890.663, 347.416 891, 495.813 891 L 765.626 891 770.968 888.423 C 791.708 878.418, 800.638 853.851, 790.750 834 C 788.696 829.875, 785.397 823.575, 783.419 820 C 781.441 816.425, 778.483 811.025, 776.846 808 C 775.209 804.975, 773.298 802.050, 772.600 801.500 C 771.902 800.950, 771.051 799.375, 770.709 798 C 769.767 794.218, 748.037 754.619, 746.392 753.689 C 745.603 753.242, 745.212 752.466, 745.523 751.963 C 745.833 751.461, 744.777 748.676, 743.176 745.775 C 736.954 734.503, 732.433 726.182, 728.361 718.500 C 726.028 714.100, 723.192 709.537, 722.060 708.359 C 720.927 707.182, 720 705.462, 720 704.539 C 720 703.615, 717.363 698.053, 714.141 692.180 C 710.918 686.306, 706.344 677.900, 703.975 673.500 C 701.607 669.100, 699.181 664.600, 698.584 663.500 C 697.988 662.400, 696.938 661.140, 696.250 660.700 C 695.563 660.260, 695 659.224, 695 658.396 C 695 657.569, 693.712 654.554, 692.137 651.696 C 690.563 648.838, 685.368 639.228, 680.594 630.340 C 675.820 621.453, 671.258 613.929, 670.457 613.622 C 669.656 613.314, 669 612.104, 669 610.932 C 669 608.996, 667.682 606.307, 658.985 590.500 C 654.598 582.525, 648.792 571.695, 647.598 569.258 C 646.994 568.025, 645.938 567.012, 645.250 567.008 C 644.563 567.004, 644 566.068, 644 564.930 C 644 562.872, 630.941 537.622, 628.660 535.269 C 627.725 534.304, 626.717 535.051, 623.984 538.734 C 619.557 544.699, 611.992 550.452, 605.212 553.007 C 598.993 555.351, 404.063 556.201, 396.899 553.915 C 387.524 550.924, 380.297 545.673, 373.843 537.162 L 371.312 533.824 363.268 548.162" stroke="none" fill="#0048d4" fill-rule="evenodd"/><path d="M 608.032 225.670 C 608.013 226.376, 605.318 227.112, 601.250 227.524 C 588.295 228.836, 563 236.944, 563 239.785 C 563 240.532, 562.187 240.988, 561.164 240.815 C 559.165 240.476, 549 245.607, 549 246.954 C 549 247.410, 547.929 248.052, 546.619 248.381 C 545.310 248.709, 543.987 249.941, 543.679 251.119 C 543.304 252.554, 542.604 253.062, 541.555 252.659 C 540.516 252.261, 537.977 254.030, 533.995 257.925 C 530.698 261.152, 528 263.582, 528 263.325 C 528 262.441, 525.315 265.543, 524.077 267.856 C 523.395 269.130, 522.609 269.942, 522.329 269.663 C 522.050 269.383, 520.399 270.533, 518.660 272.219 C 505.072 285.396, 484.842 283.563, 468.986 267.719 C 458.664 257.404, 452.011 252.059, 450.308 252.712 C 449.451 253.041, 448.683 252.504, 448.386 251.370 C 447.509 248.016, 431.070 238.643, 417.442 233.727 C 394.464 225.439, 361.825 224.964, 337.205 232.560 C 331.653 234.273, 329.243 234.617, 328.297 233.832 C 327.300 233.004, 327 233.273, 327 234.994 C 327 236.789, 326.576 237.122, 324.861 236.674 C 322.221 235.984, 309.536 242.169, 307.760 245.012 C 307.078 246.105, 305.696 247, 304.690 247 C 300.265 247, 274 270.237, 274 274.151 C 274 275.168, 273.410 276, 272.688 276 C 265.162 276, 258.158 306.247, 264.468 311.500 C 265.128 312.050, 265.993 313.850, 266.389 315.500 C 266.785 317.150, 269.182 322.775, 271.716 328 C 274.250 333.225, 279.573 344.294, 283.545 352.598 C 287.517 360.903, 291.495 367.976, 292.384 368.317 C 293.368 368.695, 294 370.094, 294 371.897 C 294 373.525, 294.675 375.532, 295.500 376.357 C 296.325 377.182, 297 378.345, 297 378.942 C 297 379.539, 297.420 380.809, 297.933 381.764 C 299.290 384.288, 314.299 415.655, 318.628 425.012 C 320.660 429.406, 322.925 433, 323.661 433 C 324.475 433, 325 434.149, 325 435.929 C 325 437.539, 325.675 439.532, 326.500 440.357 C 327.325 441.182, 328 442.345, 328 442.942 C 328 443.539, 328.426 444.809, 328.946 445.764 C 329.466 446.719, 332.440 452.900, 335.555 459.500 C 347.651 485.129, 353.421 496.532, 354.685 497.300 C 355.408 497.740, 356 499.141, 356 500.415 C 356 501.688, 356.838 503.803, 357.862 505.115 C 358.887 506.427, 360.049 508.625, 360.445 510 C 361.849 514.870, 370.084 531.216, 372.456 533.839 C 373.780 535.303, 376.908 538.785, 379.407 541.578 C 391.076 554.616, 386.633 554.177, 503 553.810 L 601.500 553.500 608 550.413 C 613.927 547.599, 624 539.015, 624 536.779 C 624 536.288, 625.266 534.675, 626.814 533.194 C 628.361 531.712, 632.034 525.100, 634.975 518.500 C 637.917 511.900, 641.551 503.800, 643.052 500.500 C 646.045 493.921, 649.587 486.118, 653.606 477.250 C 655.040 474.087, 657.467 468.800, 659 465.500 C 660.533 462.200, 663.008 456.800, 664.500 453.500 C 683.372 411.759, 691.584 393.621, 693.590 389.250 C 695.857 384.311, 697.658 380.358, 703.385 367.750 C 704.696 364.863, 707.223 359.350, 709.001 355.500 C 710.779 351.650, 713.933 344.675, 716.011 340 C 718.088 335.325, 721.349 328.125, 723.258 324 C 729.234 311.083, 731.239 304.358, 730.663 299.176 C 729.781 291.240, 728.831 288, 727.387 288 C 726.602 288, 726 286.991, 726 285.676 C 726 280.913, 705.777 257.914, 700.403 256.565 C 699.081 256.233, 698 255.312, 698 254.518 C 698 253.187, 690.069 247.225, 683.881 243.905 C 682.441 243.132, 679.291 241.416, 676.881 240.091 C 674.471 238.766, 671.375 237.583, 670 237.462 C 668.625 237.342, 663.675 235.857, 659 234.162 C 648.125 230.220, 634.888 227.953, 621.268 227.700 C 613.086 227.548, 610.207 227.140, 609.282 226 C 608.528 225.072, 608.051 224.946, 608.032 225.670" stroke="none" fill="#027ef1" fill-rule="evenodd"/><path d="M 389.648 224.476 C 389.179 225.696, 387.438 225.844, 379.584 225.328 C 365.899 224.429, 340.433 228.111, 332.764 232.097 C 330.171 233.445, 329 233.197, 329 231.300 C 329 229.972, 328.736 229.864, 327.793 230.807 C 324.655 233.945, 329.092 235.075, 336.007 232.897 C 348.588 228.936, 357.084 227.736, 373.821 227.559 C 390.026 227.388, 391.919 226.991, 391.985 223.750 C 392.012 222.407, 390.229 222.961, 389.648 224.476 M 609.046 224 C 609.016 226.997, 610.689 227.504, 621.268 227.700 C 637.711 228.005, 651.446 230.802, 667.736 237.164 C 671.025 238.448, 674.489 237.082, 672.546 235.267 C 672.095 234.845, 671.531 235.046, 671.292 235.714 C 671.011 236.498, 670.263 236.628, 669.179 236.081 C 663.647 233.289, 655.852 230.816, 644 228.092 C 636.989 226.481, 617.360 224.678, 614.047 225.341 C 611.844 225.781, 610.802 225.488, 610.063 224.219 C 609.267 222.853, 609.058 222.808, 609.046 224" stroke="none" fill="#fbbb34" fill-rule="evenodd"/><path d="M 373.159 536.250 C 379.425 545.122, 388.048 551.409, 397.500 553.999 C 400.311 554.769, 431.373 555.006, 502 554.797 L 602.500 554.500 608.030 551.784 C 616.481 547.634, 631.317 533, 627.074 533 C 626.511 533, 625.398 534.264, 624.598 535.810 C 622.040 540.758, 614.690 547.220, 608 550.405 L 601.500 553.500 503 553.810 C 399.958 554.135, 398.042 554.067, 389.651 549.811 C 384.847 547.374, 377.680 540.837, 374.925 536.379 C 373.777 534.520, 372.393 533, 371.850 533 C 371.308 533, 371.897 534.462, 373.159 536.250" stroke="none" fill="#0460e1" fill-rule="evenodd"/></svg>