<svg xmlns="http://www.w3.org/2000/svg" width="1000" height="1000" viewBox="0 0 1000 1000" version="1.1"><path d="M 162.655 580.250 C 162.909 580.663, 314.490 581, 499.500 581 C 684.510 581, 836.091 580.663, 836.345 580.250 C 836.600 579.837, 685.020 579.500, 499.500 579.500 C 313.980 579.500, 162.400 579.837, 162.655 580.250 M 207.793 600.250 C 205.839 603.311, 202.811 611.144, 203.367 611.700 C 203.615 611.948, 204.142 611.104, 204.539 609.825 C 204.936 608.546, 206.152 605.587, 207.241 603.250 L 209.220 599 230.560 599 C 249.829 599, 252 599.170, 252.920 600.750 C 253.830 602.313, 253.942 602.259, 253.970 600.250 L 254 598 231.615 598 C 209.493 598, 209.213 598.026, 207.793 600.250 M 268.169 600.528 C 267.526 601.939, 267.018 603.635, 267.039 604.297 C 267.061 604.959, 267.714 604.038, 268.491 602.250 L 269.903 599 289.702 599.015 C 300.591 599.024, 310.067 599.390, 310.759 599.830 C 311.727 600.444, 311.784 601.867, 311.004 605.977 C 310.447 608.918, 310.196 611.529, 310.447 611.780 C 311.098 612.431, 311.955 608.253, 312.249 603 L 312.500 598.500 290.919 598.231 L 269.338 597.962 268.169 600.528 M 328.526 600.950 C 327.687 602.573, 327.036 604.711, 327.079 605.700 C 327.127 606.789, 327.575 606.314, 328.213 604.500 C 330.211 598.821, 329.697 598.938, 351.345 599.230 L 371.411 599.500 372.029 602 L 372.647 604.500 373.388 602.259 C 373.796 601.026, 373.848 599.564, 373.506 599.009 C 373.118 598.381, 364.791 598, 351.467 598 L 330.051 598 328.526 600.950 M 387.053 601.750 C 386.480 603.813, 386.053 606.175, 386.104 607 C 386.155 607.825, 386.736 606.475, 387.395 604 L 388.594 599.500 408.547 599.254 C 419.521 599.118, 429.060 599.368, 429.745 599.809 C 430.679 600.412, 430.804 602.839, 430.245 609.556 L 429.500 618.500 407.153 618.769 L 384.807 619.039 385.368 613.769 C 385.752 610.166, 385.656 609.290, 385.064 611 C 384.589 612.375, 384.155 614.971, 384.100 616.768 L 384 620.037 407.250 619.768 L 430.500 619.500 431.282 610.054 C 431.711 604.858, 431.838 600.020, 431.563 599.304 C 431.173 598.288, 426.314 598, 409.578 598 L 388.094 598 387.053 601.750 M 448.686 598.648 C 448.309 599.025, 448 599.965, 448 600.738 C 448 601.874, 448.301 601.842, 449.571 600.571 C 450.889 599.254, 454.190 599, 469.990 599 C 480.355 599, 489.548 599.273, 490.418 599.607 C 491.705 600.101, 492 601.964, 492 609.607 L 492 619 469.420 619 L 446.841 619 447.403 612.250 C 447.869 606.658, 447.788 606.074, 446.928 608.850 C 446.358 610.692, 446.028 613.842, 446.196 615.850 L 446.500 619.500 469.500 619.500 L 492.500 619.500 492.500 609 L 492.500 598.500 470.936 598.231 C 459.075 598.083, 449.063 598.271, 448.686 598.648 M 507.100 599.380 C 506.331 600.306, 506.023 604.045, 506.211 610.149 L 506.500 619.500 529.750 619.768 L 553 620.037 552.912 615.768 C 552.864 613.421, 552.439 609.250, 551.967 606.500 C 551.294 602.571, 551.217 603.379, 551.609 610.269 L 552.107 619.039 529.804 618.769 L 507.500 618.500 507.208 610.153 C 507.023 604.859, 507.342 601.293, 508.080 600.403 C 509.678 598.478, 547.899 598.339, 549.925 600.250 C 550.994 601.259, 551.162 601.211, 550.792 600 C 550.125 597.814, 508.885 597.228, 507.100 599.380 M 567.433 599.314 C 567.155 600.037, 567.373 604.200, 567.917 608.564 L 568.905 616.500 568.491 608.342 C 568.151 601.651, 568.354 600.078, 569.620 599.592 C 570.469 599.267, 593.609 599, 621.043 599 L 670.923 599 671.886 602.750 C 672.415 604.813, 673.055 607.400, 673.308 608.500 C 673.646 609.969, 673.799 609.761, 673.884 607.718 C 673.948 606.188, 673.348 603.375, 672.551 601.468 L 671.102 598 619.520 598 C 577.830 598, 567.841 598.252, 567.433 599.314 M 686.470 599.049 C 685.913 599.950, 686.420 603.022, 689.559 617.750 L 690.038 620 713.019 620 C 725.659 620, 736 619.663, 736 619.250 C 736.001 618.837, 725.792 618.500, 713.314 618.500 L 690.627 618.500 688.894 609.509 C 687.591 602.751, 687.451 600.334, 688.330 599.775 C 688.974 599.365, 698.372 599.024, 709.215 599.015 C 731.405 598.998, 729.574 598.343, 732.564 607.365 C 733.771 611.008, 733.865 611.096, 733.356 608.107 C 733.038 606.240, 732.147 603.203, 731.376 601.357 L 729.973 598 708.546 598 C 694.669 598, 686.890 598.370, 686.470 599.049 M 745.667 598.667 C 744.381 599.952, 745.014 601.233, 746.377 600.102 C 747.338 599.305, 754.187 599.041, 769.057 599.230 L 790.360 599.500 794.180 608.928 C 796.281 614.114, 798 618.501, 798 618.678 C 798 618.855, 787.930 619, 775.622 619 L 753.244 619 750.932 612.819 C 749.661 609.419, 748.462 607.114, 748.268 607.695 C 748.074 608.277, 749.035 611.283, 750.403 614.376 L 752.890 620 775.386 620 C 788.090 620, 798.131 619.597, 798.454 619.075 C 798.768 618.566, 798.514 616.879, 797.888 615.325 C 797.263 613.771, 796.305 611.375, 795.759 610 C 795.213 608.625, 794.369 606.719, 793.883 605.764 C 793.397 604.809, 793 603.416, 793 602.669 C 793 601.921, 792.177 600.565, 791.171 599.655 C 789.589 598.223, 786.445 598, 767.838 598 C 756.010 598, 746.033 598.300, 745.667 598.667 M 248.281 613.226 L 246.277 618.500 223.638 618.500 C 211.187 618.500, 200.999 618.837, 201 619.250 C 201 619.663, 211.070 620, 223.378 620 C 240.099 620, 245.999 619.684, 246.719 618.750 C 248.054 617.020, 251.173 608.840, 250.685 608.351 C 250.465 608.132, 249.384 610.326, 248.281 613.226 M 325.665 609.107 C 325.454 609.873, 324.724 612.232, 324.041 614.349 C 323.284 616.693, 323.159 618.559, 323.719 619.119 C 324.241 619.641, 334.338 619.923, 347.056 619.770 C 367.662 619.522, 369.487 619.357, 369.635 617.730 C 369.748 616.492, 369.655 616.417, 369.325 617.480 C 368.921 618.781, 365.617 619, 346.427 619 C 334.092 619, 324.007 618.663, 324.015 618.250 C 324.023 617.837, 324.715 615.530, 325.554 613.122 C 326.392 610.715, 326.846 608.513, 326.563 608.229 C 326.279 607.946, 325.875 608.341, 325.665 609.107 M 674.546 614.750 L 675.176 619 622.671 619 C 581.603 619, 570.057 618.728, 569.662 617.750 C 569.362 617.007, 569.126 617.213, 569.079 618.259 C 569.004 619.919, 571.978 620.003, 622.250 619.759 L 675.500 619.500 675.814 616.776 C 675.987 615.277, 675.630 613.252, 675.022 612.276 C 674.155 610.883, 674.052 611.417, 674.546 614.750 M 263.607 614.582 C 263.273 615.452, 263 617.035, 263 618.100 C 263 619.968, 263.828 620.027, 286.250 619.768 L 309.500 619.500 309.673 616 C 309.841 612.593, 309.827 612.580, 309.164 615.500 L 308.482 618.500 286.112 618.769 L 263.742 619.039 264.346 616.019 C 264.995 612.776, 264.597 612.002, 263.607 614.582 M 196.926 628.695 C 196.362 630.177, 194.560 634.288, 192.920 637.831 C 191.280 641.373, 190.100 644.433, 190.297 644.630 C 190.494 644.827, 192.514 640.941, 194.786 635.994 L 198.918 627 252.375 627 C 294.206 627, 305.943 627.272, 306.338 628.250 C 306.639 628.997, 306.874 628.795, 306.921 627.750 C 306.995 626.104, 303.767 626, 252.475 626 L 197.950 626 196.926 628.695 M 320.607 627.582 C 320.273 628.452, 320.036 629.914, 320.079 630.832 C 320.124 631.784, 320.589 631.319, 321.162 629.750 L 322.167 627 344.083 627 L 366 627 366 629.924 C 366 631.532, 365.508 635.244, 364.907 638.174 C 364.307 641.103, 363.619 644.528, 363.380 645.785 L 362.944 648.070 339.471 647.785 C 326.561 647.628, 315.999 647.837, 315.999 648.250 C 316 648.663, 326.791 649, 339.981 649 L 363.962 649 364.416 646.750 C 364.666 645.513, 365.164 642.700, 365.522 640.500 C 365.881 638.300, 366.536 634.475, 366.977 632 C 367.419 629.525, 367.578 627.163, 367.331 626.750 C 367.084 626.337, 356.607 626, 344.048 626 C 324.149 626, 321.136 626.203, 320.607 627.582 M 383.098 629.149 C 382.494 630.881, 382.043 633.469, 382.096 634.899 C 382.157 636.555, 382.614 635.683, 383.352 632.500 L 384.513 627.500 406.818 627.231 L 429.124 626.961 428.432 636.731 C 428.051 642.104, 427.547 646.837, 427.311 647.250 C 427.075 647.663, 416.507 648, 403.827 648 L 380.773 648 381.428 643.250 C 381.895 639.864, 381.788 638.931, 381.057 640 C 380.492 640.825, 380.024 643.188, 380.015 645.250 L 380 649 403.941 649 C 417.109 649, 428.076 648.663, 428.312 648.250 C 428.549 647.837, 429.055 642.663, 429.438 636.750 L 430.134 626 407.165 626 L 384.196 626 383.098 629.149 M 446.116 628.232 C 446.204 629.955, 446.343 630.075, 446.693 628.731 C 447.119 627.096, 448.830 626.982, 469.327 627.231 L 491.500 627.500 491.785 637.750 L 492.070 648 468.433 648 L 444.797 648 445.363 640.750 C 445.725 636.110, 445.618 634.400, 445.064 636 C 444.589 637.375, 444.155 640.871, 444.100 643.768 L 444 649.036 468.250 648.768 L 492.500 648.500 492.500 637.500 L 492.500 626.500 469.250 626.232 L 446 625.963 446.116 628.232 M 506.430 627.321 C 506.151 628.048, 506.053 633.110, 506.212 638.571 L 506.500 648.500 530.750 648.768 L 555 649.036 554.882 643.268 C 554.817 640.096, 554.391 636.150, 553.937 634.500 C 553.423 632.637, 553.318 634.627, 553.659 639.750 L 554.208 648 530.569 648 L 506.930 648 507.215 637.750 L 507.500 627.500 530.250 627.500 C 542.763 627.500, 553.001 627.163, 553 626.750 C 553 626.337, 542.636 626, 529.969 626 C 511.804 626, 506.830 626.279, 506.430 627.321 M 569.534 636.250 C 569.879 641.888, 570.335 647.063, 570.549 647.750 C 570.845 648.705, 576.617 649, 594.969 649 C 608.186 649, 619 648.663, 619.001 648.250 C 619.001 647.837, 608.418 647.628, 595.483 647.785 C 577 648.010, 571.879 647.795, 571.566 646.785 C 571.347 646.078, 570.910 641.337, 570.595 636.250 L 570.022 627 592.403 627 L 614.784 627 615.774 631.750 C 616.443 634.962, 616.802 635.631, 616.882 633.815 C 616.947 632.338, 616.561 629.976, 616.025 628.565 L 615.050 626 591.979 626 L 568.908 626 569.534 636.250 M 631.717 626.750 C 631.496 627.163, 631.649 628.625, 632.058 630 L 632.801 632.500 632.900 629.731 L 633 626.962 655.205 627.231 L 677.410 627.500 679.107 633 C 680.040 636.025, 680.848 638.019, 680.902 637.432 C 680.956 636.844, 680.308 634.031, 679.461 631.182 L 677.923 626 655.020 626 C 642.424 626, 631.937 626.337, 631.717 626.750 M 691.999 626.750 C 691.999 627.163, 702.573 627.364, 715.497 627.199 L 738.996 626.897 739.963 629.199 C 740.494 630.464, 741.833 634.425, 742.937 638 C 744.041 641.575, 744.696 642.925, 744.390 641 C 743.822 637.415, 742.405 632.249, 740.894 628.250 C 740.044 626.003, 740.014 626, 716.021 626 C 702.810 626, 692 626.337, 691.999 626.750 M 755 628.441 C 755 629.784, 755.385 631.120, 755.856 631.411 C 756.326 631.702, 756.499 630.828, 756.239 629.470 L 755.767 627 777.937 627 L 800.107 627 804.553 636.452 C 806.999 641.650, 809 646.375, 809 646.952 C 809 647.652, 801.361 648, 785.968 648 C 763.017 648, 762.932 647.992, 762.031 645.750 C 761.534 644.513, 761.098 644.026, 761.063 644.668 C 760.831 648.959, 761.069 649, 786.048 649 C 799.157 649, 810.081 648.663, 810.325 648.250 C 810.568 647.837, 809.718 645.250, 808.436 642.500 C 807.153 639.750, 804.943 634.913, 803.523 631.750 L 800.941 626 777.971 626 L 755 626 755 628.441 M 633.566 638.500 C 633.846 641.250, 634.319 644.737, 634.617 646.250 L 635.159 649 659.020 649 C 672.144 649, 683.091 648.663, 683.347 648.250 C 683.602 647.837, 673.077 647.628, 659.957 647.784 L 636.104 648.069 635.492 644.284 C 635.155 642.203, 634.470 638.925, 633.968 637 C 633.168 633.932, 633.119 634.117, 633.566 638.500 M 301.961 642.632 L 300.500 647.500 245.564 647.759 C 202.278 647.962, 190.459 647.750, 189.830 646.759 C 189.256 645.855, 189.026 645.995, 189.015 647.258 C 189.001 648.918, 192.139 649.002, 245.206 648.758 L 301.412 648.500 302.711 644.014 C 303.425 641.547, 303.877 639.131, 303.715 638.646 C 303.554 638.161, 302.764 639.954, 301.961 642.632 M 697.226 646.500 C 697.516 648.428, 698.397 648.510, 721.763 648.768 L 746 649.036 745.884 646.768 C 745.797 645.074, 745.652 644.943, 745.311 646.250 C 744.892 647.852, 742.923 648, 721.976 648 C 701.269 648, 698.996 647.834, 698.013 646.250 C 697.020 644.650, 696.952 644.672, 697.226 646.500 M 183.183 659.250 C 179.843 666.853, 178.722 670.055, 179.224 670.557 C 179.495 670.828, 181.009 667.663, 182.589 663.525 L 185.462 656 208.750 656 L 232.038 656 231.438 658.750 C 230.976 660.868, 231.083 661.155, 231.904 660 C 232.490 659.175, 232.976 657.712, 232.985 656.750 C 232.999 655.132, 231.197 655, 209.025 655 L 185.050 655 183.183 659.250 M 248.521 656.250 C 246.890 661.152, 245.074 668.407, 245.398 668.731 C 245.613 668.946, 246.671 666.282, 247.750 662.811 L 249.711 656.500 272.986 656.231 L 296.262 655.962 295.617 660.231 C 295.164 663.227, 295.269 664.053, 295.970 663 C 296.520 662.175, 296.976 660.038, 296.985 658.250 L 297 655 272.969 655 C 254.632 655, 248.839 655.296, 248.521 656.250 M 313.199 656.732 C 312.056 659, 308.670 675.003, 309.217 675.550 C 309.445 675.778, 310.419 672.260, 311.383 667.732 C 312.347 663.204, 313.491 658.825, 313.926 658 C 314.586 656.748, 318.399 656.455, 336.982 656.231 C 353.832 656.027, 359.622 656.270, 360.787 657.231 C 362.060 658.281, 362.240 658.241, 361.830 657 C 361.411 655.733, 357.661 655.458, 337.712 655.232 C 315.969 654.985, 314.019 655.105, 313.199 656.732 M 377.330 659.750 C 376.894 662.362, 376.529 668.550, 376.519 673.500 L 376.500 682.500 398.780 682.769 C 413.007 682.941, 421.772 682.657, 423.030 681.984 C 424.429 681.235, 424.954 679.997, 424.840 677.715 L 424.680 674.500 424.277 677.750 L 423.873 681 401.437 681 C 389.096 681, 378.663 680.987, 378.250 680.971 C 377.396 680.937, 377.581 664.172, 378.490 659.250 L 379.091 656 402.979 656 L 426.867 656 427.284 658.750 C 427.671 661.310, 427.711 661.275, 427.850 658.250 L 428 655 403.061 655 L 378.123 655 377.330 659.750 M 442.667 655.667 C 442.300 656.033, 442 662.060, 442 669.060 C 442 679.742, 442.254 681.884, 443.582 682.393 C 444.452 682.727, 454.765 683, 466.500 683 C 478.235 683, 488.548 682.727, 489.418 682.393 C 490.613 681.935, 490.956 680.526, 490.820 676.643 L 490.640 671.500 490.265 676.250 L 489.890 681 467.445 681 C 455.100 681, 444.663 681.001, 444.250 681.003 C 443.837 681.005, 443.374 675.372, 443.220 668.485 L 442.940 655.964 467.220 656.232 L 491.500 656.500 491.330 663.500 L 491.160 670.500 492.211 664.312 C 493.901 654.366, 495.569 655, 467.698 655 C 454.297 655, 443.033 655.300, 442.667 655.667 M 506.383 656.444 C 506.078 657.239, 506.317 661.037, 506.914 664.886 C 507.511 668.734, 508 674.151, 508 676.923 C 508 681.318, 508.287 682.032, 510.250 682.513 C 511.488 682.817, 522.400 682.938, 534.500 682.783 L 556.500 682.500 556.778 668.750 L 557.056 655 531.997 655 C 511.073 655, 506.846 655.238, 506.383 656.444 M 571.627 662.250 C 571.979 666.237, 572.653 670.175, 573.124 671 C 573.620 671.867, 573.698 669.968, 573.309 666.500 C 572.046 655.250, 569.116 656.500, 596.750 656.500 C 610.088 656.500, 621.001 656.163, 621 655.750 C 621 655.337, 609.747 655, 595.993 655 L 570.986 655 571.627 662.250 M 702 658.423 C 702 660.326, 702.479 662.178, 703.064 662.539 C 703.785 662.985, 703.909 662.031, 703.449 659.580 L 702.770 655.963 726.101 656.231 L 749.431 656.500 752.402 665.939 C 754.037 671.131, 755.511 674.956, 755.679 674.439 C 755.847 673.923, 754.695 669.450, 753.118 664.500 L 750.252 655.500 726.126 655.232 L 702 654.964 702 658.423 M 766.343 656.549 C 766.008 657.421, 766.282 658.667, 766.951 659.317 C 767.896 660.237, 768.093 660.055, 767.834 658.500 C 767.509 656.554, 768.129 656.493, 790.626 656.232 L 813.753 655.964 815.782 661.232 C 816.897 664.129, 818.088 667.352, 818.429 668.393 C 818.769 669.434, 819.293 670.041, 819.593 669.741 C 819.893 669.441, 818.857 666.114, 817.291 662.348 L 814.444 655.500 790.698 655.232 C 769.784 654.996, 766.879 655.153, 766.343 656.549 M 507.833 656.980 C 507.650 657.518, 507.918 663.143, 508.428 669.480 L 509.357 681 531.678 681 C 543.955 681, 554.337 681.001, 554.750 681.003 C 555.163 681.005, 555.626 675.380, 555.780 668.503 L 556.060 656 532.113 656 C 517.374 656, 508.038 656.377, 507.833 656.980 M 638.015 662.250 C 638.024 665.138, 638.470 668.175, 639.006 669 C 639.663 670.011, 639.775 668.461, 639.348 664.250 L 638.715 658 661.235 658 C 678.076 658, 683.995 658.315, 684.708 659.250 C 685.231 659.938, 686.927 665.797, 688.476 672.271 C 690.025 678.745, 691.511 683.823, 691.778 683.556 C 692.291 683.042, 689.389 670.107, 687.885 666.203 C 687.398 664.940, 687 662.892, 687 661.653 C 687 657.197, 685.911 657, 661.300 657 L 638 657 638.015 662.250 M 621.345 669.309 L 621.500 681.117 599.014 681.023 C 586.647 680.971, 576.217 680.607, 575.836 680.214 C 575.455 679.822, 574.958 677.925, 574.731 676 C 574.337 672.642, 574.314 672.671, 574.160 676.715 C 574.036 679.987, 574.441 681.166, 575.970 681.984 C 577.228 682.657, 585.993 682.941, 600.220 682.769 L 622.500 682.500 622.785 673.995 C 622.942 669.318, 622.647 663.693, 622.130 661.495 C 621.390 658.352, 621.222 660.018, 621.345 669.309 M 359.614 664.867 C 359.222 667.818, 359.114 670.447, 359.375 670.708 C 360.042 671.375, 361.304 662.411, 360.768 660.813 C 360.526 660.091, 360.007 661.915, 359.614 664.867 M 426.168 664.125 C 426.076 665.569, 425.763 668.269, 425.473 670.125 C 424.991 673.216, 425.037 673.293, 426.021 671.034 C 426.612 669.678, 426.924 666.978, 426.716 665.034 C 426.441 662.481, 426.290 662.228, 426.168 664.125 M 226.362 674.917 L 224.557 681 200.278 681 C 186.925 681, 176 680.830, 176 680.622 C 176 680.414, 176.701 678.566, 177.559 676.514 C 178.416 674.462, 178.876 672.543, 178.582 672.249 C 178.288 671.955, 177.771 672.566, 177.433 673.607 C 177.095 674.648, 176.350 676.482, 175.776 677.683 C 175.203 678.883, 175.005 680.570, 175.336 681.433 C 175.858 682.794, 179.007 683, 199.277 683 C 216.441 683, 223.035 682.669, 224.196 681.750 C 225.871 680.424, 229.563 670.229, 228.686 669.353 C 228.401 669.068, 227.356 671.572, 226.362 674.917 M 640.189 675 C 640.162 676.925, 640.527 679.400, 641 680.500 C 641.780 682.315, 641.855 682.268, 641.811 680 C 641.785 678.625, 641.420 676.150, 641 674.500 L 640.237 671.500 640.189 675 M 358 675.566 C 358 681.625, 358.439 681.527, 332.600 681.215 C 309.014 680.930, 309 680.928, 308.930 678.715 C 308.863 676.598, 308.824 676.589, 308.053 678.500 C 306.358 682.707, 307.953 683, 332.551 683 C 358.504 683, 359 682.877, 359 676.429 C 359 674.543, 358.775 673, 358.500 673 C 358.225 673, 358 674.155, 358 675.566 M 706.524 676.905 C 707.413 683.105, 706.955 683, 733.154 683 C 753.861 683, 757.143 682.792, 757.660 681.445 C 757.988 680.589, 757.739 678.902, 757.107 677.695 C 756.027 675.631, 755.991 675.664, 756.498 678.250 L 757.038 681 733.519 681 C 720.584 681, 709.703 681.112, 709.340 681.250 C 708.977 681.388, 708.085 679.700, 707.358 677.500 C 706.089 673.662, 706.056 673.638, 706.524 676.905 M 772.655 677 C 773.563 682.978, 773.966 683.063, 799.952 682.768 C 821.955 682.517, 823.497 682.380, 823.831 680.644 C 824.027 679.623, 823.721 678.321, 823.150 677.750 C 822.433 677.033, 822.285 677.374, 822.673 678.856 L 823.233 681 798.793 681 L 774.353 681 773.238 677.250 L 772.124 673.500 772.655 677 M 291.443 677.905 C 290.925 679.690, 290.163 681.117, 289.750 681.075 C 289.337 681.034, 278.395 681, 265.433 681 L 241.865 681 242.438 678.750 C 243.005 676.522, 242.999 676.523, 241.819 678.826 C 240.855 680.707, 240.901 681.327, 242.063 682.071 C 242.861 682.581, 253.939 682.881, 266.987 682.745 L 290.474 682.500 291.809 679.715 C 292.543 678.183, 292.973 676.419, 292.765 675.795 C 292.557 675.171, 291.962 676.121, 291.443 677.905 M 642.218 686.500 C 642.208 688.150, 642.560 690.625, 643 692 L 643.801 694.500 643.782 692 C 643.772 690.625, 643.420 688.150, 643 686.500 L 642.237 683.500 642.218 686.500 M 172.865 689.750 C 171.317 691.626, 167.969 698.600, 168.048 699.784 C 168.075 700.178, 169.432 697.913, 171.064 694.750 L 174.032 689 197.316 689 C 214.092 689, 220.935 689.335, 221.800 690.200 C 222.733 691.133, 223 691.022, 223 689.700 C 223 688.147, 220.901 688, 198.655 688 C 176.686 688, 174.169 688.171, 172.865 689.750 M 238.566 691.250 C 236.632 695.736, 233.688 706.021, 234.194 706.527 C 234.422 706.755, 235.840 702.905, 237.346 697.971 L 240.083 689 264.041 689 L 288 689 288.030 691.750 C 288.057 694.160, 288.191 694.276, 289.114 692.689 C 291.715 688.217, 290.574 688, 264.515 688 L 239.968 688 238.566 691.250 M 305.670 688.663 C 305.302 689.032, 305.029 690.271, 305.063 691.417 C 305.124 693.417, 305.163 693.410, 306.031 691.250 L 306.936 689 432.388 689 L 557.841 689 558.576 695.750 C 558.980 699.462, 559.354 705.200, 559.406 708.500 L 559.500 714.500 430.500 714.500 L 301.500 714.500 301.759 711 C 301.902 709.075, 302.721 704.644, 303.580 701.154 C 304.439 697.664, 304.907 694.573, 304.619 694.286 C 304.332 693.999, 303.835 695.055, 303.514 696.632 C 303.193 698.209, 302.518 700.850, 302.013 702.500 C 301.508 704.150, 300.791 707.864, 300.418 710.754 L 299.741 716.007 430.121 715.754 L 560.500 715.500 560.750 710.500 C 560.887 707.750, 560.437 701.675, 559.750 697 L 558.500 688.500 432.420 688.246 C 363.077 688.107, 306.039 688.294, 305.670 688.663 M 575.667 688.667 C 575.300 689.033, 575.059 690.946, 575.132 692.917 L 575.263 696.500 575.882 693 L 576.500 689.500 600.217 689.232 L 623.933 688.964 624.877 692.232 C 625.561 694.603, 625.844 694.905, 625.910 693.332 C 626.137 687.879, 626.711 688, 600.560 688 C 587.235 688, 576.033 688.300, 575.667 688.667 M 710.484 693.732 C 710.879 696.905, 711.607 700.258, 712.101 701.184 C 712.596 702.111, 713 704.222, 713 705.875 C 713 707.529, 713.450 709.160, 714 709.500 C 715.349 710.334, 715.283 709.740, 713 700.500 C 709.843 687.722, 707.413 689, 734.879 689 L 758.757 689 759.816 691.750 C 760.398 693.263, 762.076 698.464, 763.545 703.309 C 765.013 708.154, 766.406 711.927, 766.641 711.693 C 766.875 711.458, 766.442 709.294, 765.678 706.883 C 764.913 704.472, 763.729 700.475, 763.046 698 C 762.363 695.525, 761.201 692.375, 760.465 691 L 759.127 688.500 734.446 688.232 L 709.765 687.965 710.484 693.732 M 776.556 688.910 C 776.002 689.805, 776.386 691.558, 778 695.500 C 778.450 696.600, 779.095 698.352, 779.433 699.393 C 779.771 700.434, 780.288 701.045, 780.582 700.751 C 780.876 700.457, 780.416 698.538, 779.559 696.486 C 776.237 688.536, 775.030 688.930, 801.750 689.232 L 825.500 689.500 829.191 697 C 833.891 706.552, 834.110 705.549, 829.502 695.573 L 826.004 688 801.561 688 C 787.961 688, 776.869 688.404, 776.556 688.910 M 694.027 694.500 C 694.025 695.050, 694.913 699.100, 696 703.500 C 699.159 716.286, 701.671 715, 673.535 715 C 645.387 715, 647.911 716.007, 646.067 704.042 C 645.435 699.940, 644.667 696.340, 644.362 696.042 C 643.541 695.241, 645.100 706.866, 646.435 711.500 L 647.587 715.500 673.180 715.767 C 701.141 716.058, 700.787 716.133, 699.025 710.323 C 698.554 708.770, 697.681 705.893, 697.084 703.929 C 696.488 701.965, 695.993 699.490, 695.985 698.429 C 695.976 697.368, 695.533 695.825, 695 695 C 694.467 694.175, 694.029 693.950, 694.027 694.500 M 626.176 698 C 626.143 699.375, 626.488 702.300, 626.943 704.500 L 627.770 708.500 627.767 705 C 627.765 703.075, 627.420 700.150, 627 698.500 C 626.305 695.767, 626.231 695.722, 626.176 698 M 164.572 706.435 C 159.883 716.688, 158.232 716, 187.536 716 L 213.071 716 214.891 711.750 C 215.892 709.413, 217.001 706.375, 217.357 705 C 217.712 703.625, 217.105 704.525, 216.006 707 C 214.908 709.475, 213.621 712.175, 213.146 713 C 212.423 714.258, 208.300 714.543, 187.642 714.767 C 159.723 715.071, 161.151 715.582, 165.567 706.867 C 166.979 704.081, 167.912 701.578, 167.640 701.306 C 167.368 701.034, 165.987 703.342, 164.572 706.435 M 576.193 707.128 C 576.059 711.724, 576.421 714.105, 577.374 714.895 C 578.341 715.698, 586.111 715.956, 603.624 715.768 L 628.500 715.500 628.696 712.500 C 628.879 709.706, 628.841 709.672, 628.152 712 L 627.411 714.500 603.580 714.768 C 587.306 714.952, 579.328 714.687, 578.420 713.934 C 577.664 713.306, 576.939 710.173, 576.738 706.665 L 576.385 700.500 576.193 707.128 M 781.068 702.461 C 781.030 702.989, 782.013 706.044, 783.250 709.251 C 784.747 713.130, 786.169 715.244, 787.500 715.572 C 788.600 715.842, 800.300 715.937, 813.500 715.782 C 836.857 715.508, 837.492 715.446, 837.193 713.500 C 836.770 710.738, 833.938 704.729, 833.341 705.326 C 833.072 705.594, 833.561 707.184, 834.426 708.857 C 837.711 715.210, 838.494 715, 811.464 715 L 786.929 715 784.949 710.250 C 781.909 702.958, 781.141 701.417, 781.068 702.461 M 232.607 709.582 C 232.273 710.452, 232 712.259, 232 713.599 L 232 716.034 257.667 715.767 C 279.454 715.540, 283.404 715.273, 283.792 714 C 284.162 712.789, 283.994 712.741, 282.925 713.750 C 281.940 714.680, 275.344 715, 257.189 715 L 232.777 715 233.434 711.500 C 234.115 707.870, 233.665 706.826, 232.607 709.582 M 715.173 713.500 C 715.514 715.431, 716.417 715.509, 741.263 715.767 C 755.418 715.914, 767 715.689, 767.001 715.267 C 767.001 714.845, 755.869 714.628, 742.263 714.785 C 719.493 715.047, 717.417 714.928, 716.172 713.285 C 714.897 711.602, 714.840 711.614, 715.173 713.500 M 435.472 736.765 C 434.411 737.524, 390.987 823.914, 390.995 825.250 C 390.998 825.663, 439.825 826, 499.500 826 C 571.487 826, 608 825.662, 608 824.996 C 608 824.443, 598.099 804.193, 585.998 779.996 L 563.996 736 500.248 736.015 C 465.186 736.024, 436.038 736.361, 435.472 736.765 M 32 864.514 C 32 868.646, 32.450 872.921, 33 874.014 C 33.550 875.106, 34.533 877.013, 35.184 878.250 C 35.835 879.487, 37.040 881.850, 37.862 883.500 C 40.082 887.957, 51.847 899.364, 57 902.056 C 59.475 903.349, 63.739 905.217, 66.475 906.208 C 71.241 907.934, 89.412 907.999, 501.475 907.755 C 819.561 907.566, 932.021 907.205, 933.500 906.367 C 934.600 905.744, 937.731 904.092, 940.457 902.697 C 955.696 894.896, 966.579 879.610, 967.730 864.385 L 968.289 857 500.144 857 L 32 857 32 864.514" stroke="none" fill="#ced6e0" fill-rule="evenodd"/><path d="M 162.655 580.250 C 162.909 580.663, 314.490 581, 499.500 581 C 684.510 581, 836.091 580.663, 836.345 580.250 C 836.600 579.837, 685.020 579.500, 499.500 579.500 C 313.980 579.500, 162.400 579.837, 162.655 580.250 M 207.793 600.250 C 205.839 603.311, 202.811 611.144, 203.367 611.700 C 203.615 611.948, 204.142 611.104, 204.539 609.825 C 204.936 608.546, 206.152 605.587, 207.241 603.250 L 209.220 599 230.560 599 C 249.829 599, 252 599.170, 252.920 600.750 C 253.830 602.313, 253.942 602.259, 253.970 600.250 L 254 598 231.615 598 C 209.493 598, 209.213 598.026, 207.793 600.250 M 268.169 600.528 C 267.526 601.939, 267.018 603.635, 267.039 604.297 C 267.061 604.959, 267.714 604.038, 268.491 602.250 L 269.903 599 289.702 599.015 C 300.591 599.024, 310.067 599.390, 310.759 599.830 C 311.727 600.444, 311.784 601.867, 311.004 605.977 C 310.447 608.918, 310.196 611.529, 310.447 611.780 C 311.098 612.431, 311.955 608.253, 312.249 603 L 312.500 598.500 290.919 598.231 L 269.338 597.962 268.169 600.528 M 328.526 600.950 C 327.687 602.573, 327.036 604.711, 327.079 605.700 C 327.127 606.789, 327.575 606.314, 328.213 604.500 C 330.211 598.821, 329.697 598.938, 351.345 599.230 L 371.411 599.500 372.029 602 L 372.647 604.500 373.388 602.259 C 373.796 601.026, 373.848 599.564, 373.506 599.009 C 373.118 598.381, 364.791 598, 351.467 598 L 330.051 598 328.526 600.950 M 387.053 601.750 C 386.480 603.813, 386.053 606.175, 386.104 607 C 386.155 607.825, 386.736 606.475, 387.395 604 L 388.594 599.500 408.547 599.254 C 419.521 599.118, 429.060 599.368, 429.745 599.809 C 430.679 600.412, 430.804 602.839, 430.245 609.556 L 429.500 618.500 407.153 618.769 L 384.807 619.039 385.368 613.769 C 385.752 610.166, 385.656 609.290, 385.064 611 C 384.589 612.375, 384.155 614.971, 384.100 616.768 L 384 620.037 407.250 619.768 L 430.500 619.500 431.282 610.054 C 431.711 604.858, 431.838 600.020, 431.563 599.304 C 431.173 598.288, 426.314 598, 409.578 598 L 388.094 598 387.053 601.750 M 448.686 598.648 C 448.309 599.025, 448 599.965, 448 600.738 C 448 601.874, 448.301 601.842, 449.571 600.571 C 450.889 599.254, 454.190 599, 469.990 599 C 480.355 599, 489.548 599.273, 490.418 599.607 C 491.705 600.101, 492 601.964, 492 609.607 L 492 619 469.420 619 L 446.841 619 447.403 612.250 C 447.869 606.658, 447.788 606.074, 446.928 608.850 C 446.358 610.692, 446.028 613.842, 446.196 615.850 L 446.500 619.500 469.500 619.500 L 492.500 619.500 492.500 609 L 492.500 598.500 470.936 598.231 C 459.075 598.083, 449.063 598.271, 448.686 598.648 M 507.100 599.380 C 506.331 600.306, 506.023 604.045, 506.211 610.149 L 506.500 619.500 529.750 619.768 L 553 620.037 552.912 615.768 C 552.864 613.421, 552.439 609.250, 551.967 606.500 C 551.294 602.571, 551.217 603.379, 551.609 610.269 L 552.107 619.039 529.804 618.769 L 507.500 618.500 507.208 610.153 C 507.023 604.859, 507.342 601.293, 508.080 600.403 C 509.678 598.478, 547.899 598.339, 549.925 600.250 C 550.994 601.259, 551.162 601.211, 550.792 600 C 550.125 597.814, 508.885 597.228, 507.100 599.380 M 567.433 599.314 C 567.155 600.037, 567.373 604.200, 567.917 608.564 L 568.905 616.500 568.491 608.342 C 568.151 601.651, 568.354 600.078, 569.620 599.592 C 570.469 599.267, 593.609 599, 621.043 599 L 670.923 599 671.886 602.750 C 672.415 604.813, 673.055 607.400, 673.308 608.500 C 673.646 609.969, 673.799 609.761, 673.884 607.718 C 673.948 606.188, 673.348 603.375, 672.551 601.468 L 671.102 598 619.520 598 C 577.830 598, 567.841 598.252, 567.433 599.314 M 686.470 599.049 C 685.913 599.950, 686.420 603.022, 689.559 617.750 L 690.038 620 713.019 620 C 725.659 620, 736 619.663, 736 619.250 C 736.001 618.837, 725.792 618.500, 713.314 618.500 L 690.627 618.500 688.894 609.509 C 687.591 602.751, 687.451 600.334, 688.330 599.775 C 688.974 599.365, 698.372 599.024, 709.215 599.015 C 731.405 598.998, 729.574 598.343, 732.564 607.365 C 733.771 611.008, 733.865 611.096, 733.356 608.107 C 733.038 606.240, 732.147 603.203, 731.376 601.357 L 729.973 598 708.546 598 C 694.669 598, 686.890 598.370, 686.470 599.049 M 745.667 598.667 C 744.381 599.952, 745.014 601.233, 746.377 600.102 C 747.338 599.305, 754.187 599.041, 769.057 599.230 L 790.360 599.500 794.180 608.928 C 796.281 614.114, 798 618.501, 798 618.678 C 798 618.855, 787.930 619, 775.622 619 L 753.244 619 750.932 612.819 C 749.661 609.419, 748.462 607.114, 748.268 607.695 C 748.074 608.277, 749.035 611.283, 750.403 614.376 L 752.890 620 775.386 620 C 788.090 620, 798.131 619.597, 798.454 619.075 C 798.768 618.566, 798.514 616.879, 797.888 615.325 C 797.263 613.771, 796.305 611.375, 795.759 610 C 795.213 608.625, 794.369 606.719, 793.883 605.764 C 793.397 604.809, 793 603.416, 793 602.669 C 793 601.921, 792.177 600.565, 791.171 599.655 C 789.589 598.223, 786.445 598, 767.838 598 C 756.010 598, 746.033 598.300, 745.667 598.667 M 248.281 613.226 L 246.277 618.500 223.638 618.500 C 211.187 618.500, 200.999 618.837, 201 619.250 C 201 619.663, 211.070 620, 223.378 620 C 240.099 620, 245.999 619.684, 246.719 618.750 C 248.054 617.020, 251.173 608.840, 250.685 608.351 C 250.465 608.132, 249.384 610.326, 248.281 613.226 M 325.665 609.107 C 325.454 609.873, 324.724 612.232, 324.041 614.349 C 323.284 616.693, 323.159 618.559, 323.719 619.119 C 324.241 619.641, 334.338 619.923, 347.056 619.770 C 367.662 619.522, 369.487 619.357, 369.635 617.730 C 369.748 616.492, 369.655 616.417, 369.325 617.480 C 368.921 618.781, 365.617 619, 346.427 619 C 334.092 619, 324.007 618.663, 324.015 618.250 C 324.023 617.837, 324.715 615.530, 325.554 613.122 C 326.392 610.715, 326.846 608.513, 326.563 608.229 C 326.279 607.946, 325.875 608.341, 325.665 609.107 M 674.546 614.750 L 675.176 619 622.671 619 C 581.603 619, 570.057 618.728, 569.662 617.750 C 569.362 617.007, 569.126 617.213, 569.079 618.259 C 569.004 619.919, 571.978 620.003, 622.250 619.759 L 675.500 619.500 675.814 616.776 C 675.987 615.277, 675.630 613.252, 675.022 612.276 C 674.155 610.883, 674.052 611.417, 674.546 614.750 M 263.607 614.582 C 263.273 615.452, 263 617.035, 263 618.100 C 263 619.968, 263.828 620.027, 286.250 619.768 L 309.500 619.500 309.673 616 C 309.841 612.593, 309.827 612.580, 309.164 615.500 L 308.482 618.500 286.112 618.769 L 263.742 619.039 264.346 616.019 C 264.995 612.776, 264.597 612.002, 263.607 614.582 M 196.926 628.695 C 196.362 630.177, 194.560 634.288, 192.920 637.831 C 191.280 641.373, 190.100 644.433, 190.297 644.630 C 190.494 644.827, 192.514 640.941, 194.786 635.994 L 198.918 627 252.375 627 C 294.206 627, 305.943 627.272, 306.338 628.250 C 306.639 628.997, 306.874 628.795, 306.921 627.750 C 306.995 626.104, 303.767 626, 252.475 626 L 197.950 626 196.926 628.695 M 320.607 627.582 C 320.273 628.452, 320.036 629.914, 320.079 630.832 C 320.124 631.784, 320.589 631.319, 321.162 629.750 L 322.167 627 344.083 627 L 366 627 366 629.924 C 366 631.532, 365.508 635.244, 364.907 638.174 C 364.307 641.103, 363.619 644.528, 363.380 645.785 L 362.944 648.070 339.471 647.785 C 326.561 647.628, 315.999 647.837, 315.999 648.250 C 316 648.663, 326.791 649, 339.981 649 L 363.962 649 364.416 646.750 C 364.666 645.513, 365.164 642.700, 365.522 640.500 C 365.881 638.300, 366.536 634.475, 366.977 632 C 367.419 629.525, 367.578 627.163, 367.331 626.750 C 367.084 626.337, 356.607 626, 344.048 626 C 324.149 626, 321.136 626.203, 320.607 627.582 M 383.098 629.149 C 382.494 630.881, 382.043 633.469, 382.096 634.899 C 382.157 636.555, 382.614 635.683, 383.352 632.500 L 384.513 627.500 406.818 627.231 L 429.124 626.961 428.432 636.731 C 428.051 642.104, 427.547 646.837, 427.311 647.250 C 427.075 647.663, 416.507 648, 403.827 648 L 380.773 648 381.428 643.250 C 381.895 639.864, 381.788 638.931, 381.057 640 C 380.492 640.825, 380.024 643.188, 380.015 645.250 L 380 649 403.941 649 C 417.109 649, 428.076 648.663, 428.312 648.250 C 428.549 647.837, 429.055 642.663, 429.438 636.750 L 430.134 626 407.165 626 L 384.196 626 383.098 629.149 M 446.116 628.232 C 446.204 629.955, 446.343 630.075, 446.693 628.731 C 447.119 627.096, 448.830 626.982, 469.327 627.231 L 491.500 627.500 491.785 637.750 L 492.070 648 468.433 648 L 444.797 648 445.363 640.750 C 445.725 636.110, 445.618 634.400, 445.064 636 C 444.589 637.375, 444.155 640.871, 444.100 643.768 L 444 649.036 468.250 648.768 L 492.500 648.500 492.500 637.500 L 492.500 626.500 469.250 626.232 L 446 625.963 446.116 628.232 M 506.430 627.321 C 506.151 628.048, 506.053 633.110, 506.212 638.571 L 506.500 648.500 530.750 648.768 L 555 649.036 554.882 643.268 C 554.817 640.096, 554.391 636.150, 553.937 634.500 C 553.423 632.637, 553.318 634.627, 553.659 639.750 L 554.208 648 530.569 648 L 506.930 648 507.215 637.750 L 507.500 627.500 530.250 627.500 C 542.763 627.500, 553.001 627.163, 553 626.750 C 553 626.337, 542.636 626, 529.969 626 C 511.804 626, 506.830 626.279, 506.430 627.321 M 569.534 636.250 C 569.879 641.888, 570.335 647.063, 570.549 647.750 C 570.845 648.705, 576.617 649, 594.969 649 C 608.186 649, 619 648.663, 619.001 648.250 C 619.001 647.837, 608.418 647.628, 595.483 647.785 C 577 648.010, 571.879 647.795, 571.566 646.785 C 571.347 646.078, 570.910 641.337, 570.595 636.250 L 570.022 627 592.403 627 L 614.784 627 615.774 631.750 C 616.443 634.962, 616.802 635.631, 616.882 633.815 C 616.947 632.338, 616.561 629.976, 616.025 628.565 L 615.050 626 591.979 626 L 568.908 626 569.534 636.250 M 631.717 626.750 C 631.496 627.163, 631.649 628.625, 632.058 630 L 632.801 632.500 632.900 629.731 L 633 626.962 655.205 627.231 L 677.410 627.500 679.107 633 C 680.040 636.025, 680.848 638.019, 680.902 637.432 C 680.956 636.844, 680.308 634.031, 679.461 631.182 L 677.923 626 655.020 626 C 642.424 626, 631.937 626.337, 631.717 626.750 M 691.999 626.750 C 691.999 627.163, 702.573 627.364, 715.497 627.199 L 738.996 626.897 739.963 629.199 C 740.494 630.464, 741.833 634.425, 742.937 638 C 744.041 641.575, 744.696 642.925, 744.390 641 C 743.822 637.415, 742.405 632.249, 740.894 628.250 C 740.044 626.003, 740.014 626, 716.021 626 C 702.810 626, 692 626.337, 691.999 626.750 M 755 628.441 C 755 629.784, 755.385 631.120, 755.856 631.411 C 756.326 631.702, 756.499 630.828, 756.239 629.470 L 755.767 627 777.937 627 L 800.107 627 804.553 636.452 C 806.999 641.650, 809 646.375, 809 646.952 C 809 647.652, 801.361 648, 785.968 648 C 763.017 648, 762.932 647.992, 762.031 645.750 C 761.534 644.513, 761.098 644.026, 761.063 644.668 C 760.831 648.959, 761.069 649, 786.048 649 C 799.157 649, 810.081 648.663, 810.325 648.250 C 810.568 647.837, 809.718 645.250, 808.436 642.500 C 807.153 639.750, 804.943 634.913, 803.523 631.750 L 800.941 626 777.971 626 L 755 626 755 628.441 M 633.566 638.500 C 633.846 641.250, 634.319 644.737, 634.617 646.250 L 635.159 649 659.020 649 C 672.144 649, 683.091 648.663, 683.347 648.250 C 683.602 647.837, 673.077 647.628, 659.957 647.784 L 636.104 648.069 635.492 644.284 C 635.155 642.203, 634.470 638.925, 633.968 637 C 633.168 633.932, 633.119 634.117, 633.566 638.500 M 301.961 642.632 L 300.500 647.500 245.564 647.759 C 202.278 647.962, 190.459 647.750, 189.830 646.759 C 189.256 645.855, 189.026 645.995, 189.015 647.258 C 189.001 648.918, 192.139 649.002, 245.206 648.758 L 301.412 648.500 302.711 644.014 C 303.425 641.547, 303.877 639.131, 303.715 638.646 C 303.554 638.161, 302.764 639.954, 301.961 642.632 M 697.226 646.500 C 697.516 648.428, 698.397 648.510, 721.763 648.768 L 746 649.036 745.884 646.768 C 745.797 645.074, 745.652 644.943, 745.311 646.250 C 744.892 647.852, 742.923 648, 721.976 648 C 701.269 648, 698.996 647.834, 698.013 646.250 C 697.020 644.650, 696.952 644.672, 697.226 646.500 M 183.183 659.250 C 179.843 666.853, 178.722 670.055, 179.224 670.557 C 179.495 670.828, 181.009 667.663, 182.589 663.525 L 185.462 656 208.750 656 L 232.038 656 231.438 658.750 C 230.976 660.868, 231.083 661.155, 231.904 660 C 232.490 659.175, 232.976 657.712, 232.985 656.750 C 232.999 655.132, 231.197 655, 209.025 655 L 185.050 655 183.183 659.250 M 248.521 656.250 C 246.890 661.152, 245.074 668.407, 245.398 668.731 C 245.613 668.946, 246.671 666.282, 247.750 662.811 L 249.711 656.500 272.986 656.231 L 296.262 655.962 295.617 660.231 C 295.164 663.227, 295.269 664.053, 295.970 663 C 296.520 662.175, 296.976 660.038, 296.985 658.250 L 297 655 272.969 655 C 254.632 655, 248.839 655.296, 248.521 656.250 M 313.199 656.732 C 312.056 659, 308.670 675.003, 309.217 675.550 C 309.445 675.778, 310.419 672.260, 311.383 667.732 C 312.347 663.204, 313.491 658.825, 313.926 658 C 314.586 656.748, 318.399 656.455, 336.982 656.231 C 353.832 656.027, 359.622 656.270, 360.787 657.231 C 362.060 658.281, 362.240 658.241, 361.830 657 C 361.411 655.733, 357.661 655.458, 337.712 655.232 C 315.969 654.985, 314.019 655.105, 313.199 656.732 M 377.330 659.750 C 376.894 662.362, 376.529 668.550, 376.519 673.500 L 376.500 682.500 398.780 682.769 C 413.007 682.941, 421.772 682.657, 423.030 681.984 C 424.429 681.235, 424.954 679.997, 424.840 677.715 L 424.680 674.500 424.277 677.750 L 423.873 681 401.437 681 C 389.096 681, 378.663 680.987, 378.250 680.971 C 377.396 680.937, 377.581 664.172, 378.490 659.250 L 379.091 656 402.979 656 L 426.867 656 427.284 658.750 C 427.671 661.310, 427.711 661.275, 427.850 658.250 L 428 655 403.061 655 L 378.123 655 377.330 659.750 M 442.667 655.667 C 442.300 656.033, 442 662.060, 442 669.060 C 442 679.742, 442.254 681.884, 443.582 682.393 C 444.452 682.727, 454.765 683, 466.500 683 C 478.235 683, 488.548 682.727, 489.418 682.393 C 490.613 681.935, 490.956 680.526, 490.820 676.643 L 490.640 671.500 490.265 676.250 L 489.890 681 467.445 681 C 455.100 681, 444.663 681.001, 444.250 681.003 C 443.837 681.005, 443.374 675.372, 443.220 668.485 L 442.940 655.964 467.220 656.232 L 491.500 656.500 491.330 663.500 L 491.160 670.500 492.211 664.312 C 493.901 654.366, 495.569 655, 467.698 655 C 454.297 655, 443.033 655.300, 442.667 655.667 M 506.383 656.444 C 506.078 657.239, 506.317 661.037, 506.914 664.886 C 507.511 668.734, 508 674.151, 508 676.923 C 508 681.318, 508.287 682.032, 510.250 682.513 C 511.488 682.817, 522.400 682.938, 534.500 682.783 L 556.500 682.500 556.778 668.750 L 557.056 655 531.997 655 C 511.073 655, 506.846 655.238, 506.383 656.444 M 571.627 662.250 C 571.979 666.237, 572.653 670.175, 573.124 671 C 573.620 671.867, 573.698 669.968, 573.309 666.500 C 572.046 655.250, 569.116 656.500, 596.750 656.500 C 610.088 656.500, 621.001 656.163, 621 655.750 C 621 655.337, 609.747 655, 595.993 655 L 570.986 655 571.627 662.250 M 702 658.423 C 702 660.326, 702.479 662.178, 703.064 662.539 C 703.785 662.985, 703.909 662.031, 703.449 659.580 L 702.770 655.963 726.101 656.231 L 749.431 656.500 752.402 665.939 C 754.037 671.131, 755.511 674.956, 755.679 674.439 C 755.847 673.923, 754.695 669.450, 753.118 664.500 L 750.252 655.500 726.126 655.232 L 702 654.964 702 658.423 M 766.343 656.549 C 766.008 657.421, 766.282 658.667, 766.951 659.317 C 767.896 660.237, 768.093 660.055, 767.834 658.500 C 767.509 656.554, 768.129 656.493, 790.626 656.232 L 813.753 655.964 815.782 661.232 C 816.897 664.129, 818.088 667.352, 818.429 668.393 C 818.769 669.434, 819.293 670.041, 819.593 669.741 C 819.893 669.441, 818.857 666.114, 817.291 662.348 L 814.444 655.500 790.698 655.232 C 769.784 654.996, 766.879 655.153, 766.343 656.549 M 507.833 656.980 C 507.650 657.518, 507.918 663.143, 508.428 669.480 L 509.357 681 531.678 681 C 543.955 681, 554.337 681.001, 554.750 681.003 C 555.163 681.005, 555.626 675.380, 555.780 668.503 L 556.060 656 532.113 656 C 517.374 656, 508.038 656.377, 507.833 656.980 M 638.015 662.250 C 638.024 665.138, 638.470 668.175, 639.006 669 C 639.663 670.011, 639.775 668.461, 639.348 664.250 L 638.715 658 661.235 658 C 678.076 658, 683.995 658.315, 684.708 659.250 C 685.231 659.938, 686.927 665.797, 688.476 672.271 C 690.025 678.745, 691.511 683.823, 691.778 683.556 C 692.291 683.042, 689.389 670.107, 687.885 666.203 C 687.398 664.940, 687 662.892, 687 661.653 C 687 657.197, 685.911 657, 661.300 657 L 638 657 638.015 662.250 M 621.345 669.309 L 621.500 681.117 599.014 681.023 C 586.647 680.971, 576.217 680.607, 575.836 680.214 C 575.455 679.822, 574.958 677.925, 574.731 676 C 574.337 672.642, 574.314 672.671, 574.160 676.715 C 574.036 679.987, 574.441 681.166, 575.970 681.984 C 577.228 682.657, 585.993 682.941, 600.220 682.769 L 622.500 682.500 622.785 673.995 C 622.942 669.318, 622.647 663.693, 622.130 661.495 C 621.390 658.352, 621.222 660.018, 621.345 669.309 M 359.614 664.867 C 359.222 667.818, 359.114 670.447, 359.375 670.708 C 360.042 671.375, 361.304 662.411, 360.768 660.813 C 360.526 660.091, 360.007 661.915, 359.614 664.867 M 426.168 664.125 C 426.076 665.569, 425.763 668.269, 425.473 670.125 C 424.991 673.216, 425.037 673.293, 426.021 671.034 C 426.612 669.678, 426.924 666.978, 426.716 665.034 C 426.441 662.481, 426.290 662.228, 426.168 664.125 M 226.362 674.917 L 224.557 681 200.278 681 C 186.925 681, 176 680.830, 176 680.622 C 176 680.414, 176.701 678.566, 177.559 676.514 C 178.416 674.462, 178.876 672.543, 178.582 672.249 C 178.288 671.955, 177.771 672.566, 177.433 673.607 C 177.095 674.648, 176.350 676.482, 175.776 677.683 C 175.203 678.883, 175.005 680.570, 175.336 681.433 C 175.858 682.794, 179.007 683, 199.277 683 C 216.441 683, 223.035 682.669, 224.196 681.750 C 225.871 680.424, 229.563 670.229, 228.686 669.353 C 228.401 669.068, 227.356 671.572, 226.362 674.917 M 640.189 675 C 640.162 676.925, 640.527 679.400, 641 680.500 C 641.780 682.315, 641.855 682.268, 641.811 680 C 641.785 678.625, 641.420 676.150, 641 674.500 L 640.237 671.500 640.189 675 M 358 675.566 C 358 681.625, 358.439 681.527, 332.600 681.215 C 309.014 680.930, 309 680.928, 308.930 678.715 C 308.863 676.598, 308.824 676.589, 308.053 678.500 C 306.358 682.707, 307.953 683, 332.551 683 C 358.504 683, 359 682.877, 359 676.429 C 359 674.543, 358.775 673, 358.500 673 C 358.225 673, 358 674.155, 358 675.566 M 706.524 676.905 C 707.413 683.105, 706.955 683, 733.154 683 C 753.861 683, 757.143 682.792, 757.660 681.445 C 757.988 680.589, 757.739 678.902, 757.107 677.695 C 756.027 675.631, 755.991 675.664, 756.498 678.250 L 757.038 681 733.519 681 C 720.584 681, 709.703 681.112, 709.340 681.250 C 708.977 681.388, 708.085 679.700, 707.358 677.500 C 706.089 673.662, 706.056 673.638, 706.524 676.905 M 772.655 677 C 773.563 682.978, 773.966 683.063, 799.952 682.768 C 821.955 682.517, 823.497 682.380, 823.831 680.644 C 824.027 679.623, 823.721 678.321, 823.150 677.750 C 822.433 677.033, 822.285 677.374, 822.673 678.856 L 823.233 681 798.793 681 L 774.353 681 773.238 677.250 L 772.124 673.500 772.655 677 M 291.443 677.905 C 290.925 679.690, 290.163 681.117, 289.750 681.075 C 289.337 681.034, 278.395 681, 265.433 681 L 241.865 681 242.438 678.750 C 243.005 676.522, 242.999 676.523, 241.819 678.826 C 240.855 680.707, 240.901 681.327, 242.063 682.071 C 242.861 682.581, 253.939 682.881, 266.987 682.745 L 290.474 682.500 291.809 679.715 C 292.543 678.183, 292.973 676.419, 292.765 675.795 C 292.557 675.171, 291.962 676.121, 291.443 677.905 M 642.218 686.500 C 642.208 688.150, 642.560 690.625, 643 692 L 643.801 694.500 643.782 692 C 643.772 690.625, 643.420 688.150, 643 686.500 L 642.237 683.500 642.218 686.500 M 172.865 689.750 C 171.317 691.626, 167.969 698.600, 168.048 699.784 C 168.075 700.178, 169.432 697.913, 171.064 694.750 L 174.032 689 197.316 689 C 214.092 689, 220.935 689.335, 221.800 690.200 C 222.733 691.133, 223 691.022, 223 689.700 C 223 688.147, 220.901 688, 198.655 688 C 176.686 688, 174.169 688.171, 172.865 689.750 M 238.566 691.250 C 236.632 695.736, 233.688 706.021, 234.194 706.527 C 234.422 706.755, 235.840 702.905, 237.346 697.971 L 240.083 689 264.041 689 L 288 689 288.030 691.750 C 288.057 694.160, 288.191 694.276, 289.114 692.689 C 291.715 688.217, 290.574 688, 264.515 688 L 239.968 688 238.566 691.250 M 305.670 688.663 C 305.302 689.032, 305.029 690.271, 305.063 691.417 C 305.124 693.417, 305.163 693.410, 306.031 691.250 L 306.936 689 432.388 689 L 557.841 689 558.576 695.750 C 558.980 699.462, 559.354 705.200, 559.406 708.500 L 559.500 714.500 430.500 714.500 L 301.500 714.500 301.759 711 C 301.902 709.075, 302.721 704.644, 303.580 701.154 C 304.439 697.664, 304.907 694.573, 304.619 694.286 C 304.332 693.999, 303.835 695.055, 303.514 696.632 C 303.193 698.209, 302.518 700.850, 302.013 702.500 C 301.508 704.150, 300.791 707.864, 300.418 710.754 L 299.741 716.007 430.121 715.754 L 560.500 715.500 560.750 710.500 C 560.887 707.750, 560.437 701.675, 559.750 697 L 558.500 688.500 432.420 688.246 C 363.077 688.107, 306.039 688.294, 305.670 688.663 M 575.667 688.667 C 575.300 689.033, 575.059 690.946, 575.132 692.917 L 575.263 696.500 575.882 693 L 576.500 689.500 600.217 689.232 L 623.933 688.964 624.877 692.232 C 625.561 694.603, 625.844 694.905, 625.910 693.332 C 626.137 687.879, 626.711 688, 600.560 688 C 587.235 688, 576.033 688.300, 575.667 688.667 M 710.484 693.732 C 710.879 696.905, 711.607 700.258, 712.101 701.184 C 712.596 702.111, 713 704.222, 713 705.875 C 713 707.529, 713.450 709.160, 714 709.500 C 715.349 710.334, 715.283 709.740, 713 700.500 C 709.843 687.722, 707.413 689, 734.879 689 L 758.757 689 759.816 691.750 C 760.398 693.263, 762.076 698.464, 763.545 703.309 C 765.013 708.154, 766.406 711.927, 766.641 711.693 C 766.875 711.458, 766.442 709.294, 765.678 706.883 C 764.913 704.472, 763.729 700.475, 763.046 698 C 762.363 695.525, 761.201 692.375, 760.465 691 L 759.127 688.500 734.446 688.232 L 709.765 687.965 710.484 693.732 M 776.556 688.910 C 776.002 689.805, 776.386 691.558, 778 695.500 C 778.450 696.600, 779.095 698.352, 779.433 699.393 C 779.771 700.434, 780.288 701.045, 780.582 700.751 C 780.876 700.457, 780.416 698.538, 779.559 696.486 C 776.237 688.536, 775.030 688.930, 801.750 689.232 L 825.500 689.500 829.191 697 C 833.891 706.552, 834.110 705.549, 829.502 695.573 L 826.004 688 801.561 688 C 787.961 688, 776.869 688.404, 776.556 688.910 M 694.027 694.500 C 694.025 695.050, 694.913 699.100, 696 703.500 C 699.159 716.286, 701.671 715, 673.535 715 C 645.387 715, 647.911 716.007, 646.067 704.042 C 645.435 699.940, 644.667 696.340, 644.362 696.042 C 643.541 695.241, 645.100 706.866, 646.435 711.500 L 647.587 715.500 673.180 715.767 C 701.141 716.058, 700.787 716.133, 699.025 710.323 C 698.554 708.770, 697.681 705.893, 697.084 703.929 C 696.488 701.965, 695.993 699.490, 695.985 698.429 C 695.976 697.368, 695.533 695.825, 695 695 C 694.467 694.175, 694.029 693.950, 694.027 694.500 M 626.176 698 C 626.143 699.375, 626.488 702.300, 626.943 704.500 L 627.770 708.500 627.767 705 C 627.765 703.075, 627.420 700.150, 627 698.500 C 626.305 695.767, 626.231 695.722, 626.176 698 M 164.572 706.435 C 159.883 716.688, 158.232 716, 187.536 716 L 213.071 716 214.891 711.750 C 215.892 709.413, 217.001 706.375, 217.357 705 C 217.712 703.625, 217.105 704.525, 216.006 707 C 214.908 709.475, 213.621 712.175, 213.146 713 C 212.423 714.258, 208.300 714.543, 187.642 714.767 C 159.723 715.071, 161.151 715.582, 165.567 706.867 C 166.979 704.081, 167.912 701.578, 167.640 701.306 C 167.368 701.034, 165.987 703.342, 164.572 706.435 M 576.193 707.128 C 576.059 711.724, 576.421 714.105, 577.374 714.895 C 578.341 715.698, 586.111 715.956, 603.624 715.768 L 628.500 715.500 628.696 712.500 C 628.879 709.706, 628.841 709.672, 628.152 712 L 627.411 714.500 603.580 714.768 C 587.306 714.952, 579.328 714.687, 578.420 713.934 C 577.664 713.306, 576.939 710.173, 576.738 706.665 L 576.385 700.500 576.193 707.128 M 781.068 702.461 C 781.030 702.989, 782.013 706.044, 783.250 709.251 C 784.747 713.130, 786.169 715.244, 787.500 715.572 C 788.600 715.842, 800.300 715.937, 813.500 715.782 C 836.857 715.508, 837.492 715.446, 837.193 713.500 C 836.770 710.738, 833.938 704.729, 833.341 705.326 C 833.072 705.594, 833.561 707.184, 834.426 708.857 C 837.711 715.210, 838.494 715, 811.464 715 L 786.929 715 784.949 710.250 C 781.909 702.958, 781.141 701.417, 781.068 702.461 M 232.607 709.582 C 232.273 710.452, 232 712.259, 232 713.599 L 232 716.034 257.667 715.767 C 279.454 715.540, 283.404 715.273, 283.792 714 C 284.162 712.789, 283.994 712.741, 282.925 713.750 C 281.940 714.680, 275.344 715, 257.189 715 L 232.777 715 233.434 711.500 C 234.115 707.870, 233.665 706.826, 232.607 709.582 M 715.173 713.500 C 715.514 715.431, 716.417 715.509, 741.263 715.767 C 755.418 715.914, 767 715.689, 767.001 715.267 C 767.001 714.845, 755.869 714.628, 742.263 714.785 C 719.493 715.047, 717.417 714.928, 716.172 713.285 C 714.897 711.602, 714.840 711.614, 715.173 713.500 M 435.472 736.765 C 434.411 737.524, 390.987 823.914, 390.995 825.250 C 390.998 825.663, 439.825 826, 499.500 826 C 571.487 826, 608 825.662, 608 824.996 C 608 824.443, 598.099 804.193, 585.998 779.996 L 563.996 736 500.248 736.015 C 465.186 736.024, 436.038 736.361, 435.472 736.765 M 32 864.514 C 32 868.646, 32.450 872.921, 33 874.014 C 33.550 875.106, 34.533 877.013, 35.184 878.250 C 35.835 879.487, 37.040 881.850, 37.862 883.500 C 40.082 887.957, 51.847 899.364, 57 902.056 C 59.475 903.349, 63.739 905.217, 66.475 906.208 C 71.241 907.934, 89.412 907.999, 501.475 907.755 C 819.561 907.566, 932.021 907.205, 933.500 906.367 C 934.600 905.744, 937.731 904.092, 940.457 902.697 C 955.696 894.896, 966.579 879.610, 967.730 864.385 L 968.289 857 500.144 857 L 32 857 32 864.514" stroke="none" fill="#ced6e0" fill-rule="evenodd"/><path d="M 160.986 583.500 C 159.733 586.435, 154.787 596.834, 141.724 624 C 138.153 631.425, 133.325 641.550, 130.993 646.500 C 128.662 651.450, 124.050 661.125, 120.744 668 C 113.040 684.023, 104.116 702.680, 97.783 716 C 95.038 721.775, 88.844 734.600, 84.020 744.500 C 79.195 754.400, 72.886 767.450, 69.999 773.500 C 67.112 779.550, 61.833 790.575, 58.269 798 C 54.705 805.425, 49.316 816.675, 46.295 823 C 43.274 829.325, 38.822 838.553, 36.401 843.508 C 33.980 848.462, 32 853.524, 32 854.758 L 32 857 500 857 C 848.897 857, 968 856.711, 968 855.863 C 968 855.238, 966.248 851.075, 964.108 846.613 C 961.967 842.151, 957.420 832.650, 954.004 825.500 C 950.589 818.350, 945.634 808, 942.993 802.500 C 940.353 797, 935.843 787.550, 932.971 781.500 C 930.099 775.450, 924.940 764.650, 921.507 757.500 C 918.074 750.350, 913.122 740, 910.504 734.500 C 907.885 729, 902.935 718.650, 899.504 711.500 C 896.072 704.350, 891.125 694, 888.509 688.500 C 885.894 683, 879.585 669.950, 874.490 659.500 C 869.395 649.050, 862.975 635.775, 860.223 630 C 851.780 612.283, 842.458 592.806, 839.405 586.500 L 836.500 580.500 499.383 580.500 L 162.267 580.500 160.986 583.500 M 207.779 600.250 C 205.828 603.276, 201 616.110, 201 618.271 C 201 619.858, 202.837 620, 223.378 620 C 240.091 620, 246.003 619.684, 246.734 618.750 C 248.035 617.089, 254 601.216, 254 599.415 C 254 598.237, 250.245 598, 231.615 598 C 209.497 598, 209.213 598.027, 207.779 600.250 M 268.192 600.750 C 267.613 602.263, 266.601 605.300, 265.942 607.500 C 265.283 609.700, 264.352 612.534, 263.872 613.797 C 263.392 615.060, 263 616.981, 263 618.065 C 263 619.978, 263.688 620.029, 286.250 619.768 L 309.500 619.500 310.198 615.500 C 310.581 613.300, 311.379 608.886, 311.971 605.692 C 312.562 602.497, 312.784 599.460, 312.464 598.942 C 312.129 598.400, 302.817 598, 290.562 598 L 269.243 598 268.192 600.750 M 328.536 600.931 C 327.691 602.564, 327 604.604, 327 605.464 C 327 606.324, 326.605 607.809, 326.123 608.764 C 324.110 612.748, 322.836 618.236, 323.719 619.119 C 324.241 619.641, 334.327 619.923, 347.029 619.770 L 369.419 619.500 370.279 616 C 371.322 611.759, 372.967 603.246, 373.276 600.500 C 373.493 598.562, 372.829 598.492, 351.786 598.231 L 330.071 597.961 328.536 600.931 M 387.614 599.750 C 386.226 604.414, 384 615.397, 384 617.580 L 384 620.037 407.250 619.768 L 430.500 619.500 431.282 610.054 C 431.711 604.858, 431.838 600.020, 431.563 599.304 C 431.173 598.288, 426.318 598, 409.599 598 C 390.022 598, 388.089 598.154, 387.614 599.750 M 448.580 599.230 C 447.450 603.085, 445.835 614.854, 446.142 617 L 446.500 619.500 469.500 619.500 L 492.500 619.500 492.500 609 L 492.500 598.500 470.726 598.230 C 453.805 598.021, 448.869 598.244, 448.580 599.230 M 507.084 599.399 C 506.334 600.302, 506.025 604.114, 506.211 610.149 L 506.500 619.500 529.889 619.769 L 553.278 620.038 552.579 611.427 C 552.195 606.691, 551.469 601.733, 550.965 600.408 L 550.050 598 529.147 598 C 512.456 598, 508.011 598.282, 507.084 599.399 M 567.467 599.053 C 566.858 600.038, 567.371 607.616, 568.631 616.259 L 569.179 620.017 622.339 619.759 L 675.500 619.500 675.335 616 C 675.100 611.018, 673.336 602.496, 672.036 600.067 C 670.940 598.019, 670.458 598, 619.524 598 C 584.596 598, 567.909 598.338, 567.467 599.053 M 686.470 599.049 C 685.913 599.950, 686.420 603.022, 689.559 617.750 L 690.038 620 713.128 620 L 736.219 620 735.716 616.750 C 735.159 613.158, 732.831 605.017, 731.140 600.750 L 730.050 598 708.584 598 C 694.681 598, 686.890 598.370, 686.470 599.049 M 745.556 598.910 C 744.832 600.080, 745.056 600.787, 750.180 613.500 L 752.598 619.500 774.979 619.770 C 787.289 619.918, 797.751 619.649, 798.228 619.172 C 798.718 618.682, 798.586 617.041, 797.923 615.402 C 797.279 613.806, 796.305 611.375, 795.759 610 C 795.213 608.625, 794.369 606.719, 793.883 605.764 C 793.397 604.809, 793 603.416, 793 602.669 C 793 601.921, 792.177 600.565, 791.171 599.655 C 789.588 598.222, 786.437 598, 767.730 598 C 755.830 598, 745.865 598.409, 745.556 598.910 M 196.926 628.695 C 196.362 630.177, 194.575 634.255, 192.954 637.757 C 191.333 641.260, 189.730 645.226, 189.393 646.571 L 188.779 649.017 245.104 648.758 L 301.430 648.500 303.647 640.518 C 304.867 636.129, 306.140 631.066, 306.477 629.268 L 307.091 626 252.521 626 L 197.950 626 196.926 628.695 M 320.450 628.750 C 320.126 630.263, 319.443 632.534, 318.931 633.797 C 318.419 635.060, 318 637.171, 318 638.488 C 318 639.805, 317.550 641.160, 317 641.500 C 316.450 641.840, 316 643.666, 316 645.559 L 316 649 339.981 649 L 363.962 649 364.416 646.750 C 364.666 645.513, 365.164 642.700, 365.522 640.500 C 365.881 638.300, 366.536 634.475, 366.977 632 C 367.419 629.525, 367.578 627.163, 367.331 626.750 C 367.084 626.337, 356.567 626, 343.960 626 L 321.038 626 320.450 628.750 M 383.513 627.750 C 382.746 629.666, 381.175 638.062, 380.334 644.750 L 379.799 649 403.840 649 C 417.063 649, 428.076 648.663, 428.312 648.250 C 428.549 647.837, 429.055 642.663, 429.438 636.750 L 430.134 626 407.174 626 C 386.241 626, 384.152 626.155, 383.513 627.750 M 445.581 631.232 C 445.208 634.129, 444.647 639.321, 444.334 642.768 L 443.765 649.036 468.132 648.768 L 492.500 648.500 492.500 637.500 L 492.500 626.500 469.379 626.232 L 446.258 625.964 445.581 631.232 M 506.430 627.321 C 506.151 628.048, 506.053 633.110, 506.212 638.571 L 506.500 648.500 530.750 648.768 L 555 649.036 555 644.536 C 555 642.062, 554.458 636.879, 553.796 633.019 L 552.593 626 529.765 626 C 511.769 626, 506.830 626.280, 506.430 627.321 M 569.534 636.250 C 569.879 641.888, 570.335 647.063, 570.549 647.750 C 570.846 648.705, 576.643 649, 595.096 649 L 619.254 649 618.647 644.250 C 617.523 635.473, 616.193 628.121, 615.535 627.056 C 615.107 626.364, 606.960 626, 591.895 626 L 568.908 626 569.534 636.250 M 631.882 626.750 C 631.816 627.163, 631.800 627.788, 631.845 628.139 C 632.064 629.857, 634.062 642.895, 634.546 645.768 L 635.097 649.035 659.299 648.768 C 686.460 648.467, 684.255 649.221, 682.020 641 C 681.497 639.075, 680.366 634.913, 679.506 631.750 L 677.944 626 654.972 626 C 642.337 626, 631.947 626.337, 631.882 626.750 M 692.609 629.250 C 692.917 631.038, 693.529 633.625, 693.968 635 C 694.408 636.375, 695.323 639.525, 696.002 642 C 696.681 644.475, 697.394 647.063, 697.587 647.750 C 697.855 648.706, 703.597 649, 721.969 649 C 740.546 649, 745.992 648.716, 745.964 647.750 C 745.933 646.646, 745.268 643.852, 742.067 631.368 C 741.625 629.645, 740.953 627.733, 740.573 627.118 C 740.095 626.344, 732.513 626, 715.966 626 L 692.050 626 692.609 629.250 M 755 628.441 C 755 629.784, 755.450 631.160, 756 631.500 C 756.550 631.840, 757 632.998, 757 634.073 C 757 635.148, 757.397 636.809, 757.883 637.764 C 759.311 640.570, 760.828 644.334, 761.505 646.750 L 762.135 649 786.008 649 C 799.139 649, 810.081 648.663, 810.325 648.250 C 810.568 647.837, 809.718 645.250, 808.436 642.500 C 807.153 639.750, 804.943 634.913, 803.523 631.750 L 800.941 626 777.971 626 L 755 626 755 628.441 M 183.183 659.250 C 182.156 661.587, 180.749 665.075, 180.057 667 C 178.081 672.495, 177.360 674.305, 176.001 677.183 C 173.301 682.901, 173.697 683, 199.277 683 C 216.411 683, 223.053 682.668, 224.253 681.750 C 225.615 680.709, 230.893 665.453, 232.729 657.250 L 233.233 655 209.142 655 L 185.050 655 183.183 659.250 M 248.533 656.250 C 248.311 656.938, 246.954 661.550, 245.517 666.500 C 244.080 671.450, 242.405 676.779, 241.793 678.342 C 240.908 680.604, 240.969 681.367, 242.090 682.077 C 244.408 683.544, 289.555 683.241, 290.792 681.750 C 291.362 681.063, 292.586 677.125, 293.512 673 C 294.438 668.875, 295.601 664.466, 296.098 663.203 C 296.594 661.940, 297 659.577, 297 657.953 L 297 655 272.969 655 C 254.626 655, 248.842 655.296, 248.533 656.250 M 313.015 657.250 C 312.497 658.487, 311.134 663.985, 309.986 669.468 C 308.838 674.950, 307.700 679.633, 307.458 679.876 C 307.216 680.118, 307.519 680.920, 308.131 681.658 C 309.005 682.711, 314.230 682.997, 332.372 682.985 C 345.093 682.976, 356.141 682.564, 356.924 682.068 C 357.715 681.568, 358.715 678.464, 359.174 675.084 C 359.628 671.738, 360.392 666.188, 360.871 662.750 C 361.350 659.313, 361.548 656.163, 361.312 655.750 C 361.075 655.337, 350.324 655, 337.420 655 C 314.034 655, 313.954 655.007, 313.015 657.250 M 377.330 659.750 C 376.894 662.362, 376.529 668.550, 376.519 673.500 L 376.500 682.500 398.780 682.769 C 413.007 682.941, 421.772 682.657, 423.030 681.984 C 424.397 681.252, 425 679.889, 425 677.530 C 425 675.660, 425.388 673.088, 425.862 671.815 C 426.336 670.542, 427.039 666.237, 427.423 662.250 L 428.121 655 403.122 655 L 378.123 655 377.330 659.750 M 442.684 655.650 C 442.308 656.026, 442 662.060, 442 669.060 C 442 679.742, 442.254 681.884, 443.582 682.393 C 445.846 683.262, 488.281 683.116, 489.598 682.235 C 490.654 681.528, 492.185 669.367, 492.398 660 L 492.500 655.500 467.934 655.233 C 454.422 655.086, 443.060 655.274, 442.684 655.650 M 506.383 656.444 C 506.078 657.239, 506.317 661.037, 506.914 664.886 C 507.511 668.734, 508 674.151, 508 676.923 C 508 681.318, 508.287 682.032, 510.250 682.513 C 511.488 682.817, 522.400 682.938, 534.500 682.783 L 556.500 682.500 556.778 668.750 L 557.056 655 531.997 655 C 511.073 655, 506.846 655.238, 506.383 656.444 M 571.630 662.250 C 571.984 666.237, 572.662 670.258, 573.137 671.184 C 573.612 672.111, 574 674.682, 574 676.899 C 574 679.886, 574.510 681.203, 575.970 681.984 C 577.228 682.657, 585.993 682.941, 600.220 682.769 L 622.500 682.500 622.793 674.114 C 622.954 669.502, 622.584 663.314, 621.972 660.364 L 620.858 655 595.922 655 L 570.986 655 571.630 662.250 M 702 658.423 C 702 660.326, 702.402 662.131, 702.894 662.435 C 703.386 662.739, 704.023 664.678, 704.310 666.744 C 705.250 673.525, 706.973 680.262, 708.119 681.643 C 709.781 683.646, 756.819 683.634, 757.588 681.630 C 758.048 680.432, 756.712 675.577, 751.500 659.500 L 750.203 655.500 726.101 655.232 L 702 654.964 702 658.423 M 766.452 656.077 C 766.074 656.690, 766.216 658.160, 766.769 659.345 C 768.249 662.519, 773 677.912, 773 679.534 C 773 682.484, 777.015 683, 799.966 683 C 820.016 683, 823.142 682.793, 823.664 681.433 C 823.995 680.570, 823.803 678.883, 823.237 677.683 C 822.671 676.482, 820.474 671, 818.354 665.500 L 814.500 655.500 790.820 655.232 C 774.240 655.044, 766.934 655.298, 766.452 656.077 M 638.345 662.750 C 638.633 665.913, 639.307 670.975, 639.842 674 C 642.426 688.604, 643.033 692.182, 644.448 701.147 C 645.286 706.453, 646.417 711.965, 646.961 713.397 L 647.950 716 673.368 716 C 701.078 716, 700.790 716.064, 699.002 710.323 C 698.519 708.770, 697.645 705.587, 697.062 703.250 C 694.961 694.841, 693.984 690.938, 693.058 687.250 C 692.539 685.188, 691.363 680.125, 690.443 676 C 689.523 671.875, 688.372 667.466, 687.885 666.203 C 687.398 664.940, 687 662.892, 687 661.653 C 687 657.196, 685.916 657, 661.211 657 L 637.822 657 638.345 662.750 M 172.655 689.829 C 171.745 690.835, 171 691.947, 171 692.301 C 171 692.654, 168.975 697.220, 166.500 702.446 C 159.460 717.311, 157.500 716.080, 187.719 715.767 L 213.438 715.500 216.789 706.500 C 218.632 701.550, 220.501 696.810, 220.943 695.967 C 221.384 695.124, 222.064 692.987, 222.452 691.217 L 223.159 688 198.734 688 C 176.342 688, 174.172 688.152, 172.655 689.829 M 238.575 691.233 C 237.799 693.030, 236.422 697.200, 235.515 700.500 C 234.607 703.800, 233.445 707.534, 232.932 708.797 C 232.420 710.060, 232 712.206, 232 713.564 L 232 716.034 257.679 715.767 L 283.357 715.500 284.261 712.500 C 285.990 706.756, 288.933 693.882, 289.289 690.500 C 289.494 688.555, 288.825 688.493, 264.742 688.233 L 239.984 687.965 238.575 691.233 M 305.588 689.246 C 305.394 689.936, 304.702 692.525, 304.050 695 C 303.398 697.475, 302.466 700.850, 301.980 702.500 C 301.494 704.150, 300.791 707.864, 300.418 710.754 L 299.741 716.007 430.121 715.754 L 560.500 715.500 560.750 710.500 C 560.887 707.750, 560.437 701.675, 559.750 697 L 558.500 688.500 432.220 688.246 C 331.670 688.044, 305.868 688.248, 305.588 689.246 M 575.722 688.612 C 574.752 689.582, 576.161 713.361, 577.272 714.767 C 578.043 715.742, 584.051 715.972, 603.386 715.767 L 628.500 715.500 628.219 709.500 C 627.972 704.236, 627.029 697.694, 625.442 690.250 L 624.962 688 600.648 688 C 587.275 688, 576.058 688.275, 575.722 688.612 M 710.484 693.732 C 710.879 696.905, 711.607 700.258, 712.101 701.184 C 712.596 702.111, 713 704.158, 713 705.734 C 713 707.310, 713.412 709.027, 713.915 709.550 C 714.419 710.072, 714.981 711.625, 715.165 713 L 715.500 715.500 741.250 715.767 L 767 716.034 767 713.552 C 767 712.187, 766.390 709.142, 765.644 706.785 C 764.898 704.428, 763.729 700.475, 763.046 698 C 762.363 695.525, 761.201 692.375, 760.465 691 L 759.127 688.500 734.446 688.232 L 709.765 687.965 710.484 693.732 M 776.556 688.910 C 775.871 690.018, 776.247 691.283, 779.922 700.250 C 780.430 701.487, 781.892 705.330, 783.172 708.790 C 784.768 713.103, 786.129 715.235, 787.500 715.572 C 788.600 715.842, 800.300 715.937, 813.500 715.782 C 840.843 715.461, 839.121 716.221, 834.519 706.500 C 833.217 703.750, 830.773 698.462, 829.088 694.750 L 826.023 688 801.570 688 C 787.965 688, 776.869 688.404, 776.556 688.910 M 435.472 736.765 C 434.411 737.524, 390.987 823.914, 390.995 825.250 C 390.998 825.663, 439.825 826, 499.500 826 C 571.487 826, 608 825.662, 608 824.996 C 608 824.443, 598.099 804.193, 585.998 779.996 L 563.996 736 500.248 736.015 C 465.186 736.024, 436.038 736.361, 435.472 736.765" stroke="none" fill="#f3f3f3" fill-rule="evenodd"/><path d="M 193 92.651 C 180.351 96.813, 170.197 106.905, 164.979 120.500 C 162.163 127.837, 162 140.753, 162 356.743 C 162 541.406, 162.223 577.940, 163.354 578.879 C 164.352 579.707, 253.124 579.937, 500.604 579.751 L 836.500 579.500 836.807 357.500 C 837.043 186.532, 836.834 133.891, 835.897 128.500 C 833.272 113.391, 824.965 101.778, 812.110 95.247 L 805.719 92 500.110 92.079 C 332.024 92.122, 193.825 92.380, 193 92.651 M 205 337 L 205 541 499.500 541 L 794 541 794 337 L 794 133 499.500 133 L 205 133 205 337 M 207.696 603.250 C 205.761 607.353, 202.001 617.256, 202.001 618.250 C 202 618.663, 211.620 619, 223.378 619 C 239.291 619, 245.005 618.680, 245.734 617.750 C 246.958 616.188, 252 602.893, 252 601.229 C 252 600.295, 246.859 600, 230.614 600 L 209.228 600 207.696 603.250 M 269.130 601.758 C 268.612 602.725, 267.501 605.987, 266.660 609.008 C 265.820 612.029, 264.825 615.513, 264.449 616.750 L 263.767 619 285.261 619 C 301.254 619, 307.012 618.680, 307.759 617.750 C 308.311 617.063, 309.037 614.700, 309.371 612.500 C 309.706 610.300, 310.268 606.587, 310.620 604.250 L 311.260 600 290.665 600 C 272.040 600, 269.980 600.168, 269.130 601.758 M 328.189 606.250 C 327.097 609.688, 325.895 613.971, 325.518 615.770 L 324.832 619.039 346.638 618.770 L 368.443 618.500 370.161 610.056 C 371.106 605.413, 371.655 601.250, 371.380 600.806 C 371.106 600.363, 361.723 600, 350.528 600 L 330.173 600 328.189 606.250 M 388.519 601.230 C 388.056 602.587, 385 617.548, 385 618.458 C 385 618.756, 394.686 619, 406.525 619 L 428.050 619 428.923 616.702 C 429.404 615.438, 429.955 611.275, 430.149 607.452 L 430.500 600.500 409.726 600.230 C 393.631 600.020, 388.855 600.245, 388.519 601.230 M 448.311 608.750 C 447.754 613.563, 447.601 617.847, 447.970 618.270 C 448.339 618.694, 458.245 618.919, 469.983 618.770 L 491.326 618.500 491.201 610 C 491.132 605.325, 491.059 601.163, 491.038 600.750 C 491.017 600.337, 481.623 600, 470.161 600 L 449.322 600 448.311 608.750 M 508 609.520 L 508 619.039 529.750 618.770 L 551.500 618.500 551.234 613.500 C 551.087 610.750, 550.722 606.587, 550.422 604.250 L 549.877 600 528.939 600 L 508 600 508 609.520 M 569.254 608.595 C 569.549 613.323, 570.202 617.602, 570.704 618.104 C 571.239 618.639, 592.947 618.911, 623.059 618.759 C 668.090 618.532, 674.479 618.313, 674.333 617 C 674.072 614.665, 671.947 603.701, 671.377 601.750 C 670.898 600.113, 667.572 600, 619.792 600 L 568.718 600 569.254 608.595 M 688 601.750 C 688 604.203, 690.656 616.634, 691.456 617.930 C 692.213 619.153, 735 619.482, 735 618.265 C 735 617.860, 733.794 613.585, 732.319 608.765 L 729.638 600 708.819 600 C 689.656 600, 688 600.139, 688 601.750 M 747 601.384 C 747 602.167, 748.506 606.338, 750.348 610.653 L 753.695 618.500 775.348 618.770 C 792.341 618.981, 796.990 618.766, 796.953 617.770 C 796.928 617.071, 795.439 612.900, 793.646 608.500 L 790.386 600.500 768.693 600.230 C 750.473 600.004, 747 600.189, 747 601.384 M 199.232 628.250 C 198.258 629.451, 190 646.768, 190 647.608 C 190 647.833, 214.849 647.901, 245.220 647.758 L 300.439 647.500 302.697 639 C 303.938 634.325, 304.965 629.712, 304.977 628.750 C 304.999 627.105, 301.848 627, 252.622 627 C 211.927 627, 200.019 627.279, 199.232 628.250 M 322.515 627.976 C 321.680 629.327, 317.048 645.157, 317.021 646.750 C 316.994 648.332, 361.521 648.584, 362.495 647.008 C 363.290 645.721, 365.293 634.377, 365.410 630.500 L 365.500 627.500 344.321 627.230 C 330.768 627.058, 322.916 627.326, 322.515 627.976 M 384.625 628.731 C 384.338 629.704, 383.600 633.425, 382.985 637 C 382.370 640.575, 381.623 644.513, 381.325 645.750 L 380.783 648 403.804 648 L 426.824 648 427.381 644.250 C 427.687 642.188, 428.064 637.575, 428.219 634 L 428.500 627.500 406.824 627.231 C 386.818 626.982, 385.107 627.098, 384.625 628.731 M 447.688 627.750 C 447.452 628.163, 446.946 631.875, 446.564 636 C 446.182 640.125, 445.623 644.521, 445.322 645.769 L 444.774 648.037 468.018 647.769 L 491.262 647.500 491.196 638.250 C 491.160 633.163, 491.101 628.550, 491.065 628 C 490.989 626.825, 448.359 626.579, 447.688 627.750 M 508.667 627.667 C 508.300 628.033, 508 632.758, 508 638.167 L 508 648 531.088 648 L 554.176 648 553.619 644.250 C 553.313 642.188, 552.771 637.462, 552.414 633.750 L 551.767 627 530.550 627 C 518.881 627, 509.033 627.300, 508.667 627.667 M 571 632.841 C 571 636.075, 571.286 640.809, 571.636 643.360 L 572.272 648 595.197 648 L 618.123 648 617.479 643.750 C 617.125 641.413, 616.291 636.800, 615.627 633.500 L 614.419 627.500 592.710 627.230 L 571 626.961 571 632.841 M 633.515 627.976 C 632.981 628.840, 633.986 635.640, 635.958 644.500 L 636.626 647.500 659.313 647.769 C 677.126 647.980, 681.995 647.765, 681.976 646.769 C 681.937 644.635, 678.190 631.223, 677.025 629.047 C 675.975 627.085, 675.065 627, 655.024 627 C 642.508 627, 633.876 627.392, 633.515 627.976 M 694 628.851 C 694 629.869, 694.420 632.006, 694.932 633.601 C 695.445 635.195, 696.583 639.087, 697.460 642.250 L 699.056 648 722.145 648 L 745.233 648 744.571 645.750 C 744.206 644.513, 743.245 641.025, 742.435 638 C 741.625 634.975, 740.466 631.263, 739.860 629.750 L 738.757 627 716.379 627 C 695.268 627, 694 627.105, 694 628.851 M 756 627.576 C 756 627.893, 757.654 632.618, 759.675 638.076 L 763.350 648 786.175 648 C 798.729 648, 809 647.765, 809 647.478 C 809 647.191, 807.200 643.097, 805 638.379 C 802.800 633.661, 801 629.444, 801 629.008 C 801 628.571, 800.288 627.941, 799.418 627.607 C 797.403 626.834, 756 626.804, 756 627.576 M 250.508 657.500 C 249.453 658.386, 245.234 670.776, 243.442 678.250 L 242.783 681 266.677 681 L 290.571 681 292.364 672.750 C 293.350 668.212, 294.617 663.007, 295.178 661.183 C 295.740 659.359, 295.986 657.653, 295.726 657.393 C 294.743 656.410, 251.684 656.512, 250.508 657.500 M 314.828 657.709 C 314.069 658.622, 309 678.559, 309 680.630 C 309 680.833, 319.731 681, 332.847 681 L 356.693 681 358.347 671.045 C 359.256 665.570, 360 660.058, 360 658.795 L 360.001 656.500 337.916 656.500 C 321.872 656.500, 315.557 656.831, 314.828 657.709 M 379.411 657.500 C 379.030 658.643, 377 677.129, 377 679.461 C 377 680.802, 379.954 681, 399.933 681 C 420.920 681, 422.907 680.852, 423.354 679.250 C 424.367 675.621, 426.230 660.427, 425.873 658.707 C 425.529 657.052, 423.722 656.897, 402.623 656.707 C 388.075 656.575, 379.624 656.864, 379.411 657.500 M 443.417 656.917 C 443.187 657.146, 443 662.667, 443 669.185 L 443 681.037 466.250 680.768 L 489.500 680.500 490.299 669.132 C 490.738 662.880, 490.910 657.576, 490.680 657.347 C 490.129 656.796, 443.957 656.376, 443.417 656.917 M 508.989 657.007 C 508.537 657.286, 508.468 662.686, 508.834 669.007 L 509.500 680.500 532.781 680.769 L 556.062 681.037 555.781 668.978 L 555.500 656.920 532.654 656.710 C 520.089 656.594, 509.440 656.728, 508.989 657.007 M 573.214 657.884 C 572.757 659.075, 573.968 669.210, 575.648 678.250 L 576.159 681 599.208 681 L 622.258 681 621.564 672.250 C 621.182 667.438, 620.561 662.020, 620.185 660.211 L 619.500 656.922 596.623 656.711 C 577.918 656.538, 573.648 656.752, 573.214 657.884 M 703.401 657.160 C 703.177 657.523, 703.272 658.546, 703.613 659.433 C 703.953 660.321, 705.203 665.424, 706.389 670.774 L 708.546 680.500 732.273 680.768 C 750.437 680.973, 756 680.750, 756 679.815 C 756 678.022, 749.907 658.636, 749.054 657.713 C 748.172 656.759, 703.979 656.224, 703.401 657.160 M 180.859 669.018 L 176.218 681.035 200.235 680.768 L 224.252 680.500 227.081 671.591 C 228.638 666.692, 230.192 661.404, 230.535 659.841 L 231.159 657 208.329 657 L 185.500 657.001 180.859 669.018 M 768.024 657.750 C 768.037 658.163, 769.559 663.450, 771.406 669.500 L 774.763 680.500 798.996 680.768 C 818.250 680.981, 823.123 680.776, 822.717 679.768 C 822.436 679.071, 820.326 673.663, 818.029 667.750 L 813.852 657 790.926 657 C 778.317 657, 768.011 657.337, 768.024 657.750 M 639.333 659.575 C 638.964 660.536, 640.414 669.646, 645.529 698.500 C 646.406 703.450, 647.380 708.962, 647.693 710.750 L 648.262 714 673.198 714 C 696.456 714, 698.104 713.882, 697.674 712.250 C 697.164 710.312, 695.863 704.836, 693.576 695 C 689.632 678.037, 685.066 659.732, 684.683 659.350 C 683.659 658.326, 639.728 658.544, 639.333 659.575 M 173.320 691.250 C 172.392 692.702, 163 713.066, 163 713.624 C 163 713.831, 173.970 714, 187.378 714 C 205.696 714, 211.996 713.689, 212.724 712.750 C 213.950 711.169, 221 692.810, 221 691.200 C 221 689.434, 174.449 689.483, 173.320 691.250 M 236.663 701.327 C 234.648 707.557, 233 712.957, 233 713.327 C 233 713.697, 244.160 714, 257.801 714 L 282.601 714 284.875 704.250 C 286.125 698.888, 287.388 693.487, 287.682 692.250 L 288.217 690 264.271 690 L 240.325 690 236.663 701.327 M 306.713 690.750 C 306.311 691.495, 304.806 697.394, 302.823 706 C 302.253 708.475, 301.579 711.288, 301.326 712.250 C 300.889 713.910, 307.532 714, 430.544 714 L 560.223 714 559.649 710.750 C 559.333 708.962, 558.771 703.563, 558.400 698.750 L 557.725 690 432.421 690 C 363.505 690, 306.936 690.337, 306.713 690.750 M 576.815 690.518 C 576.310 691.024, 576.495 695.046, 577.610 707.750 L 578.159 714 602.521 714 C 615.919 714, 627.074 713.663, 627.308 713.250 C 627.722 712.521, 625.627 696.762, 624.516 692.250 L 623.962 690 600.648 690 C 587.825 690, 577.100 690.233, 576.815 690.518 M 711.571 692.750 C 711.906 694.263, 712.546 696.850, 712.995 698.500 C 713.443 700.150, 714.396 704.313, 715.111 707.750 L 716.413 714 741.206 714 C 755.840 714, 766 713.619, 766 713.069 C 766 712.117, 761.577 697.705, 759.764 692.750 L 758.757 690 734.860 690 L 710.962 690 711.571 692.750 M 778.001 690.732 C 778.002 691.154, 779.935 696.450, 782.296 702.500 L 786.589 713.500 811.295 713.767 C 824.883 713.915, 836 713.651, 836 713.183 C 836 712.396, 831.340 702.273, 827.168 694 L 825.404 690.500 801.702 690.232 C 788.666 690.084, 778.001 690.309, 778.001 690.732" stroke="none" fill="#415a6b" fill-rule="evenodd"/><path d="M 193 92.651 C 180.351 96.813, 170.197 106.905, 164.979 120.500 C 162.163 127.837, 162 140.753, 162 356.743 C 162 541.406, 162.223 577.940, 163.354 578.879 C 164.352 579.707, 253.124 579.937, 500.604 579.751 L 836.500 579.500 836.807 357.500 C 837.043 186.532, 836.834 133.891, 835.897 128.500 C 833.272 113.391, 824.965 101.778, 812.110 95.247 L 805.719 92 500.110 92.079 C 332.024 92.122, 193.825 92.380, 193 92.651 M 205 337 L 205 541 499.500 541 L 794 541 794 337 L 794 133 499.500 133 L 205 133 205 337 M 207.696 603.250 C 205.761 607.353, 202.001 617.256, 202.001 618.250 C 202 618.663, 211.620 619, 223.378 619 C 239.291 619, 245.005 618.680, 245.734 617.750 C 246.958 616.188, 252 602.893, 252 601.229 C 252 600.295, 246.859 600, 230.614 600 L 209.228 600 207.696 603.250 M 269.130 601.758 C 268.612 602.725, 267.501 605.987, 266.660 609.008 C 265.820 612.029, 264.825 615.513, 264.449 616.750 L 263.767 619 285.261 619 C 301.254 619, 307.012 618.680, 307.759 617.750 C 308.311 617.063, 309.037 614.700, 309.371 612.500 C 309.706 610.300, 310.268 606.587, 310.620 604.250 L 311.260 600 290.665 600 C 272.040 600, 269.980 600.168, 269.130 601.758 M 328.189 606.250 C 327.097 609.688, 325.895 613.971, 325.518 615.770 L 324.832 619.039 346.638 618.770 L 368.443 618.500 370.161 610.056 C 371.106 605.413, 371.655 601.250, 371.380 600.806 C 371.106 600.363, 361.723 600, 350.528 600 L 330.173 600 328.189 606.250 M 388.519 601.230 C 388.056 602.587, 385 617.548, 385 618.458 C 385 618.756, 394.686 619, 406.525 619 L 428.050 619 428.923 616.702 C 429.404 615.438, 429.955 611.275, 430.149 607.452 L 430.500 600.500 409.726 600.230 C 393.631 600.020, 388.855 600.245, 388.519 601.230 M 448.311 608.750 C 447.754 613.563, 447.601 617.847, 447.970 618.270 C 448.339 618.694, 458.245 618.919, 469.983 618.770 L 491.326 618.500 491.201 610 C 491.132 605.325, 491.059 601.163, 491.038 600.750 C 491.017 600.337, 481.623 600, 470.161 600 L 449.322 600 448.311 608.750 M 508 609.520 L 508 619.039 529.750 618.770 L 551.500 618.500 551.234 613.500 C 551.087 610.750, 550.722 606.587, 550.422 604.250 L 549.877 600 528.939 600 L 508 600 508 609.520 M 569.254 608.595 C 569.549 613.323, 570.202 617.602, 570.704 618.104 C 571.239 618.639, 592.947 618.911, 623.059 618.759 C 668.090 618.532, 674.479 618.313, 674.333 617 C 674.072 614.665, 671.947 603.701, 671.377 601.750 C 670.898 600.113, 667.572 600, 619.792 600 L 568.718 600 569.254 608.595 M 688 601.750 C 688 604.203, 690.656 616.634, 691.456 617.930 C 692.213 619.153, 735 619.482, 735 618.265 C 735 617.860, 733.794 613.585, 732.319 608.765 L 729.638 600 708.819 600 C 689.656 600, 688 600.139, 688 601.750 M 747 601.384 C 747 602.167, 748.506 606.338, 750.348 610.653 L 753.695 618.500 775.348 618.770 C 792.341 618.981, 796.990 618.766, 796.953 617.770 C 796.928 617.071, 795.439 612.900, 793.646 608.500 L 790.386 600.500 768.693 600.230 C 750.473 600.004, 747 600.189, 747 601.384 M 199.232 628.250 C 198.258 629.451, 190 646.768, 190 647.608 C 190 647.833, 214.849 647.901, 245.220 647.758 L 300.439 647.500 302.697 639 C 303.938 634.325, 304.965 629.712, 304.977 628.750 C 304.999 627.105, 301.848 627, 252.622 627 C 211.927 627, 200.019 627.279, 199.232 628.250 M 322.515 627.976 C 321.680 629.327, 317.048 645.157, 317.021 646.750 C 316.994 648.332, 361.521 648.584, 362.495 647.008 C 363.290 645.721, 365.293 634.377, 365.410 630.500 L 365.500 627.500 344.321 627.230 C 330.768 627.058, 322.916 627.326, 322.515 627.976 M 384.625 628.731 C 384.338 629.704, 383.600 633.425, 382.985 637 C 382.370 640.575, 381.623 644.513, 381.325 645.750 L 380.783 648 403.804 648 L 426.824 648 427.381 644.250 C 427.687 642.188, 428.064 637.575, 428.219 634 L 428.500 627.500 406.824 627.231 C 386.818 626.982, 385.107 627.098, 384.625 628.731 M 447.688 627.750 C 447.452 628.163, 446.946 631.875, 446.564 636 C 446.182 640.125, 445.623 644.521, 445.322 645.769 L 444.774 648.037 468.018 647.769 L 491.262 647.500 491.196 638.250 C 491.160 633.163, 491.101 628.550, 491.065 628 C 490.989 626.825, 448.359 626.579, 447.688 627.750 M 508.667 627.667 C 508.300 628.033, 508 632.758, 508 638.167 L 508 648 531.088 648 L 554.176 648 553.619 644.250 C 553.313 642.188, 552.771 637.462, 552.414 633.750 L 551.767 627 530.550 627 C 518.881 627, 509.033 627.300, 508.667 627.667 M 571 632.841 C 571 636.075, 571.286 640.809, 571.636 643.360 L 572.272 648 595.197 648 L 618.123 648 617.479 643.750 C 617.125 641.413, 616.291 636.800, 615.627 633.500 L 614.419 627.500 592.710 627.230 L 571 626.961 571 632.841 M 633.515 627.976 C 632.981 628.840, 633.986 635.640, 635.958 644.500 L 636.626 647.500 659.313 647.769 C 677.126 647.980, 681.995 647.765, 681.976 646.769 C 681.937 644.635, 678.190 631.223, 677.025 629.047 C 675.975 627.085, 675.065 627, 655.024 627 C 642.508 627, 633.876 627.392, 633.515 627.976 M 694 628.851 C 694 629.869, 694.420 632.006, 694.932 633.601 C 695.445 635.195, 696.583 639.087, 697.460 642.250 L 699.056 648 722.145 648 L 745.233 648 744.571 645.750 C 744.206 644.513, 743.245 641.025, 742.435 638 C 741.625 634.975, 740.466 631.263, 739.860 629.750 L 738.757 627 716.379 627 C 695.268 627, 694 627.105, 694 628.851 M 756 627.576 C 756 627.893, 757.654 632.618, 759.675 638.076 L 763.350 648 786.175 648 C 798.729 648, 809 647.765, 809 647.478 C 809 647.191, 807.200 643.097, 805 638.379 C 802.800 633.661, 801 629.444, 801 629.008 C 801 628.571, 800.288 627.941, 799.418 627.607 C 797.403 626.834, 756 626.804, 756 627.576 M 250.508 657.500 C 249.453 658.386, 245.234 670.776, 243.442 678.250 L 242.783 681 266.677 681 L 290.571 681 292.364 672.750 C 293.350 668.212, 294.617 663.007, 295.178 661.183 C 295.740 659.359, 295.986 657.653, 295.726 657.393 C 294.743 656.410, 251.684 656.512, 250.508 657.500 M 314.828 657.709 C 314.069 658.622, 309 678.559, 309 680.630 C 309 680.833, 319.731 681, 332.847 681 L 356.693 681 358.347 671.045 C 359.256 665.570, 360 660.058, 360 658.795 L 360.001 656.500 337.916 656.500 C 321.872 656.500, 315.557 656.831, 314.828 657.709 M 379.411 657.500 C 379.030 658.643, 377 677.129, 377 679.461 C 377 680.802, 379.954 681, 399.933 681 C 420.920 681, 422.907 680.852, 423.354 679.250 C 424.367 675.621, 426.230 660.427, 425.873 658.707 C 425.529 657.052, 423.722 656.897, 402.623 656.707 C 388.075 656.575, 379.624 656.864, 379.411 657.500 M 443.417 656.917 C 443.187 657.146, 443 662.667, 443 669.185 L 443 681.037 466.250 680.768 L 489.500 680.500 490.299 669.132 C 490.738 662.880, 490.910 657.576, 490.680 657.347 C 490.129 656.796, 443.957 656.376, 443.417 656.917 M 508.989 657.007 C 508.537 657.286, 508.468 662.686, 508.834 669.007 L 509.500 680.500 532.781 680.769 L 556.062 681.037 555.781 668.978 L 555.500 656.920 532.654 656.710 C 520.089 656.594, 509.440 656.728, 508.989 657.007 M 573.214 657.884 C 572.757 659.075, 573.968 669.210, 575.648 678.250 L 576.159 681 599.208 681 L 622.258 681 621.564 672.250 C 621.182 667.438, 620.561 662.020, 620.185 660.211 L 619.500 656.922 596.623 656.711 C 577.918 656.538, 573.648 656.752, 573.214 657.884 M 703.401 657.160 C 703.177 657.523, 703.272 658.546, 703.613 659.433 C 703.953 660.321, 705.203 665.424, 706.389 670.774 L 708.546 680.500 732.273 680.768 C 750.437 680.973, 756 680.750, 756 679.815 C 756 678.022, 749.907 658.636, 749.054 657.713 C 748.172 656.759, 703.979 656.224, 703.401 657.160 M 180.859 669.018 L 176.218 681.035 200.235 680.768 L 224.252 680.500 227.081 671.591 C 228.638 666.692, 230.192 661.404, 230.535 659.841 L 231.159 657 208.329 657 L 185.500 657.001 180.859 669.018 M 768.024 657.750 C 768.037 658.163, 769.559 663.450, 771.406 669.500 L 774.763 680.500 798.996 680.768 C 818.250 680.981, 823.123 680.776, 822.717 679.768 C 822.436 679.071, 820.326 673.663, 818.029 667.750 L 813.852 657 790.926 657 C 778.317 657, 768.011 657.337, 768.024 657.750 M 639.333 659.575 C 638.964 660.536, 640.414 669.646, 645.529 698.500 C 646.406 703.450, 647.380 708.962, 647.693 710.750 L 648.262 714 673.198 714 C 696.456 714, 698.104 713.882, 697.674 712.250 C 697.164 710.312, 695.863 704.836, 693.576 695 C 689.632 678.037, 685.066 659.732, 684.683 659.350 C 683.659 658.326, 639.728 658.544, 639.333 659.575 M 173.320 691.250 C 172.392 692.702, 163 713.066, 163 713.624 C 163 713.831, 173.970 714, 187.378 714 C 205.696 714, 211.996 713.689, 212.724 712.750 C 213.950 711.169, 221 692.810, 221 691.200 C 221 689.434, 174.449 689.483, 173.320 691.250 M 236.663 701.327 C 234.648 707.557, 233 712.957, 233 713.327 C 233 713.697, 244.160 714, 257.801 714 L 282.601 714 284.875 704.250 C 286.125 698.888, 287.388 693.487, 287.682 692.250 L 288.217 690 264.271 690 L 240.325 690 236.663 701.327 M 306.713 690.750 C 306.311 691.495, 304.806 697.394, 302.823 706 C 302.253 708.475, 301.579 711.288, 301.326 712.250 C 300.889 713.910, 307.532 714, 430.544 714 L 560.223 714 559.649 710.750 C 559.333 708.962, 558.771 703.563, 558.400 698.750 L 557.725 690 432.421 690 C 363.505 690, 306.936 690.337, 306.713 690.750 M 576.815 690.518 C 576.310 691.024, 576.495 695.046, 577.610 707.750 L 578.159 714 602.521 714 C 615.919 714, 627.074 713.663, 627.308 713.250 C 627.722 712.521, 625.627 696.762, 624.516 692.250 L 623.962 690 600.648 690 C 587.825 690, 577.100 690.233, 576.815 690.518 M 711.571 692.750 C 711.906 694.263, 712.546 696.850, 712.995 698.500 C 713.443 700.150, 714.396 704.313, 715.111 707.750 L 716.413 714 741.206 714 C 755.840 714, 766 713.619, 766 713.069 C 766 712.117, 761.577 697.705, 759.764 692.750 L 758.757 690 734.860 690 L 710.962 690 711.571 692.750 M 778.001 690.732 C 778.002 691.154, 779.935 696.450, 782.296 702.500 L 786.589 713.500 811.295 713.767 C 824.883 713.915, 836 713.651, 836 713.183 C 836 712.396, 831.340 702.273, 827.168 694 L 825.404 690.500 801.702 690.232 C 788.666 690.084, 778.001 690.309, 778.001 690.732" stroke="none" fill="#415a6b" fill-rule="evenodd"/><path d="M 205 337 L 205 541 499.500 541 L 794 541 794 337 L 794 133 499.500 133 L 205 133 205 337 M 206 337 L 206 539.500 499.500 539.500 L 793 539.500 793 337.253 L 793 135.007 499.500 134.753 L 206 134.500 206 337 M 207 337 L 207 537 499.500 537 L 792 537 792 337 L 792 137 499.500 137 L 207 137 207 337 M 230.180 599.739 C 248.400 599.991, 251.935 600.278, 252.329 601.539 C 252.646 602.556, 252.744 602.470, 252.635 601.270 C 252.486 599.636, 250.779 599.498, 230.487 599.469 L 208.500 599.439 230.180 599.739 M 269.652 599.750 C 269.396 600.163, 275.332 600.383, 282.843 600.241 C 308.046 599.762, 310.649 599.399, 290.309 599.199 C 279.204 599.089, 269.908 599.337, 269.652 599.750 M 337.500 599.689 C 354.674 600.406, 371.774 600.437, 371.348 599.750 C 371.092 599.337, 361.796 599.089, 350.691 599.199 C 339.586 599.308, 333.650 599.529, 337.500 599.689 M 388.652 599.750 C 388.396 600.163, 394.332 600.383, 401.843 600.241 C 427.046 599.762, 429.649 599.399, 409.309 599.199 C 398.204 599.089, 388.908 599.337, 388.652 599.750 M 460.803 599.746 C 466.470 599.925, 475.470 599.924, 480.803 599.745 C 486.136 599.565, 481.500 599.419, 470.500 599.420 C 459.500 599.421, 455.136 599.568, 460.803 599.746 M 518.750 599.746 C 524.388 599.924, 533.612 599.924, 539.250 599.746 C 544.888 599.568, 540.275 599.422, 529 599.422 C 517.725 599.422, 513.112 599.568, 518.750 599.746 M 595.320 599.749 C 609.521 599.906, 632.471 599.906, 646.320 599.749 C 660.169 599.592, 648.550 599.464, 620.500 599.464 C 592.450 599.465, 581.119 599.593, 595.320 599.749 M 698.750 599.746 C 704.388 599.924, 713.612 599.924, 719.250 599.746 C 724.888 599.568, 720.275 599.422, 709 599.422 C 697.725 599.422, 693.112 599.568, 698.750 599.746 M 746.667 599.667 C 746.300 600.033, 746.007 600.821, 746.015 601.417 C 746.024 602.033, 746.383 601.944, 746.848 601.211 C 747.484 600.210, 752.473 599.987, 769.239 600.211 C 781.104 600.370, 790.602 600.163, 790.347 599.750 C 789.772 598.823, 747.591 598.743, 746.667 599.667 M 507.355 609.500 C 507.352 614.450, 507.521 616.601, 507.731 614.280 C 507.940 611.959, 507.943 607.909, 507.736 605.280 C 507.530 602.651, 507.358 604.550, 507.355 609.500 M 491.328 609.500 C 491.333 613.350, 491.513 614.802, 491.730 612.728 C 491.946 610.653, 491.943 607.503, 491.722 605.728 C 491.501 603.952, 491.324 605.650, 491.328 609.500 M 507.429 628.325 C 507.149 629.054, 507.054 633.891, 507.218 639.075 L 507.516 648.500 508.008 637.748 C 508.279 631.834, 508.373 626.997, 508.219 626.998 C 508.064 626.999, 507.708 627.596, 507.429 628.325 M 491.336 638 C 491.336 642.125, 491.513 643.813, 491.728 641.750 C 491.944 639.688, 491.944 636.313, 491.728 634.250 C 491.513 632.188, 491.336 633.875, 491.336 638 M 192.500 656.696 C 212.232 657.409, 232.003 657.436, 232.001 656.750 C 232.001 656.337, 221.313 656.092, 208.250 656.204 C 195.188 656.315, 188.100 656.537, 192.500 656.696 M 263.304 656.747 C 269.247 656.924, 278.697 656.923, 284.304 656.745 C 289.912 656.567, 285.050 656.422, 273.500 656.423 C 261.950 656.424, 257.362 656.570, 263.304 656.747 M 327.304 656.747 C 333.247 656.924, 342.697 656.923, 348.304 656.745 C 353.912 656.567, 349.050 656.422, 337.500 656.423 C 325.950 656.424, 321.362 656.570, 327.304 656.747 M 391.195 656.746 C 397.077 656.922, 406.977 656.923, 413.195 656.747 C 419.413 656.571, 414.600 656.427, 402.500 656.426 C 390.400 656.425, 385.313 656.569, 391.195 656.746 M 455.195 656.746 C 461.077 656.922, 470.977 656.923, 477.195 656.747 C 483.413 656.571, 478.600 656.427, 466.500 656.426 C 454.400 656.425, 449.313 656.569, 455.195 656.746 M 521.195 656.746 C 527.077 656.922, 536.977 656.923, 543.195 656.747 C 549.413 656.571, 544.600 656.427, 532.500 656.426 C 520.400 656.425, 515.313 656.569, 521.195 656.746 M 585.195 656.746 C 591.077 656.922, 600.977 656.923, 607.195 656.747 C 613.413 656.571, 608.600 656.427, 596.500 656.426 C 584.400 656.425, 579.313 656.569, 585.195 656.746 M 715.304 656.747 C 721.247 656.924, 730.697 656.923, 736.304 656.745 C 741.912 656.567, 737.050 656.422, 725.500 656.423 C 713.950 656.424, 709.362 656.570, 715.304 656.747 M 767.653 656.750 C 767.396 657.163, 774.232 657.384, 782.843 657.243 C 811.746 656.767, 814.668 656.409, 791.309 656.204 C 778.554 656.092, 767.909 656.337, 767.653 656.750 M 651.304 658.747 C 657.247 658.924, 666.697 658.923, 672.304 658.745 C 677.912 658.567, 673.050 658.422, 661.500 658.423 C 649.950 658.424, 645.362 658.570, 651.304 658.747 M 173.664 689.732 C 173.403 690.154, 183.797 690.371, 196.763 690.214 C 215.098 689.992, 220.539 690.214, 221.245 691.214 C 221.939 692.197, 222.056 692.147, 221.743 691 C 221.397 689.730, 217.709 689.459, 197.737 689.232 C 184.759 689.085, 173.926 689.310, 173.664 689.732 M 251.750 689.747 C 258.488 689.920, 269.512 689.920, 276.250 689.747 C 282.988 689.574, 277.475 689.432, 264 689.432 C 250.525 689.432, 245.012 689.574, 251.750 689.747 M 306.654 689.750 C 306.235 690.429, 392.797 690.424, 513 689.739 C 538.025 689.596, 501.939 689.371, 432.809 689.240 C 363.679 689.108, 306.909 689.337, 306.654 689.750 M 576.653 689.750 C 576.396 690.163, 583.232 690.384, 591.843 690.242 C 621.480 689.753, 624.445 689.411, 600.809 689.206 C 587.779 689.093, 576.909 689.337, 576.653 689.750 M 722.750 689.747 C 729.487 689.920, 740.513 689.920, 747.250 689.747 C 753.987 689.574, 748.475 689.432, 735 689.432 C 721.525 689.432, 716.013 689.574, 722.750 689.747 M 800.920 689.749 C 817.557 689.954, 824.798 690.394, 825.920 691.269 C 827.315 692.356, 827.339 692.295, 826.128 690.750 C 824.880 689.159, 822.605 689.021, 801.128 689.231 L 777.500 689.461 800.920 689.749 M 212.418 712.982 C 211.846 713.554, 201.233 714.083, 186.968 714.250 L 162.500 714.537 187.128 714.769 C 207.995 714.965, 211.945 714.771, 213 713.500 C 214.385 711.831, 213.953 711.447, 212.418 712.982 M 766 712.833 C 766 713.685, 759.308 714.063, 741.250 714.231 L 716.500 714.463 740.932 714.750 C 763.744 715.017, 768.873 714.539, 766.683 712.350 C 766.308 711.974, 766 712.192, 766 712.833 M 603 714 L 578.500 714.554 602.691 714.777 C 617.985 714.918, 627.109 714.632, 627.500 714 C 627.840 713.450, 627.979 713.100, 627.809 713.223 C 627.639 713.346, 616.475 713.695, 603 714 M 786.867 714.268 C 787.290 714.691, 798.631 714.915, 812.068 714.767 L 836.500 714.497 811.299 713.999 C 797.438 713.724, 786.443 713.846, 786.867 714.268 M 245.308 714.748 C 252.353 714.920, 263.603 714.919, 270.308 714.747 C 277.014 714.574, 271.250 714.433, 257.500 714.434 C 243.750 714.434, 238.264 714.576, 245.308 714.748 M 366.328 714.750 C 401.983 714.896, 460.033 714.895, 495.328 714.750 C 530.622 714.604, 501.450 714.485, 430.500 714.485 C 359.550 714.485, 330.672 714.604, 366.328 714.750 M 661.308 714.748 C 668.353 714.920, 679.603 714.919, 686.308 714.747 C 693.014 714.574, 687.250 714.433, 673.500 714.434 C 659.750 714.434, 654.264 714.576, 661.308 714.748" stroke="none" fill="#55c0eb" fill-rule="evenodd"/><path d="M 206 337 L 206 539.500 499.500 539.500 L 793 539.500 793 337.253 L 793 135.007 499.500 134.753 L 206 134.500 206 337 M 207 337 L 207 537 499.500 537 L 792 537 792 337 L 792 137 499.500 137 L 207 137 207 337" stroke="none" fill="#55c2ea" fill-rule="evenodd"/></svg>