<svg xmlns="http://www.w3.org/2000/svg" width="1000" height="1000" viewBox="0 0 1000 1000" version="1.1"><path d="M 479.441 389.468 C 477.544 390.903, 477.549 390.937, 479.691 390.968 C 480.896 390.986, 482.160 390.550, 482.500 390 C 482.871 389.399, 489.657 389, 499.500 389 C 509.343 389, 516.129 389.399, 516.500 390 C 517.263 391.235, 521 391.332, 521 390.117 C 521 387.497, 482.834 386.902, 479.441 389.468 M 472.490 393.442 C 464.589 401.820, 469.016 417.153, 479.969 419.344 C 498.100 422.970, 525.374 419.215, 528.601 412.648 L 530.148 409.500 527.502 412.750 C 525.002 415.820, 523 416.927, 523 415.240 C 523 414.822, 524.125 413.266, 525.500 411.783 C 531.483 405.331, 527.582 394.391, 518.480 392.099 C 488.380 384.520, 459.832 398.036, 474.651 412.850 L 478.303 416.500 500.556 416.500 C 512.796 416.500, 522.627 416.795, 522.404 417.156 C 522.181 417.517, 521.149 417.590, 520.112 417.319 C 519.074 417.048, 517.923 417.315, 517.554 417.913 C 517.112 418.628, 510.938 419, 499.500 419 C 488.062 419, 481.888 418.628, 481.446 417.913 C 481.077 417.315, 479.904 417.053, 478.839 417.332 C 474.575 418.447, 470 411.766, 470 404.424 C 470 397.845, 470.337 397.038, 474.990 392.453 C 476.359 391.104, 477.087 390, 476.608 390 C 476.128 390, 474.276 391.549, 472.490 393.442 M 523.510 391.694 C 524.615 392.687, 526.594 394.625, 527.907 396 C 529.220 397.375, 529.935 397.825, 529.495 397 C 528.137 394.450, 525.615 391.859, 523.511 390.851 L 521.500 389.887 523.510 391.694 M 529 404 C 529 408.114, 529.278 409.122, 530.167 408.233 C 530.808 407.592, 531.333 405.687, 531.333 404 C 531.333 402.313, 530.808 400.408, 530.167 399.767 C 529.278 398.878, 529 399.886, 529 404 M 335.942 485.935 C 325.261 489.231, 325 490.331, 325 532.093 C 325 582.142, 321.407 578.370, 369.500 578.813 C 410.356 579.190, 417 577.791, 417 568.813 C 417 567.266, 417.450 566, 418 566 C 418.647 566, 419 554, 419 532 C 419 510, 418.647 498, 418 498 C 417.450 498, 417 497.057, 417 495.904 C 417 494.752, 416.247 492.534, 415.326 490.976 C 413.768 488.338, 412.753 487.726, 407.500 486.258 C 404.292 485.362, 338.758 485.066, 335.942 485.935 M 352.531 514.680 C 350.899 514.952, 348.265 516.099, 346.678 517.229 C 344.279 518.937, 343.631 519.049, 342.831 517.892 C 342.142 516.894, 342.048 517.137, 342.502 518.750 C 342.874 520.073, 342.695 521, 342.067 521 C 341.480 521, 341 521.638, 341 522.417 C 341 523.196, 340.510 523.997, 339.912 524.196 C 339.259 524.414, 338.824 527.497, 338.824 531.897 L 338.824 539.236 343.228 543.368 C 349.564 549.311, 387.513 553.833, 390.500 549 C 390.840 548.450, 392.129 548, 393.364 548 C 395.720 548, 401.619 543.028, 403.750 539.246 C 405.237 536.607, 405.440 525, 404 525 C 403.450 525, 403 524.433, 403 523.739 C 403 523.045, 401.603 521.358, 399.895 519.989 C 398.188 518.620, 396.096 516.838, 395.246 516.029 C 393.683 514.541, 359.792 513.471, 352.531 514.680 M 419.150 646.750 C 419.067 649.087, 419.450 651, 420 651 C 420.550 651, 421 651.675, 421 652.500 C 421 653.325, 420.605 654, 420.121 654 C 418.976 654, 416.803 648.735, 417.196 646.912 C 417.455 645.710, 408.189 645.466, 354.750 645.272 L 292 645.044 292.242 738.772 L 292.484 832.500 293 739.500 L 293.516 646.500 293.758 739.250 L 294 832 500 832 L 706 832 706 739.500 C 706 688.625, 706.112 646.663, 706.250 646.250 C 706.388 645.837, 678.038 645.384, 643.250 645.243 L 580 644.985 580 647.975 C 580 651.893, 572.498 660, 568.871 660 C 567.512 660, 565.908 660.492, 565.307 661.093 C 564.517 661.883, 563.650 661.883, 562.173 661.093 C 561.050 660.492, 559.202 660, 558.066 660 C 555.755 660, 548 652.768, 548 650.614 C 548 645.080, 546.411 644.500, 531.249 644.500 L 516.998 644.500 516.999 647.250 C 517 648.763, 516.550 650, 516 650 C 515.450 650, 515 650.675, 515 651.500 C 515 652.325, 514.550 653, 514 653 C 513.450 653, 513 653.631, 513 654.401 C 513 656.025, 506.711 660, 504.143 660 C 503.184 660, 501.908 660.492, 501.307 661.093 C 500.517 661.883, 499.650 661.883, 498.173 661.093 C 497.050 660.492, 495.421 660, 494.552 660 C 492.331 660, 486.027 655.756, 486.012 654.250 C 486.006 653.563, 485.550 653, 485 653 C 484.450 653, 484 652.325, 484 651.500 C 484 650.675, 483.550 650, 483 650 C 482.450 650, 482.001 648.763, 482.001 647.250 C 482.003 644.569, 481.871 644.506, 476.751 644.735 C 456.976 645.618, 453.049 645.498, 452.668 644 C 452.459 643.175, 451.932 644.462, 451.498 646.861 C 450.719 651.166, 446.306 656.829, 441.500 659.691 C 440.073 660.541, 439.929 660.893, 441 660.918 C 442.707 660.959, 449.370 655.255, 450.256 652.995 C 450.745 651.748, 450.855 651.771, 450.921 653.136 C 451.069 656.209, 443.939 662.002, 440.029 661.985 C 437.382 661.973, 436.875 661.727, 438 661 C 439.110 660.283, 438.482 660.027, 435.588 660.015 C 427.863 659.985, 420.729 653.471, 419.691 645.500 C 419.390 643.197, 419.265 643.487, 419.150 646.750 M 421 654.994 C 421 657.451, 427.794 662, 431.465 662 C 432.859 662, 434 662.450, 434 663 C 434 663.550, 435.012 663.984, 436.250 663.965 C 439.302 663.916, 434.652 661.091, 431.430 661.035 C 430.291 661.016, 427.479 659.390, 425.180 657.422 C 422.881 655.454, 421 654.361, 421 654.994 M 589 690.469 C 589 691.363, 588.414 691.712, 587.500 691.362 C 586.675 691.045, 586 691.284, 586 691.893 C 586 692.502, 585.212 693.036, 584.250 693.079 C 583.075 693.132, 582.938 693.333, 583.832 693.690 C 584.711 694.040, 584.079 694.882, 581.978 696.159 C 579.606 697.602, 578.928 698.616, 579.323 700.128 C 579.708 701.599, 579.462 702.007, 578.427 701.610 C 577.206 701.142, 577 706.630, 577 739.590 C 577 765.021, 577.340 777.908, 578 777.500 C 578.550 777.160, 579 777.809, 579 778.941 C 579 780.073, 579.450 781, 580 781 C 580.550 781, 580.887 781.395, 580.750 781.878 C 580.436 782.981, 586.606 789, 588.050 789 C 588.637 789, 588.797 788.480, 588.405 787.845 C 587.962 787.130, 588.130 786.962, 588.845 787.405 C 589.480 787.797, 590 788.766, 590 789.559 C 590 791.792, 661.754 791.696, 666.082 789.457 C 667.723 788.609, 668.825 787.526, 668.531 787.051 C 668.238 786.575, 669.010 786.375, 670.249 786.604 C 671.487 786.834, 671.949 786.759, 671.276 786.436 C 669.661 785.664, 672.626 780.924, 674.325 781.561 C 674.971 781.803, 676.063 780.786, 676.750 779.301 C 678.248 776.067, 678.400 771, 677 771 C 676.355 771, 676 760, 676 740 C 676 720, 676.355 709, 677 709 C 677.550 709, 678 707.200, 678 705 C 678 702.149, 677.578 701, 676.531 701 C 675.637 701, 675.288 700.414, 675.638 699.500 C 675.955 698.675, 675.716 698, 675.107 698 C 674.498 698, 674 697.518, 674 696.929 C 674 695.252, 671.330 693.002, 669.321 692.985 C 667.780 692.972, 667.730 692.821, 669 692 C 670.213 691.216, 670.069 691.028, 668.250 691.015 C 667.013 691.007, 666 690.550, 666 690 C 666 689.351, 652.500 689, 627.500 689 C 594.310 689, 589 689.203, 589 690.469 M 611.813 690.749 C 620.785 690.914, 635.185 690.914, 643.813 690.748 C 652.441 690.581, 645.100 690.446, 627.500 690.446 C 609.900 690.447, 602.841 690.583, 611.813 690.749 M 330.420 693.237 C 322.848 698.433, 323 697.465, 323 740.486 C 323 765.495, 323.351 779, 324 779 C 324.550 779, 325 779.469, 325 780.042 C 325 781.367, 327.621 784.038, 331.654 786.822 C 334.757 788.965, 335.420 789, 372.354 789 L 409.899 789 414.449 784.701 C 416.952 782.337, 419 779.862, 419 779.201 C 419 778.541, 419.450 778, 420 778 C 420.649 778, 421 764.670, 421 740.011 C 421 697.851, 421.561 701.513, 414 694.333 L 410.500 691.010 372 691.067 C 334.499 691.123, 333.420 691.179, 330.420 693.237 M 456.518 695.329 C 453.953 697.786, 452 700.570, 452 701.770 C 452 702.931, 451.550 704.160, 451 704.500 C 444.749 708.364, 450.879 780.421, 457.897 785.572 L 462.500 788.950 500.250 788.975 C 524.767 788.991, 538 788.649, 538 788 C 538 787.450, 538.563 786.986, 539.250 786.968 C 541.065 786.923, 545.262 782.921, 547 779.580 C 549.035 775.667, 549.271 700.923, 547.250 700.250 C 546.563 700.021, 546 699.389, 546 698.845 C 546 691.982, 540.133 691, 499.113 691 L 461.035 691 456.518 695.329 M 395.830 834.750 C 453.211 834.893, 546.811 834.893, 603.830 834.750 C 660.848 834.607, 613.900 834.491, 499.500 834.491 C 385.100 834.491, 338.448 834.607, 395.830 834.750" stroke="none" fill="#468cbe" fill-rule="evenodd"/><path d="M 482.464 390.059 C 482.104 390.642, 480.761 390.981, 479.480 390.813 C 477.308 390.528, 474.484 392.447, 471.211 396.431 C 470.157 397.713, 470.159 398, 471.220 398 C 471.934 398, 473.048 397.152, 473.696 396.116 C 477.956 389.294, 519.477 388.735, 524.776 395.428 C 525.724 396.626, 527.351 397.930, 528.391 398.326 C 530.081 398.969, 530.134 398.856, 528.891 397.273 C 525.534 392.996, 521.701 390.335, 519.501 390.755 C 518.254 390.993, 516.930 390.696, 516.558 390.094 C 515.644 388.614, 483.377 388.581, 482.464 390.059 M 528 409.642 C 527.175 409.867, 525.460 411.570, 524.190 413.426 L 521.879 416.800 499.440 416.800 C 487.098 416.800, 477 416.415, 477 415.945 C 477 414.525, 471.884 409.872, 470.741 410.253 C 468.773 410.909, 476.747 417.879, 478.839 417.332 C 479.904 417.053, 481.077 417.315, 481.446 417.913 C 482.353 419.379, 516.624 419.417, 517.530 417.952 C 517.886 417.376, 518.925 417.018, 519.839 417.157 C 522.252 417.524, 525.550 415.441, 527.999 412.002 C 529.174 410.351, 529.993 409.052, 529.818 409.116 C 529.643 409.180, 528.825 409.416, 528 409.642 M 417.248 646.794 C 417.130 649.166, 419.058 654, 420.121 654 C 420.605 654, 421 654.482, 421 655.071 C 421 657.457, 427.861 662, 431.465 662 C 432.859 662, 434 662.450, 434 663 C 434 663.550, 435.012 663.984, 436.250 663.965 C 439.302 663.916, 434.652 661.091, 431.430 661.035 C 429.237 660.998, 421 654.534, 421 652.851 C 421 652.304, 420.299 651.156, 419.442 650.300 C 418.586 649.443, 418.116 648.140, 418.399 647.403 C 418.681 646.667, 418.557 645.844, 418.123 645.576 C 417.689 645.308, 417.295 645.856, 417.248 646.794 M 293.245 738.668 C 293.110 789.361, 292.727 831.548, 292.393 832.418 C 291.841 833.857, 310.493 834, 499.393 834 L 707 834 706.755 740.250 L 706.510 646.500 706.250 739.250 L 705.990 832 500 832 L 294.010 832 293.750 739.250 L 293.490 646.500 293.245 738.668 M 446.365 657.563 C 444.151 659.651, 441.891 660.943, 440.904 660.685 C 439.979 660.443, 438.702 660.566, 438.067 660.959 C 437.431 661.351, 438.394 661.721, 440.206 661.779 C 443.392 661.883, 446.508 659.929, 449.872 655.718 C 452.170 652.842, 450.361 653.794, 446.365 657.563 M 589 689.750 C 589 690.163, 606.031 690.500, 626.846 690.500 C 654.685 690.500, 665.072 690.815, 666.130 691.693 C 667.061 692.466, 668.083 692.559, 669.034 691.958 C 670.189 691.228, 670.022 691.027, 668.250 691.015 C 667.013 691.007, 666 690.550, 666 690 C 666 689.351, 652.500 689, 627.500 689 C 606.325 689, 589 689.337, 589 689.750 M 330.420 693.237 C 322.848 698.433, 323 697.465, 323 740.486 C 323 765.495, 323.351 779, 324 779 C 324.550 779, 325 779.469, 325 780.042 C 325 781.367, 327.621 784.038, 331.654 786.822 C 334.757 788.965, 335.420 789, 372.354 789 L 409.899 789 414.449 784.701 C 416.952 782.337, 419 779.862, 419 779.201 C 419 778.541, 419.450 778, 420 778 C 420.649 778, 421 764.670, 421 740.011 C 421 697.851, 421.561 701.513, 414 694.333 L 410.500 691.010 372 691.067 C 334.499 691.123, 333.420 691.179, 330.420 693.237 M 331.420 694.237 C 323.880 699.411, 324 698.676, 324 739.838 C 324 791.582, 320.454 787.959, 371.128 787.984 C 422.915 788.008, 420 790.889, 420 739.694 C 420 701.245, 419.714 699.596, 412.161 694.463 L 408.536 692 371.518 692.062 C 335.530 692.123, 334.414 692.183, 331.420 694.237 M 671.398 695.307 C 672.666 696.576, 673.934 698.263, 674.215 699.057 C 674.512 699.896, 675.097 700.129, 675.613 699.613 C 676.129 699.097, 675.977 698.539, 675.250 698.280 C 674.563 698.034, 674 697.389, 674 696.845 C 674 695.550, 671.425 693, 670.117 693 C 669.553 693, 670.129 694.038, 671.398 695.307 M 577.455 739.500 C 577.455 760.950, 577.587 769.583, 577.749 758.684 C 577.911 747.785, 577.910 730.235, 577.748 719.684 C 577.587 709.133, 577.454 718.050, 577.455 739.500 M 676 705 C 676 707.200, 676.450 709, 677 709 C 677.550 709, 678 707.200, 678 705 C 678 702.800, 677.550 701, 677 701 C 676.450 701, 676 702.800, 676 705 M 675.968 774.750 C 675.951 776.813, 675.276 779.374, 674.468 780.441 C 672.681 782.804, 672.506 784.680, 674.250 782.783 C 677.656 779.076, 679.541 771, 677 771 C 676.450 771, 675.986 772.688, 675.968 774.750 M 580.735 781.592 C 579.834 782.501, 586.431 789.001, 588.252 788.999 C 588.939 788.998, 588.193 787.873, 586.594 786.499 C 584.996 785.124, 583.342 784, 582.918 784 C 582.494 784, 582.001 783.285, 581.823 782.410 C 581.645 781.536, 581.156 781.168, 580.735 781.592 M 667.575 787.144 C 665.769 788.885, 663.311 789, 627.825 789 C 603.275 789, 590 789.351, 590 790 C 590 790.648, 602.849 791, 626.546 791 L 663.092 791 667.570 788.616 C 670.033 787.305, 671.474 786.020, 670.774 785.760 C 670.073 785.501, 668.634 786.124, 667.575 787.144" stroke="none" fill="#468dbe" fill-rule="evenodd"/><path d="M 465 228.922 C 452.627 231.367, 451.975 233.712, 451.930 275.940 C 451.874 327.310, 448.563 324, 500.008 324 C 539.612 324, 540.384 323.868, 545.126 316.293 L 547.500 312.500 547.500 276.500 C 547.500 225.092, 550.456 228.038, 499 228.159 C 482.225 228.198, 466.925 228.541, 465 228.922 M 617.500 246.390 C 610.259 249.171, 603.259 254.881, 600.204 260.500 C 582.692 292.714, 623.605 324.237, 649.421 298.421 C 655.620 292.222, 659 284.599, 659 276.819 C 659 255.366, 636.703 239.017, 617.500 246.390 M 603.558 518.953 C 593.932 525.298, 593.909 539.209, 603.514 544.876 C 608.277 547.686, 645.409 548.139, 650.794 545.453 C 660.550 540.586, 660.900 524.825, 651.382 518.931 C 646.639 515.994, 608.020 516.011, 603.558 518.953 M 588.500 693.871 C 584.349 696.449, 581.384 699.985, 580.601 703.294 C 579.733 706.964, 579.753 774.151, 580.624 776.606 C 584.414 787.293, 588.105 788.144, 629.125 787.789 C 666.572 787.465, 667.710 787.264, 672.561 780.125 L 675 776.536 675 740.154 C 675 688.093, 678.864 691.998, 627.364 692.004 C 594.121 692.007, 591.281 692.144, 588.500 693.871" stroke="none" fill="#ff6469" fill-rule="evenodd"/><path d="M 333.500 229.964 C 324.575 233.701, 324 236.524, 324 276.630 L 324 311.324 326.596 315.754 C 331.303 323.785, 332.218 323.953, 371.628 323.978 C 422.663 324.011, 420.284 326.479, 419.800 274 C 419.463 237.531, 419.236 236.271, 412.125 231.439 L 408.536 229 372.018 229.063 C 351.933 229.098, 334.600 229.504, 333.500 229.964 M 364.440 372.874 C 327.886 382.374, 333.959 435.500, 371.599 435.500 C 381.167 435.500, 382.853 434.990, 390.827 429.680 C 418.683 411.128, 396.985 364.417, 364.440 372.874 M 463.094 485.273 C 452.331 488.768, 451.736 491.563, 452.176 536.500 C 452.631 582.833, 448.353 579.001, 499.618 578.996 C 551.171 578.991, 546.500 583.669, 546.500 532.044 C 546.500 480.480, 550.451 484.578, 500.500 484.333 C 477.929 484.222, 465.355 484.538, 463.094 485.273 M 619.797 515.745 C 624.361 515.930, 631.561 515.929, 635.797 515.742 C 640.034 515.555, 636.300 515.404, 627.500 515.405 C 618.700 515.406, 615.234 515.559, 619.797 515.745 M 618.199 548.744 C 622.984 548.927, 631.084 548.928, 636.199 548.746 C 641.315 548.564, 637.400 548.414, 627.500 548.413 C 617.600 548.412, 613.415 548.561, 618.199 548.744 M 493.932 709.009 C 455.423 715.529, 462.378 772.882, 501.429 770.829 C 538.172 768.896, 541.715 715.779, 505.546 709.093 C 502.294 708.492, 499.378 708.053, 499.066 708.118 C 498.755 708.182, 496.444 708.583, 493.932 709.009" stroke="none" fill="#ffdc69" fill-rule="evenodd"/><path d="M 292 403.985 L 292 642.971 355.500 643.235 C 416.882 643.491, 419 643.438, 419 641.636 C 418.999 633.679, 429.842 626.233, 439.309 627.689 C 443.561 628.343, 451 634.807, 451 637.848 C 451 642.563, 452.693 643.101, 468.194 643.306 L 482.833 643.500 483.974 639.694 C 489.115 622.530, 515.465 625.417, 516.079 643.210 C 516.122 644.470, 516.385 644.938, 516.662 644.250 C 517.454 642.287, 546 642.473, 546 644.441 C 546 648.176, 547.527 646.272, 547.679 642.348 C 548.282 626.779, 570.401 622.272, 577.627 636.246 C 579.672 640.201, 579.555 648.145, 577.399 651.758 L 575.763 654.500 577.859 652 C 579.027 650.607, 579.965 648.061, 579.978 646.250 L 580 643 643.500 643 L 707 643 707 404 L 707 165 499.500 165 L 292 165 292 403.985 M 331.069 230.521 C 323.350 235.972, 323.500 235.071, 323.500 276.063 L 323.500 312.646 326.184 316.702 C 331.522 324.768, 332.799 325, 371.827 325 C 411.029 325, 412.083 324.809, 417.315 316.743 L 420.067 312.500 419.783 275.421 L 419.500 238.342 416.698 234.670 C 411.534 227.902, 412.170 227.995, 371.300 228.049 L 334.500 228.098 331.069 230.521 M 458.930 230.459 C 451.258 235.492, 451.500 234.007, 451.500 276 L 451.500 313.500 454 317.241 C 459.034 324.774, 460.375 325, 500.103 325 C 551.277 325, 549.339 327.012, 548.724 274.500 C 548.145 224.972, 551.341 227.976, 499.300 228.059 L 462.500 228.118 458.930 230.459 M 590.594 229.041 C 579.939 232.228, 578.834 236.976, 579.201 278 C 579.642 327.419, 575.480 323.500, 627.524 323.500 L 665.549 323.500 668.503 321.177 C 675.196 315.912, 674.986 317.372, 674.993 275.930 L 675 238.360 671.451 234.213 C 666.519 228.452, 605.592 224.555, 590.594 229.041 M 650.099 253.442 C 651.528 255.124, 653.441 257.613, 654.349 258.973 C 655.257 260.332, 656 260.938, 656 260.319 C 656 259.700, 654.087 257.211, 651.750 254.788 C 649.413 252.365, 648.669 251.759, 650.099 253.442 M 595.422 268.344 C 595.138 269.083, 595.045 273.020, 595.214 277.094 L 595.522 284.500 596.011 275.748 C 596.498 267.026, 596.400 265.794, 595.422 268.344 M 623.776 308.733 C 626.128 308.945, 629.728 308.942, 631.776 308.727 C 633.824 308.512, 631.900 308.339, 627.500 308.343 C 623.100 308.346, 621.424 308.522, 623.776 308.733 M 463.647 355.726 C 452.790 357.349, 450.785 364.292, 450.281 402 C 449.578 454.620, 448.045 453.051, 500 452.876 C 551.371 452.703, 548.342 455.766, 548.342 404 C 548.342 352.414, 550.927 354.972, 499 355.174 C 481.125 355.243, 465.216 355.492, 463.647 355.726 M 336 356.693 C 334.625 356.961, 332.037 358.288, 330.249 359.642 C 323.979 364.389, 324 364.237, 324 404.064 C 324 455.616, 321.430 452.999, 372 452.944 C 422.011 452.889, 420 454.933, 420 404.173 C 420 365.949, 419.712 364.162, 412.717 358.913 L 409.500 356.500 374 356.353 C 354.475 356.272, 337.375 356.425, 336 356.693 M 591.013 356.714 C 580.077 358.858, 579 363.096, 579 404 C 579 455.248, 576.794 453.051, 628.116 452.920 C 664.969 452.826, 667.393 452.402, 672.463 445.164 L 675.500 440.828 675.500 404.164 L 675.500 367.500 673.153 363.726 C 668.658 356.495, 668.789 356.517, 629 356.363 C 609.475 356.288, 592.381 356.445, 591.013 356.714 M 463.047 484.280 C 451.500 488.043, 450.735 491.417, 451.176 536.580 L 451.500 569.659 454.302 573.331 C 459.458 580.088, 458.865 580, 499.500 580 C 540.137 580, 539.543 580.088, 544.698 573.329 L 547.500 569.656 547.500 532.078 C 547.500 479.799, 551.104 483.578, 501 483.328 C 477.702 483.211, 465.379 483.521, 463.047 484.280 M 592.037 484.149 C 579.564 487.818, 579 489.871, 579 531.644 C 579 570.895, 579.206 572.099, 586.839 577.388 L 590.608 580 627.325 580 L 664.043 580 667.796 577.516 C 675.624 572.336, 675.500 573.069, 675.500 531.927 L 675.500 495.354 672.839 491.333 C 667.773 483.678, 666.934 483.524, 629 483.315 C 608.615 483.203, 594.144 483.529, 592.037 484.149 M 334.001 485.123 C 324.341 488.975, 324 490.588, 324 532.464 C 324 583.833, 320.131 580, 371.978 580 L 407.324 580 411.566 577.514 C 424.722 569.804, 424.667 493.636, 411.500 486.271 C 407.073 483.794, 339.831 482.799, 334.001 485.123 M 362.750 515.745 C 367.837 515.927, 376.162 515.927, 381.250 515.745 C 386.337 515.564, 382.175 515.415, 372 515.415 C 361.825 515.415, 357.662 515.564, 362.750 515.745 M 346.605 517.922 C 345.013 518.971, 342.832 521.331, 341.759 523.165 C 340.438 525.425, 340.345 525.855, 341.473 524.500 C 342.388 523.400, 343.444 521.992, 343.818 521.371 C 344.193 520.750, 346.075 519.289, 348 518.125 C 349.925 516.960, 351.050 516.009, 350.500 516.010 C 349.950 516.012, 348.197 516.872, 346.605 517.922 M 396.056 518.506 C 397.950 519.884, 400.512 522.880, 401.750 525.163 C 402.988 527.447, 404 528.734, 404 528.025 C 404 524.824, 396.182 516, 393.346 516 C 392.942 516, 394.161 517.128, 396.056 518.506 M 401.674 539.093 C 398.128 546.628, 395.774 547.452, 376.650 547.853 C 352.384 548.361, 349.521 547.870, 344.149 542.281 C 341.756 539.791, 340.276 538.648, 340.861 539.740 C 345.235 547.914, 351.029 549.389, 376.650 548.853 C 392.257 548.526, 393.735 548.333, 396.679 546.232 C 400.008 543.858, 404.404 537.635, 403.833 536.105 C 403.650 535.615, 402.679 536.959, 401.674 539.093 M 514.603 648.500 C 512.818 656.179, 504.196 660.961, 495.623 659.028 C 492.845 658.401, 492.061 658.461, 492.839 659.239 C 498.549 664.949, 518.296 654.131, 515.718 646.705 C 515.488 646.042, 514.986 646.850, 514.603 648.500 M 548.004 650.047 C 547.988 656.517, 567.302 664.175, 570.517 658.973 C 570.774 658.557, 569.298 658.595, 567.237 659.058 C 560.045 660.674, 553.868 657.987, 549.861 651.500 C 548.810 649.800, 548.006 649.170, 548.004 650.047 M 459.664 694.112 C 446.836 700.880, 446.586 776.211, 459.363 784.750 L 464.226 788 499.124 788 C 538.598 788, 539.970 787.768, 545 780.241 L 547.500 776.500 547.500 740 C 547.500 698.897, 547.562 699.274, 539.991 694.495 L 536.040 692 499.770 692.044 C 465.334 692.086, 463.306 692.191, 459.664 694.112 M 494 707.941 C 465.037 711.775, 457.653 753.872, 483.500 767.809 C 490.941 771.821, 504.128 773.531, 508.764 771.083 C 509.719 770.579, 512.008 769.606, 513.851 768.920 C 547.686 756.334, 530.366 703.128, 494 707.941" stroke="none" fill="#63afdb" fill-rule="evenodd"/><path d="M 590.594 229.041 C 579.939 232.228, 578.834 236.976, 579.201 278 C 579.642 327.419, 575.480 323.500, 627.524 323.500 L 665.549 323.500 668.503 321.177 C 675.196 315.912, 674.986 317.372, 674.993 275.930 L 675 238.360 671.451 234.213 C 666.519 228.452, 605.592 224.555, 590.594 229.041 M 623.500 243.772 C 614.245 244.400, 602.191 253.136, 598.349 262 C 597.515 263.925, 596.420 266.281, 595.916 267.236 C 594.576 269.777, 594.826 281.938, 596.302 286 C 604.276 307.948, 628.064 315.812, 646.366 302.552 C 673.460 282.921, 657.336 241.473, 623.500 243.772 M 331.420 694.237 C 323.880 699.411, 324 698.676, 324 739.838 C 324 791.582, 320.454 787.959, 371.128 787.984 C 422.915 788.008, 420 790.889, 420 739.694 C 420 701.245, 419.714 699.596, 412.161 694.463 L 408.536 692 371.518 692.062 C 335.530 692.123, 334.414 692.183, 331.420 694.237" stroke="none" fill="#00dccd" fill-rule="evenodd"/><path d="M 383.808 84.714 C 379.896 85.306, 373.698 91.775, 372.438 96.581 C 367.588 115.080, 394.131 123.995, 402.370 106.634 C 407.768 95.256, 397.133 82.697, 383.808 84.714 M 446.684 85.449 C 433.837 90.031, 431.911 106.838, 443.418 113.950 C 447.863 116.697, 549.778 117.200, 554.998 114.501 C 567.450 108.062, 565.168 88.892, 551.500 85.116 C 545.205 83.377, 451.660 83.674, 446.684 85.449 M 458.967 359.376 C 452.433 363.816, 452.500 363.350, 452.500 404.402 C 452.500 455.926, 448.076 451.500, 499.578 451.500 L 536.656 451.500 540.314 448.709 C 546.668 443.863, 546.500 445.080, 546.500 404 L 546.500 366.500 544.171 363.235 C 539.711 356.982, 539.840 357, 499.282 357 L 462.464 357 458.967 359.376 M 476.020 390.250 C 468.357 394.165, 465.522 403.200, 469.424 411.270 C 478.357 429.745, 534.758 421.282, 531.493 401.956 C 529.269 388.795, 493.600 381.268, 476.020 390.250 M 426.715 631.141 C 414.081 640.564, 420.276 659, 436.076 659 C 450.571 659, 456.441 642.057, 445.344 632.250 C 440.689 628.136, 431.478 627.588, 426.715 631.141 M 489.703 869.012 C 463.829 876.784, 460.300 916.792, 484.512 927.867 C 486.155 928.618, 488.317 929.653, 489.316 930.167 C 496.194 933.701, 513.956 930.045, 520.856 923.675 C 545.913 900.544, 522.353 859.205, 489.703 869.012" stroke="none" fill="#464655" fill-rule="evenodd"/><path d="M 590.604 485.038 C 580.294 488.124, 579 493.322, 579 531.664 C 579 582.892, 576.229 580.326, 631 579.813 C 678.658 579.368, 675 583.337, 675 532.064 C 675 480.575, 678.374 483.955, 627.101 484.086 C 608.620 484.133, 592.197 484.562, 590.604 485.038 M 609 515.680 C 591.768 518.026, 590.388 541.982, 607.163 547.554 C 641.085 558.821, 676.334 535.328, 651.761 517.830 C 648.595 515.576, 620.238 514.150, 609 515.680 M 352.479 516.877 C 338.891 520.372, 336.082 538.442, 348.035 545.465 C 353.872 548.893, 390.956 548.544, 396.178 545.012 C 405.523 538.691, 405.277 525.705, 395.677 518.592 C 392.651 516.350, 359.624 515.039, 352.479 516.877 M 495.159 628.964 C 483.784 631.757, 480.424 646.562, 489.226 655.103 C 497.755 663.381, 511.735 658.963, 514.763 647.034 C 517.632 635.735, 507.104 626.031, 495.159 628.964 M 559.115 629.006 C 546.505 631.973, 544.391 651.497, 556.029 657.515 C 566.425 662.891, 579 655.261, 579 643.577 C 579 633.306, 569.726 626.510, 559.115 629.006" stroke="none" fill="#ffffff" fill-rule="evenodd"/><path d="M 292 403.985 L 292 642.971 355.500 643.235 C 416.882 643.491, 419 643.438, 419 641.636 C 418.999 633.679, 429.842 626.233, 439.309 627.689 C 443.561 628.343, 451 634.807, 451 637.848 C 451 642.563, 452.693 643.101, 468.194 643.306 L 482.833 643.500 483.974 639.694 C 489.115 622.530, 515.465 625.417, 516.079 643.210 C 516.122 644.470, 516.385 644.938, 516.662 644.250 C 517.454 642.287, 546 642.473, 546 644.441 C 546 648.176, 547.527 646.272, 547.679 642.348 C 548.282 626.779, 570.401 622.272, 577.627 636.246 C 579.672 640.201, 579.555 648.145, 577.399 651.758 L 575.763 654.500 577.859 652 C 579.027 650.607, 579.965 648.061, 579.978 646.250 L 580 643 643.500 643 L 707 643 707 404 L 707 165 499.500 165 L 292 165 292 403.985 M 331.069 230.521 C 323.350 235.972, 323.500 235.071, 323.500 276.063 L 323.500 312.646 326.184 316.702 C 331.522 324.768, 332.799 325, 371.827 325 C 411.029 325, 412.083 324.809, 417.315 316.743 L 420.067 312.500 419.783 275.421 L 419.500 238.342 416.698 234.670 C 411.534 227.902, 412.170 227.995, 371.300 228.049 L 334.500 228.098 331.069 230.521 M 458.930 230.459 C 451.258 235.492, 451.500 234.007, 451.500 276 L 451.500 313.500 454 317.241 C 459.034 324.774, 460.375 325, 500.103 325 C 551.277 325, 549.339 327.012, 548.724 274.500 C 548.145 224.972, 551.341 227.976, 499.300 228.059 L 462.500 228.118 458.930 230.459 M 590.594 229.041 C 579.939 232.228, 578.834 236.976, 579.201 278 C 579.642 327.419, 575.480 323.500, 627.524 323.500 L 665.549 323.500 668.503 321.177 C 675.196 315.912, 674.986 317.372, 674.993 275.930 L 675 238.360 671.451 234.213 C 666.519 228.452, 605.592 224.555, 590.594 229.041 M 650.099 253.442 C 651.528 255.124, 653.441 257.613, 654.349 258.973 C 655.257 260.332, 656 260.938, 656 260.319 C 656 259.700, 654.087 257.211, 651.750 254.788 C 649.413 252.365, 648.669 251.759, 650.099 253.442 M 595.422 268.344 C 595.138 269.083, 595.045 273.020, 595.214 277.094 L 595.522 284.500 596.011 275.748 C 596.498 267.026, 596.400 265.794, 595.422 268.344 M 623.776 308.733 C 626.128 308.945, 629.728 308.942, 631.776 308.727 C 633.824 308.512, 631.900 308.339, 627.500 308.343 C 623.100 308.346, 621.424 308.522, 623.776 308.733 M 463.647 355.726 C 452.790 357.349, 450.785 364.292, 450.281 402 C 449.578 454.620, 448.045 453.051, 500 452.876 C 551.371 452.703, 548.342 455.766, 548.342 404 C 548.342 352.414, 550.927 354.972, 499 355.174 C 481.125 355.243, 465.216 355.492, 463.647 355.726 M 336 356.693 C 334.625 356.961, 332.037 358.288, 330.249 359.642 C 323.979 364.389, 324 364.237, 324 404.064 C 324 455.616, 321.430 452.999, 372 452.944 C 422.011 452.889, 420 454.933, 420 404.173 C 420 365.949, 419.712 364.162, 412.717 358.913 L 409.500 356.500 374 356.353 C 354.475 356.272, 337.375 356.425, 336 356.693 M 591.013 356.714 C 580.077 358.858, 579 363.096, 579 404 C 579 455.248, 576.794 453.051, 628.116 452.920 C 664.969 452.826, 667.393 452.402, 672.463 445.164 L 675.500 440.828 675.500 404.164 L 675.500 367.500 673.153 363.726 C 668.658 356.495, 668.789 356.517, 629 356.363 C 609.475 356.288, 592.381 356.445, 591.013 356.714 M 463.047 484.280 C 451.500 488.043, 450.735 491.417, 451.176 536.580 L 451.500 569.659 454.302 573.331 C 459.458 580.088, 458.865 580, 499.500 580 C 540.137 580, 539.543 580.088, 544.698 573.329 L 547.500 569.656 547.500 532.078 C 547.500 479.799, 551.104 483.578, 501 483.328 C 477.702 483.211, 465.379 483.521, 463.047 484.280 M 592.037 484.149 C 579.564 487.818, 579 489.871, 579 531.644 C 579 570.895, 579.206 572.099, 586.839 577.388 L 590.608 580 627.325 580 L 664.043 580 667.796 577.516 C 675.624 572.336, 675.500 573.069, 675.500 531.927 L 675.500 495.354 672.839 491.333 C 667.773 483.678, 666.934 483.524, 629 483.315 C 608.615 483.203, 594.144 483.529, 592.037 484.149 M 334.001 485.123 C 324.341 488.975, 324 490.588, 324 532.464 C 324 583.833, 320.131 580, 371.978 580 L 407.324 580 411.566 577.514 C 424.722 569.804, 424.667 493.636, 411.500 486.271 C 407.073 483.794, 339.831 482.799, 334.001 485.123 M 362.750 515.745 C 367.837 515.927, 376.162 515.927, 381.250 515.745 C 386.337 515.564, 382.175 515.415, 372 515.415 C 361.825 515.415, 357.662 515.564, 362.750 515.745 M 346.605 517.922 C 345.013 518.971, 342.832 521.331, 341.759 523.165 C 340.438 525.425, 340.345 525.855, 341.473 524.500 C 342.388 523.400, 343.444 521.992, 343.818 521.371 C 344.193 520.750, 346.075 519.289, 348 518.125 C 349.925 516.960, 351.050 516.009, 350.500 516.010 C 349.950 516.012, 348.197 516.872, 346.605 517.922 M 396.056 518.506 C 397.950 519.884, 400.512 522.880, 401.750 525.163 C 402.988 527.447, 404 528.734, 404 528.025 C 404 524.824, 396.182 516, 393.346 516 C 392.942 516, 394.161 517.128, 396.056 518.506 M 401.674 539.093 C 398.128 546.628, 395.774 547.452, 376.650 547.853 C 352.384 548.361, 349.521 547.870, 344.149 542.281 C 341.756 539.791, 340.276 538.648, 340.861 539.740 C 345.235 547.914, 351.029 549.389, 376.650 548.853 C 392.257 548.526, 393.735 548.333, 396.679 546.232 C 400.008 543.858, 404.404 537.635, 403.833 536.105 C 403.650 535.615, 402.679 536.959, 401.674 539.093 M 514.603 648.500 C 512.818 656.179, 504.196 660.961, 495.623 659.028 C 492.845 658.401, 492.061 658.461, 492.839 659.239 C 498.549 664.949, 518.296 654.131, 515.718 646.705 C 515.488 646.042, 514.986 646.850, 514.603 648.500 M 548.004 650.047 C 547.988 656.517, 567.302 664.175, 570.517 658.973 C 570.774 658.557, 569.298 658.595, 567.237 659.058 C 560.045 660.674, 553.868 657.987, 549.861 651.500 C 548.810 649.800, 548.006 649.170, 548.004 650.047 M 459.664 694.112 C 446.836 700.880, 446.586 776.211, 459.363 784.750 L 464.226 788 499.124 788 C 538.598 788, 539.970 787.768, 545 780.241 L 547.500 776.500 547.500 740 C 547.500 698.897, 547.562 699.274, 539.991 694.495 L 536.040 692 499.770 692.044 C 465.334 692.086, 463.306 692.191, 459.664 694.112 M 494 707.941 C 465.037 711.775, 457.653 753.872, 483.500 767.809 C 490.941 771.821, 504.128 773.531, 508.764 771.083 C 509.719 770.579, 512.008 769.606, 513.851 768.920 C 547.686 756.334, 530.366 703.128, 494 707.941" stroke="none" fill="#63afdb" fill-rule="evenodd"/><path d="M 590.604 485.038 C 580.294 488.124, 579 493.322, 579 531.664 C 579 582.892, 576.229 580.326, 631 579.813 C 678.658 579.368, 675 583.337, 675 532.064 C 675 480.575, 678.374 483.955, 627.101 484.086 C 608.620 484.133, 592.197 484.562, 590.604 485.038 M 609 515.680 C 591.768 518.026, 590.388 541.982, 607.163 547.554 C 641.085 558.821, 676.334 535.328, 651.761 517.830 C 648.595 515.576, 620.238 514.150, 609 515.680 M 352.479 516.877 C 338.891 520.372, 336.082 538.442, 348.035 545.465 C 353.872 548.893, 390.956 548.544, 396.178 545.012 C 405.523 538.691, 405.277 525.705, 395.677 518.592 C 392.651 516.350, 359.624 515.039, 352.479 516.877 M 495.159 628.964 C 483.784 631.757, 480.424 646.562, 489.226 655.103 C 497.755 663.381, 511.735 658.963, 514.763 647.034 C 517.632 635.735, 507.104 626.031, 495.159 628.964 M 559.115 629.006 C 546.505 631.973, 544.391 651.497, 556.029 657.515 C 566.425 662.891, 579 655.261, 579 643.577 C 579 633.306, 569.726 626.510, 559.115 629.006" stroke="none" fill="#ffffff" fill-rule="evenodd"/><path d="M 590.604 485.038 C 580.294 488.124, 579 493.322, 579 531.664 C 579 582.892, 576.229 580.326, 631 579.813 C 678.658 579.368, 675 583.337, 675 532.064 C 675 480.575, 678.374 483.955, 627.101 484.086 C 608.620 484.133, 592.197 484.562, 590.604 485.038 M 609 515.680 C 591.768 518.026, 590.388 541.982, 607.163 547.554 C 641.085 558.821, 676.334 535.328, 651.761 517.830 C 648.595 515.576, 620.238 514.150, 609 515.680 M 352.479 516.877 C 338.891 520.372, 336.082 538.442, 348.035 545.465 C 353.872 548.893, 390.956 548.544, 396.178 545.012 C 405.523 538.691, 405.277 525.705, 395.677 518.592 C 392.651 516.350, 359.624 515.039, 352.479 516.877 M 495.159 628.964 C 483.784 631.757, 480.424 646.562, 489.226 655.103 C 497.755 663.381, 511.735 658.963, 514.763 647.034 C 517.632 635.735, 507.104 626.031, 495.159 628.964 M 559.115 629.006 C 546.505 631.973, 544.391 651.497, 556.029 657.515 C 566.425 662.891, 579 655.261, 579 643.577 C 579 633.306, 569.726 626.510, 559.115 629.006" stroke="none" fill="#ffffff" fill-rule="evenodd"/><path d="M 465 228.922 C 452.627 231.367, 451.975 233.712, 451.930 275.940 C 451.874 327.310, 448.563 324, 500.008 324 C 539.612 324, 540.384 323.868, 545.126 316.293 L 547.500 312.500 547.500 276.500 C 547.500 225.092, 550.456 228.038, 499 228.159 C 482.225 228.198, 466.925 228.541, 465 228.922 M 617.500 246.390 C 610.259 249.171, 603.259 254.881, 600.204 260.500 C 582.692 292.714, 623.605 324.237, 649.421 298.421 C 655.620 292.222, 659 284.599, 659 276.819 C 659 255.366, 636.703 239.017, 617.500 246.390 M 603.558 518.953 C 593.932 525.298, 593.909 539.209, 603.514 544.876 C 608.277 547.686, 645.409 548.139, 650.794 545.453 C 660.550 540.586, 660.900 524.825, 651.382 518.931 C 646.639 515.994, 608.020 516.011, 603.558 518.953 M 588.500 693.871 C 584.349 696.449, 581.384 699.985, 580.601 703.294 C 579.733 706.964, 579.753 774.151, 580.624 776.606 C 584.414 787.293, 588.105 788.144, 629.125 787.789 C 666.572 787.465, 667.710 787.264, 672.561 780.125 L 675 776.536 675 740.154 C 675 688.093, 678.864 691.998, 627.364 692.004 C 594.121 692.007, 591.281 692.144, 588.500 693.871" stroke="none" fill="#ff6469" fill-rule="evenodd"/><path d="M 333.500 229.964 C 324.575 233.701, 324 236.524, 324 276.630 L 324 311.324 326.596 315.754 C 331.303 323.785, 332.218 323.953, 371.628 323.978 C 422.663 324.011, 420.284 326.479, 419.800 274 C 419.463 237.531, 419.236 236.271, 412.125 231.439 L 408.536 229 372.018 229.063 C 351.933 229.098, 334.600 229.504, 333.500 229.964 M 364.440 372.874 C 327.886 382.374, 333.959 435.500, 371.599 435.500 C 381.167 435.500, 382.853 434.990, 390.827 429.680 C 418.683 411.128, 396.985 364.417, 364.440 372.874 M 463.094 485.273 C 452.331 488.768, 451.736 491.563, 452.176 536.500 C 452.631 582.833, 448.353 579.001, 499.618 578.996 C 551.171 578.991, 546.500 583.669, 546.500 532.044 C 546.500 480.480, 550.451 484.578, 500.500 484.333 C 477.929 484.222, 465.355 484.538, 463.094 485.273 M 619.797 515.745 C 624.361 515.930, 631.561 515.929, 635.797 515.742 C 640.034 515.555, 636.300 515.404, 627.500 515.405 C 618.700 515.406, 615.234 515.559, 619.797 515.745 M 618.199 548.744 C 622.984 548.927, 631.084 548.928, 636.199 548.746 C 641.315 548.564, 637.400 548.414, 627.500 548.413 C 617.600 548.412, 613.415 548.561, 618.199 548.744 M 493.932 709.009 C 455.423 715.529, 462.378 772.882, 501.429 770.829 C 538.172 768.896, 541.715 715.779, 505.546 709.093 C 502.294 708.492, 499.378 708.053, 499.066 708.118 C 498.755 708.182, 496.444 708.583, 493.932 709.009" stroke="none" fill="#ffdc69" fill-rule="evenodd"/><path d="M 590.604 485.038 C 580.294 488.124, 579 493.322, 579 531.664 C 579 582.892, 576.229 580.326, 631 579.813 C 678.658 579.368, 675 583.337, 675 532.064 C 675 480.575, 678.374 483.955, 627.101 484.086 C 608.620 484.133, 592.197 484.562, 590.604 485.038 M 609 515.680 C 591.768 518.026, 590.388 541.982, 607.163 547.554 C 641.085 558.821, 676.334 535.328, 651.761 517.830 C 648.595 515.576, 620.238 514.150, 609 515.680 M 352.479 516.877 C 338.891 520.372, 336.082 538.442, 348.035 545.465 C 353.872 548.893, 390.956 548.544, 396.178 545.012 C 405.523 538.691, 405.277 525.705, 395.677 518.592 C 392.651 516.350, 359.624 515.039, 352.479 516.877 M 495.159 628.964 C 483.784 631.757, 480.424 646.562, 489.226 655.103 C 497.755 663.381, 511.735 658.963, 514.763 647.034 C 517.632 635.735, 507.104 626.031, 495.159 628.964 M 559.115 629.006 C 546.505 631.973, 544.391 651.497, 556.029 657.515 C 566.425 662.891, 579 655.261, 579 643.577 C 579 633.306, 569.726 626.510, 559.115 629.006" stroke="none" fill="#ffffff" fill-rule="evenodd"/><path d="M 450.447 404 C 450.447 421.875, 450.582 429.188, 450.748 420.250 C 450.914 411.313, 450.914 396.688, 450.748 387.750 C 450.582 378.813, 450.447 386.125, 450.447 404 M 334.001 485.123 C 324.341 488.975, 324 490.588, 324 532.464 C 324 583.833, 320.131 580, 371.978 580 L 407.324 580 411.566 577.514 C 424.722 569.804, 424.667 493.636, 411.500 486.271 C 407.073 483.794, 339.831 482.799, 334.001 485.123 M 334.500 486.504 C 332.300 487.310, 330.404 487.977, 330.286 487.985 C 330.168 487.993, 328.931 489.679, 327.536 491.732 L 325 495.464 325.007 531.982 C 325.016 582.849, 321.228 578.987, 371.128 578.995 C 422.103 579.002, 418.962 582.107, 418.985 531.688 L 419 498.876 416.528 493.688 C 412.574 485.390, 413.516 485.574, 373.500 485.288 C 344.777 485.083, 337.783 485.301, 334.500 486.504 M 363.299 514.745 C 368.139 514.929, 375.789 514.928, 380.299 514.743 C 384.810 514.558, 380.850 514.408, 371.500 514.409 C 362.150 514.410, 358.460 514.562, 363.299 514.745 M 403.500 532 C 403.500 535.745, 403.837 538.600, 404.250 538.345 C 404.663 538.091, 405 535.235, 405 532 C 405 528.765, 404.663 525.909, 404.250 525.655 C 403.837 525.400, 403.500 528.255, 403.500 532 M 353.344 549.235 C 354.870 550.204, 389.747 550.219, 390.345 549.250 C 390.599 548.837, 382.118 548.500, 371.497 548.500 C 360.877 548.500, 352.708 548.831, 353.344 549.235 M 452.618 643.448 C 453.342 645.334, 481 645.825, 481 643.952 C 481 643.266, 476.365 642.956, 467.573 643.056 C 460.188 643.140, 453.668 642.913, 453.084 642.552 C 452.436 642.151, 452.255 642.500, 452.618 643.448 M 292 643.978 C 292 644.622, 314.317 645.064, 355.500 645.235 C 397.506 645.410, 418.887 645.162, 418.667 644.500 C 418.209 643.125, 292 642.605, 292 643.978 M 518 644 C 518 645.308, 542.977 645.308, 545 644 C 546.007 643.349, 541.820 643.026, 532.250 643.015 C 523.406 643.006, 518 643.379, 518 644 M 581 644 C 583.085 645.347, 707 645.347, 707 644 C 707 643.344, 685.094 643.005, 643.250 643.015 C 601.722 643.025, 580.023 643.369, 581 644 M 456.474 695.474 C 454.013 697.934, 452 700.833, 452 701.915 C 452 702.997, 451.550 704.160, 451 704.500 C 450.365 704.893, 450 717.657, 450 739.500 C 450 761.343, 450.365 774.107, 451 774.500 C 451.550 774.840, 452 776.007, 452 777.094 C 452 780.025, 454.603 783.471, 459.028 786.400 L 462.957 789 499.498 789 L 536.040 789 539.995 786.503 C 543.936 784.015, 547.755 779.422, 546.733 778.400 C 546.437 778.104, 545.382 779.237, 544.389 780.919 C 540.425 787.629, 538.052 788, 499.124 788 L 464.226 788 459.363 784.750 C 451.277 779.346, 450.880 777.067, 451.219 738 C 451.645 688.719, 448.167 692, 499.980 692 L 536.040 692 539.982 694.489 C 542.150 695.857, 544.598 698.220, 545.422 699.739 C 546.246 701.257, 546.938 702.119, 546.960 701.654 C 547.402 692.309, 541.509 691, 498.988 691 L 460.947 691 456.474 695.474 M 578.219 739.191 C 578.099 759.921, 578.337 777.091, 578.750 777.347 C 579.433 777.770, 579.417 749.278, 578.715 715 C 578.563 707.575, 578.340 718.461, 578.219 739.191 M 547.500 739.500 C 547.500 759.470, 547.831 775.289, 548.235 774.655 C 548.639 774.020, 548.969 758.200, 548.969 739.500 C 548.969 720.800, 548.639 704.980, 548.235 704.345 C 547.831 703.711, 547.500 719.530, 547.500 739.500" stroke="none" fill="#498dc0" fill-rule="evenodd"/><path d="M 292 403.985 L 292 642.971 355.500 643.235 C 416.882 643.491, 419 643.438, 419 641.636 C 418.999 633.679, 429.842 626.233, 439.309 627.689 C 443.561 628.343, 451 634.807, 451 637.848 C 451 642.563, 452.693 643.101, 468.194 643.306 L 482.833 643.500 483.974 639.694 C 489.115 622.530, 515.465 625.417, 516.079 643.210 C 516.122 644.470, 516.385 644.938, 516.662 644.250 C 517.454 642.287, 546 642.473, 546 644.441 C 546 648.176, 547.527 646.272, 547.679 642.348 C 548.282 626.779, 570.401 622.272, 577.627 636.246 C 579.672 640.201, 579.555 648.145, 577.399 651.758 L 575.763 654.500 577.859 652 C 579.027 650.607, 579.965 648.061, 579.978 646.250 L 580 643 643.500 643 L 707 643 707 404 L 707 165 499.500 165 L 292 165 292 403.985 M 331.069 230.521 C 323.350 235.972, 323.500 235.071, 323.500 276.063 L 323.500 312.646 326.184 316.702 C 331.522 324.768, 332.799 325, 371.827 325 C 411.029 325, 412.083 324.809, 417.315 316.743 L 420.067 312.500 419.783 275.421 L 419.500 238.342 416.698 234.670 C 411.534 227.902, 412.170 227.995, 371.300 228.049 L 334.500 228.098 331.069 230.521 M 458.930 230.459 C 451.258 235.492, 451.500 234.007, 451.500 276 L 451.500 313.500 454 317.241 C 459.034 324.774, 460.375 325, 500.103 325 C 551.277 325, 549.339 327.012, 548.724 274.500 C 548.145 224.972, 551.341 227.976, 499.300 228.059 L 462.500 228.118 458.930 230.459 M 590.594 229.041 C 579.939 232.228, 578.834 236.976, 579.201 278 C 579.642 327.419, 575.480 323.500, 627.524 323.500 L 665.549 323.500 668.503 321.177 C 675.196 315.912, 674.986 317.372, 674.993 275.930 L 675 238.360 671.451 234.213 C 666.519 228.452, 605.592 224.555, 590.594 229.041 M 650.099 253.442 C 651.528 255.124, 653.441 257.613, 654.349 258.973 C 655.257 260.332, 656 260.938, 656 260.319 C 656 259.700, 654.087 257.211, 651.750 254.788 C 649.413 252.365, 648.669 251.759, 650.099 253.442 M 595.422 268.344 C 595.138 269.083, 595.045 273.020, 595.214 277.094 L 595.522 284.500 596.011 275.748 C 596.498 267.026, 596.400 265.794, 595.422 268.344 M 623.776 308.733 C 626.128 308.945, 629.728 308.942, 631.776 308.727 C 633.824 308.512, 631.900 308.339, 627.500 308.343 C 623.100 308.346, 621.424 308.522, 623.776 308.733 M 463.647 355.726 C 452.790 357.349, 450.785 364.292, 450.281 402 C 449.578 454.620, 448.045 453.051, 500 452.876 C 551.371 452.703, 548.342 455.766, 548.342 404 C 548.342 352.414, 550.927 354.972, 499 355.174 C 481.125 355.243, 465.216 355.492, 463.647 355.726 M 336 356.693 C 334.625 356.961, 332.037 358.288, 330.249 359.642 C 323.979 364.389, 324 364.237, 324 404.064 C 324 455.616, 321.430 452.999, 372 452.944 C 422.011 452.889, 420 454.933, 420 404.173 C 420 365.949, 419.712 364.162, 412.717 358.913 L 409.500 356.500 374 356.353 C 354.475 356.272, 337.375 356.425, 336 356.693 M 591.013 356.714 C 580.077 358.858, 579 363.096, 579 404 C 579 455.248, 576.794 453.051, 628.116 452.920 C 664.969 452.826, 667.393 452.402, 672.463 445.164 L 675.500 440.828 675.500 404.164 L 675.500 367.500 673.153 363.726 C 668.658 356.495, 668.789 356.517, 629 356.363 C 609.475 356.288, 592.381 356.445, 591.013 356.714 M 463.047 484.280 C 451.500 488.043, 450.735 491.417, 451.176 536.580 L 451.500 569.659 454.302 573.331 C 459.458 580.088, 458.865 580, 499.500 580 C 540.137 580, 539.543 580.088, 544.698 573.329 L 547.500 569.656 547.500 532.078 C 547.500 479.799, 551.104 483.578, 501 483.328 C 477.702 483.211, 465.379 483.521, 463.047 484.280 M 592.037 484.149 C 579.564 487.818, 579 489.871, 579 531.644 C 579 570.895, 579.206 572.099, 586.839 577.388 L 590.608 580 627.325 580 L 664.043 580 667.796 577.516 C 675.624 572.336, 675.500 573.069, 675.500 531.927 L 675.500 495.354 672.839 491.333 C 667.773 483.678, 666.934 483.524, 629 483.315 C 608.615 483.203, 594.144 483.529, 592.037 484.149 M 334.001 485.123 C 324.341 488.975, 324 490.588, 324 532.464 C 324 583.833, 320.131 580, 371.978 580 L 407.324 580 411.566 577.514 C 424.722 569.804, 424.667 493.636, 411.500 486.271 C 407.073 483.794, 339.831 482.799, 334.001 485.123 M 362.750 515.745 C 367.837 515.927, 376.162 515.927, 381.250 515.745 C 386.337 515.564, 382.175 515.415, 372 515.415 C 361.825 515.415, 357.662 515.564, 362.750 515.745 M 346.605 517.922 C 345.013 518.971, 342.832 521.331, 341.759 523.165 C 340.438 525.425, 340.345 525.855, 341.473 524.500 C 342.388 523.400, 343.444 521.992, 343.818 521.371 C 344.193 520.750, 346.075 519.289, 348 518.125 C 349.925 516.960, 351.050 516.009, 350.500 516.010 C 349.950 516.012, 348.197 516.872, 346.605 517.922 M 396.056 518.506 C 397.950 519.884, 400.512 522.880, 401.750 525.163 C 402.988 527.447, 404 528.734, 404 528.025 C 404 524.824, 396.182 516, 393.346 516 C 392.942 516, 394.161 517.128, 396.056 518.506 M 401.674 539.093 C 398.128 546.628, 395.774 547.452, 376.650 547.853 C 352.384 548.361, 349.521 547.870, 344.149 542.281 C 341.756 539.791, 340.276 538.648, 340.861 539.740 C 345.235 547.914, 351.029 549.389, 376.650 548.853 C 392.257 548.526, 393.735 548.333, 396.679 546.232 C 400.008 543.858, 404.404 537.635, 403.833 536.105 C 403.650 535.615, 402.679 536.959, 401.674 539.093 M 514.603 648.500 C 512.818 656.179, 504.196 660.961, 495.623 659.028 C 492.845 658.401, 492.061 658.461, 492.839 659.239 C 498.549 664.949, 518.296 654.131, 515.718 646.705 C 515.488 646.042, 514.986 646.850, 514.603 648.500 M 548.004 650.047 C 547.988 656.517, 567.302 664.175, 570.517 658.973 C 570.774 658.557, 569.298 658.595, 567.237 659.058 C 560.045 660.674, 553.868 657.987, 549.861 651.500 C 548.810 649.800, 548.006 649.170, 548.004 650.047 M 459.664 694.112 C 446.836 700.880, 446.586 776.211, 459.363 784.750 L 464.226 788 499.124 788 C 538.598 788, 539.970 787.768, 545 780.241 L 547.500 776.500 547.500 740 C 547.500 698.897, 547.562 699.274, 539.991 694.495 L 536.040 692 499.770 692.044 C 465.334 692.086, 463.306 692.191, 459.664 694.112 M 494 707.941 C 465.037 711.775, 457.653 753.872, 483.500 767.809 C 490.941 771.821, 504.128 773.531, 508.764 771.083 C 509.719 770.579, 512.008 769.606, 513.851 768.920 C 547.686 756.334, 530.366 703.128, 494 707.941" stroke="none" fill="#63afdb" fill-rule="evenodd"/><path d="M 333.500 229.964 C 324.575 233.701, 324 236.524, 324 276.630 L 324 311.324 326.596 315.754 C 331.303 323.785, 332.218 323.953, 371.628 323.978 C 422.663 324.011, 420.284 326.479, 419.800 274 C 419.463 237.531, 419.236 236.271, 412.125 231.439 L 408.536 229 372.018 229.063 C 351.933 229.098, 334.600 229.504, 333.500 229.964 M 364.440 372.874 C 327.886 382.374, 333.959 435.500, 371.599 435.500 C 381.167 435.500, 382.853 434.990, 390.827 429.680 C 418.683 411.128, 396.985 364.417, 364.440 372.874 M 463.094 485.273 C 452.331 488.768, 451.736 491.563, 452.176 536.500 C 452.631 582.833, 448.353 579.001, 499.618 578.996 C 551.171 578.991, 546.500 583.669, 546.500 532.044 C 546.500 480.480, 550.451 484.578, 500.500 484.333 C 477.929 484.222, 465.355 484.538, 463.094 485.273 M 619.797 515.745 C 624.361 515.930, 631.561 515.929, 635.797 515.742 C 640.034 515.555, 636.300 515.404, 627.500 515.405 C 618.700 515.406, 615.234 515.559, 619.797 515.745 M 618.199 548.744 C 622.984 548.927, 631.084 548.928, 636.199 548.746 C 641.315 548.564, 637.400 548.414, 627.500 548.413 C 617.600 548.412, 613.415 548.561, 618.199 548.744 M 493.932 709.009 C 455.423 715.529, 462.378 772.882, 501.429 770.829 C 538.172 768.896, 541.715 715.779, 505.546 709.093 C 502.294 708.492, 499.378 708.053, 499.066 708.118 C 498.755 708.182, 496.444 708.583, 493.932 709.009" stroke="none" fill="#ffdc69" fill-rule="evenodd"/><path d="M 333.654 228.750 C 333.398 229.162, 350.056 229.372, 370.670 229.215 C 415.110 228.877, 413.747 228.557, 418.759 240.500 L 420.018 243.500 419.431 240.500 C 418.671 236.614, 414.674 231.400, 410.998 229.499 C 407.860 227.876, 334.634 227.167, 333.654 228.750 M 329.580 231.516 C 327.061 233.423, 324.005 238.107, 324.046 240 C 324.064 240.825, 324.688 240.100, 325.432 238.390 C 326.177 236.679, 328.067 234.092, 329.633 232.640 C 332.710 229.787, 332.681 229.170, 329.580 231.516 M 323.445 276 C 323.445 293.325, 323.582 300.413, 323.748 291.750 C 323.915 283.087, 323.915 268.913, 323.748 260.250 C 323.582 251.588, 323.445 258.675, 323.445 276 M 414.924 318.587 C 410.037 323.803, 408.468 324, 371.846 324 C 344.497 324, 337.265 323.720, 334.468 322.551 C 332.561 321.754, 331 321.327, 331 321.602 C 331 325.708, 401.988 326.933, 410.261 322.969 C 412.592 321.852, 415.309 319.827, 416.297 318.469 C 418.630 315.262, 417.988 315.317, 414.924 318.587 M 336 356.693 C 334.625 356.961, 332.037 358.288, 330.249 359.642 C 323.979 364.389, 324 364.237, 324 404.064 C 324 455.616, 321.430 452.999, 372 452.944 C 422.011 452.889, 420 454.933, 420 404.173 C 420 365.949, 419.712 364.162, 412.717 358.913 L 409.500 356.500 374 356.353 C 354.475 356.272, 337.375 356.425, 336 356.693 M 364.440 372.874 C 327.886 382.374, 333.959 435.500, 371.599 435.500 C 381.167 435.500, 382.853 434.990, 390.827 429.680 C 418.683 411.128, 396.985 364.417, 364.440 372.874 M 675.447 404 C 675.447 421.875, 675.582 429.188, 675.748 420.250 C 675.914 411.313, 675.914 396.688, 675.748 387.750 C 675.582 378.813, 675.447 386.125, 675.447 404 M 611.314 452.749 C 620.561 452.914, 635.411 452.913, 644.314 452.748 C 653.216 452.582, 645.650 452.447, 627.500 452.448 C 609.350 452.448, 602.066 452.583, 611.314 452.749 M 463.047 484.305 C 451.516 487.981, 450.735 491.421, 451.176 536.580 L 451.500 569.659 454.302 573.331 C 459.458 580.088, 458.865 580, 499.500 580 C 538.691 580, 539.189 579.942, 543.495 574.852 L 545.486 572.500 542.993 574.625 C 537.909 578.959, 537.498 579, 499.434 579 C 447.937 579, 452.500 583.569, 452.500 532 C 452.500 480.616, 448.708 484.643, 497.500 484.201 C 537.481 483.838, 544.411 485.401, 546.289 495.208 L 546.728 497.500 546.864 495.250 C 547.487 484.948, 486.154 476.939, 463.047 484.305 M 611.314 483.749 C 620.561 483.914, 635.411 483.913, 644.314 483.748 C 653.216 483.582, 645.650 483.447, 627.500 483.448 C 609.350 483.448, 602.066 483.583, 611.314 483.749 M 547.169 531 C 547.050 549.425, 546.548 566.243, 546.054 568.372 C 545.367 571.333, 545.431 571.969, 546.328 571.074 C 547.500 569.903, 548.586 518.763, 547.752 504 C 547.550 500.425, 547.288 512.575, 547.169 531 M 675.448 532 C 675.448 550.425, 675.583 557.962, 675.748 548.750 C 675.913 539.538, 675.913 524.462, 675.748 515.250 C 675.583 506.038, 675.448 513.575, 675.448 532 M 494 707.918 C 487.953 708.793, 480.815 712.522, 476.797 716.904 L 473.500 720.500 477 717.311 C 481.262 713.427, 490.416 709.048, 494.500 708.939 C 496.150 708.895, 498.400 708.473, 499.500 708 C 501.815 707.005, 500.450 706.985, 494 707.918 M 521.173 717.174 C 524.103 720.103, 526.696 722.379, 526.935 722.232 C 527.559 721.847, 519.849 714.032, 517.673 712.845 C 516.669 712.296, 518.244 714.244, 521.173 717.174 M 528.145 726.250 C 528.813 727.487, 529.942 730.975, 530.653 734 L 531.945 739.500 531.376 734.513 C 530.850 729.909, 528.638 724, 527.439 724 C 527.159 724, 527.477 725.013, 528.145 726.250 M 467.625 734.125 C 466.852 737.989, 466.972 743.685, 467.896 747 C 468.282 748.384, 468.572 745.372, 468.546 740.250 C 468.494 729.853, 468.488 729.811, 467.625 734.125 M 530.545 744.545 C 530.163 747.096, 530.075 749.408, 530.350 749.683 C 530.625 749.958, 531.163 748.096, 531.545 745.545 C 531.928 742.995, 532.016 740.683, 531.741 740.408 C 531.466 740.133, 530.928 741.995, 530.545 744.545 M 527.436 754.494 C 525.126 759.362, 519.218 765.188, 513.947 767.797 C 511.501 769.008, 510.210 769.999, 511.079 769.999 C 515.575 770.001, 526.783 759.451, 529.218 752.924 C 530.420 749.702, 529.200 750.777, 527.436 754.494 M 485.383 768.716 C 487.988 771.321, 507.002 773.419, 508.347 771.250 C 508.602 770.837, 504.916 770.488, 500.156 770.472 C 495.395 770.457, 489.976 769.908, 488.114 769.253 C 486.252 768.598, 485.023 768.356, 485.383 768.716" stroke="none" fill="#a0d778" fill-rule="evenodd"/><path d="M 383.808 84.714 C 379.896 85.306, 373.698 91.775, 372.438 96.581 C 367.588 115.080, 394.131 123.995, 402.370 106.634 C 407.768 95.256, 397.133 82.697, 383.808 84.714 M 446.684 85.449 C 433.837 90.031, 431.911 106.838, 443.418 113.950 C 447.863 116.697, 549.778 117.200, 554.998 114.501 C 567.450 108.062, 565.168 88.892, 551.500 85.116 C 545.205 83.377, 451.660 83.674, 446.684 85.449 M 458.967 359.376 C 452.433 363.816, 452.500 363.350, 452.500 404.402 C 452.500 455.926, 448.076 451.500, 499.578 451.500 L 536.656 451.500 540.314 448.709 C 546.668 443.863, 546.500 445.080, 546.500 404 L 546.500 366.500 544.171 363.235 C 539.711 356.982, 539.840 357, 499.282 357 L 462.464 357 458.967 359.376 M 476.020 390.250 C 468.357 394.165, 465.522 403.200, 469.424 411.270 C 478.357 429.745, 534.758 421.282, 531.493 401.956 C 529.269 388.795, 493.600 381.268, 476.020 390.250 M 426.715 631.141 C 414.081 640.564, 420.276 659, 436.076 659 C 450.571 659, 456.441 642.057, 445.344 632.250 C 440.689 628.136, 431.478 627.588, 426.715 631.141 M 489.703 869.012 C 463.829 876.784, 460.300 916.792, 484.512 927.867 C 486.155 928.618, 488.317 929.653, 489.316 930.167 C 496.194 933.701, 513.956 930.045, 520.856 923.675 C 545.913 900.544, 522.353 859.205, 489.703 869.012" stroke="none" fill="#464655" fill-rule="evenodd"/><path d="M 479.441 389.468 C 477.544 390.903, 477.549 390.937, 479.691 390.968 C 480.896 390.986, 482.160 390.550, 482.500 390 C 482.871 389.399, 489.657 389, 499.500 389 C 509.343 389, 516.129 389.399, 516.500 390 C 517.263 391.235, 521 391.332, 521 390.117 C 521 387.497, 482.834 386.902, 479.441 389.468 M 472.490 393.442 C 464.589 401.820, 469.016 417.153, 479.969 419.344 C 498.100 422.970, 525.374 419.215, 528.601 412.648 L 530.148 409.500 527.502 412.750 C 525.002 415.820, 523 416.927, 523 415.240 C 523 414.822, 524.125 413.266, 525.500 411.783 C 531.483 405.331, 527.582 394.391, 518.480 392.099 C 488.380 384.520, 459.832 398.036, 474.651 412.850 L 478.303 416.500 500.556 416.500 C 512.796 416.500, 522.627 416.795, 522.404 417.156 C 522.181 417.517, 521.149 417.590, 520.112 417.319 C 519.074 417.048, 517.923 417.315, 517.554 417.913 C 517.112 418.628, 510.938 419, 499.500 419 C 488.062 419, 481.888 418.628, 481.446 417.913 C 481.077 417.315, 479.904 417.053, 478.839 417.332 C 474.575 418.447, 470 411.766, 470 404.424 C 470 397.845, 470.337 397.038, 474.990 392.453 C 476.359 391.104, 477.087 390, 476.608 390 C 476.128 390, 474.276 391.549, 472.490 393.442 M 523.510 391.694 C 524.615 392.687, 526.594 394.625, 527.907 396 C 529.220 397.375, 529.935 397.825, 529.495 397 C 528.137 394.450, 525.615 391.859, 523.511 390.851 L 521.500 389.887 523.510 391.694 M 529 404 C 529 408.114, 529.278 409.122, 530.167 408.233 C 530.808 407.592, 531.333 405.687, 531.333 404 C 531.333 402.313, 530.808 400.408, 530.167 399.767 C 529.278 398.878, 529 399.886, 529 404 M 335.942 485.935 C 325.261 489.231, 325 490.331, 325 532.093 C 325 582.142, 321.407 578.370, 369.500 578.813 C 410.356 579.190, 417 577.791, 417 568.813 C 417 567.266, 417.450 566, 418 566 C 418.647 566, 419 554, 419 532 C 419 510, 418.647 498, 418 498 C 417.450 498, 417 497.057, 417 495.904 C 417 494.752, 416.247 492.534, 415.326 490.976 C 413.768 488.338, 412.753 487.726, 407.500 486.258 C 404.292 485.362, 338.758 485.066, 335.942 485.935 M 352.531 514.680 C 350.899 514.952, 348.265 516.099, 346.678 517.229 C 344.279 518.937, 343.631 519.049, 342.831 517.892 C 342.142 516.894, 342.048 517.137, 342.502 518.750 C 342.874 520.073, 342.695 521, 342.067 521 C 341.480 521, 341 521.638, 341 522.417 C 341 523.196, 340.510 523.997, 339.912 524.196 C 339.259 524.414, 338.824 527.497, 338.824 531.897 L 338.824 539.236 343.228 543.368 C 349.564 549.311, 387.513 553.833, 390.500 549 C 390.840 548.450, 392.129 548, 393.364 548 C 395.720 548, 401.619 543.028, 403.750 539.246 C 405.237 536.607, 405.440 525, 404 525 C 403.450 525, 403 524.433, 403 523.739 C 403 523.045, 401.603 521.358, 399.895 519.989 C 398.188 518.620, 396.096 516.838, 395.246 516.029 C 393.683 514.541, 359.792 513.471, 352.531 514.680 M 419.150 646.750 C 419.067 649.087, 419.450 651, 420 651 C 420.550 651, 421 651.675, 421 652.500 C 421 653.325, 420.605 654, 420.121 654 C 418.976 654, 416.803 648.735, 417.196 646.912 C 417.455 645.710, 408.189 645.466, 354.750 645.272 L 292 645.044 292.242 738.772 L 292.484 832.500 293 739.500 L 293.516 646.500 293.758 739.250 L 294 832 500 832 L 706 832 706 739.500 C 706 688.625, 706.112 646.663, 706.250 646.250 C 706.388 645.837, 678.038 645.384, 643.250 645.243 L 580 644.985 580 647.975 C 580 651.893, 572.498 660, 568.871 660 C 567.512 660, 565.908 660.492, 565.307 661.093 C 564.517 661.883, 563.650 661.883, 562.173 661.093 C 561.050 660.492, 559.202 660, 558.066 660 C 555.755 660, 548 652.768, 548 650.614 C 548 645.080, 546.411 644.500, 531.249 644.500 L 516.998 644.500 516.999 647.250 C 517 648.763, 516.550 650, 516 650 C 515.450 650, 515 650.675, 515 651.500 C 515 652.325, 514.550 653, 514 653 C 513.450 653, 513 653.631, 513 654.401 C 513 656.025, 506.711 660, 504.143 660 C 503.184 660, 501.908 660.492, 501.307 661.093 C 500.517 661.883, 499.650 661.883, 498.173 661.093 C 497.050 660.492, 495.421 660, 494.552 660 C 492.331 660, 486.027 655.756, 486.012 654.250 C 486.006 653.563, 485.550 653, 485 653 C 484.450 653, 484 652.325, 484 651.500 C 484 650.675, 483.550 650, 483 650 C 482.450 650, 482.001 648.763, 482.001 647.250 C 482.003 644.569, 481.871 644.506, 476.751 644.735 C 456.976 645.618, 453.049 645.498, 452.668 644 C 452.459 643.175, 451.932 644.462, 451.498 646.861 C 450.719 651.166, 446.306 656.829, 441.500 659.691 C 440.073 660.541, 439.929 660.893, 441 660.918 C 442.707 660.959, 449.370 655.255, 450.256 652.995 C 450.745 651.748, 450.855 651.771, 450.921 653.136 C 451.069 656.209, 443.939 662.002, 440.029 661.985 C 437.382 661.973, 436.875 661.727, 438 661 C 439.110 660.283, 438.482 660.027, 435.588 660.015 C 427.863 659.985, 420.729 653.471, 419.691 645.500 C 419.390 643.197, 419.265 643.487, 419.150 646.750 M 421 654.994 C 421 657.451, 427.794 662, 431.465 662 C 432.859 662, 434 662.450, 434 663 C 434 663.550, 435.012 663.984, 436.250 663.965 C 439.302 663.916, 434.652 661.091, 431.430 661.035 C 430.291 661.016, 427.479 659.390, 425.180 657.422 C 422.881 655.454, 421 654.361, 421 654.994 M 589 690.469 C 589 691.363, 588.414 691.712, 587.500 691.362 C 586.675 691.045, 586 691.284, 586 691.893 C 586 692.502, 585.212 693.036, 584.250 693.079 C 583.075 693.132, 582.938 693.333, 583.832 693.690 C 584.711 694.040, 584.079 694.882, 581.978 696.159 C 579.606 697.602, 578.928 698.616, 579.323 700.128 C 579.708 701.599, 579.462 702.007, 578.427 701.610 C 577.206 701.142, 577 706.630, 577 739.590 C 577 765.021, 577.340 777.908, 578 777.500 C 578.550 777.160, 579 777.809, 579 778.941 C 579 780.073, 579.450 781, 580 781 C 580.550 781, 580.887 781.395, 580.750 781.878 C 580.436 782.981, 586.606 789, 588.050 789 C 588.637 789, 588.797 788.480, 588.405 787.845 C 587.962 787.130, 588.130 786.962, 588.845 787.405 C 589.480 787.797, 590 788.766, 590 789.559 C 590 791.792, 661.754 791.696, 666.082 789.457 C 667.723 788.609, 668.825 787.526, 668.531 787.051 C 668.238 786.575, 669.010 786.375, 670.249 786.604 C 671.487 786.834, 671.949 786.759, 671.276 786.436 C 669.661 785.664, 672.626 780.924, 674.325 781.561 C 674.971 781.803, 676.063 780.786, 676.750 779.301 C 678.248 776.067, 678.400 771, 677 771 C 676.355 771, 676 760, 676 740 C 676 720, 676.355 709, 677 709 C 677.550 709, 678 707.200, 678 705 C 678 702.149, 677.578 701, 676.531 701 C 675.637 701, 675.288 700.414, 675.638 699.500 C 675.955 698.675, 675.716 698, 675.107 698 C 674.498 698, 674 697.518, 674 696.929 C 674 695.252, 671.330 693.002, 669.321 692.985 C 667.780 692.972, 667.730 692.821, 669 692 C 670.213 691.216, 670.069 691.028, 668.250 691.015 C 667.013 691.007, 666 690.550, 666 690 C 666 689.351, 652.500 689, 627.500 689 C 594.310 689, 589 689.203, 589 690.469 M 611.813 690.749 C 620.785 690.914, 635.185 690.914, 643.813 690.748 C 652.441 690.581, 645.100 690.446, 627.500 690.446 C 609.900 690.447, 602.841 690.583, 611.813 690.749 M 330.420 693.237 C 322.848 698.433, 323 697.465, 323 740.486 C 323 765.495, 323.351 779, 324 779 C 324.550 779, 325 779.469, 325 780.042 C 325 781.367, 327.621 784.038, 331.654 786.822 C 334.757 788.965, 335.420 789, 372.354 789 L 409.899 789 414.449 784.701 C 416.952 782.337, 419 779.862, 419 779.201 C 419 778.541, 419.450 778, 420 778 C 420.649 778, 421 764.670, 421 740.011 C 421 697.851, 421.561 701.513, 414 694.333 L 410.500 691.010 372 691.067 C 334.499 691.123, 333.420 691.179, 330.420 693.237 M 456.518 695.329 C 453.953 697.786, 452 700.570, 452 701.770 C 452 702.931, 451.550 704.160, 451 704.500 C 444.749 708.364, 450.879 780.421, 457.897 785.572 L 462.500 788.950 500.250 788.975 C 524.767 788.991, 538 788.649, 538 788 C 538 787.450, 538.563 786.986, 539.250 786.968 C 541.065 786.923, 545.262 782.921, 547 779.580 C 549.035 775.667, 549.271 700.923, 547.250 700.250 C 546.563 700.021, 546 699.389, 546 698.845 C 546 691.982, 540.133 691, 499.113 691 L 461.035 691 456.518 695.329 M 395.830 834.750 C 453.211 834.893, 546.811 834.893, 603.830 834.750 C 660.848 834.607, 613.900 834.491, 499.500 834.491 C 385.100 834.491, 338.448 834.607, 395.830 834.750" stroke="none" fill="#468cbe" fill-rule="evenodd"/><path d="M 591.676 356.695 C 580.696 358.454, 578.818 365.945, 579.194 406.500 C 579.537 443.521, 579.668 444.258, 586.761 449 L 590.500 451.500 627.078 451.500 C 679.165 451.500, 675 455.623, 675 404.064 C 675 363.910, 675.081 364.453, 668.331 359.302 L 664.659 356.500 629.580 356.371 C 610.286 356.300, 593.229 356.446, 591.676 356.695 M 605.655 516.750 C 605.400 517.163, 615.230 517.500, 627.500 517.500 C 639.770 517.500, 649.600 517.163, 649.345 516.750 C 649.091 516.337, 639.260 516, 627.500 516 C 615.740 516, 605.909 516.337, 605.655 516.750 M 618.302 547.746 C 623.693 547.926, 632.243 547.925, 637.302 547.744 C 642.361 547.563, 637.950 547.416, 627.500 547.417 C 617.050 547.418, 612.911 547.566, 618.302 547.746" stroke="none" fill="#ffa055" fill-rule="evenodd"/><path d="M 590.594 229.041 C 579.939 232.228, 578.834 236.976, 579.201 278 C 579.642 327.419, 575.480 323.500, 627.524 323.500 L 665.549 323.500 668.503 321.177 C 675.196 315.912, 674.986 317.372, 674.993 275.930 L 675 238.360 671.451 234.213 C 666.519 228.452, 605.592 224.555, 590.594 229.041 M 623.500 243.772 C 614.245 244.400, 602.191 253.136, 598.349 262 C 597.515 263.925, 596.420 266.281, 595.916 267.236 C 594.576 269.777, 594.826 281.938, 596.302 286 C 604.276 307.948, 628.064 315.812, 646.366 302.552 C 673.460 282.921, 657.336 241.473, 623.500 243.772 M 331.420 694.237 C 323.880 699.411, 324 698.676, 324 739.838 C 324 791.582, 320.454 787.959, 371.128 787.984 C 422.915 788.008, 420 790.889, 420 739.694 C 420 701.245, 419.714 699.596, 412.161 694.463 L 408.536 692 371.518 692.062 C 335.530 692.123, 334.414 692.183, 331.420 694.237" stroke="none" fill="#00dccd" fill-rule="evenodd"/><path d="M 465 228.922 C 452.627 231.367, 451.975 233.712, 451.930 275.940 C 451.874 327.310, 448.563 324, 500.008 324 C 539.612 324, 540.384 323.868, 545.126 316.293 L 547.500 312.500 547.500 276.500 C 547.500 225.092, 550.456 228.038, 499 228.159 C 482.225 228.198, 466.925 228.541, 465 228.922 M 617.500 246.390 C 610.259 249.171, 603.259 254.881, 600.204 260.500 C 582.692 292.714, 623.605 324.237, 649.421 298.421 C 655.620 292.222, 659 284.599, 659 276.819 C 659 255.366, 636.703 239.017, 617.500 246.390 M 603.558 518.953 C 593.932 525.298, 593.909 539.209, 603.514 544.876 C 608.277 547.686, 645.409 548.139, 650.794 545.453 C 660.550 540.586, 660.900 524.825, 651.382 518.931 C 646.639 515.994, 608.020 516.011, 603.558 518.953 M 588.500 693.871 C 584.349 696.449, 581.384 699.985, 580.601 703.294 C 579.733 706.964, 579.753 774.151, 580.624 776.606 C 584.414 787.293, 588.105 788.144, 629.125 787.789 C 666.572 787.465, 667.710 787.264, 672.561 780.125 L 675 776.536 675 740.154 C 675 688.093, 678.864 691.998, 627.364 692.004 C 594.121 692.007, 591.281 692.144, 588.500 693.871" stroke="none" fill="#ff6469" fill-rule="evenodd"/><path d="M 333.500 229.964 C 324.575 233.701, 324 236.524, 324 276.630 L 324 311.324 326.596 315.754 C 331.303 323.785, 332.218 323.953, 371.628 323.978 C 422.663 324.011, 420.284 326.479, 419.800 274 C 419.463 237.531, 419.236 236.271, 412.125 231.439 L 408.536 229 372.018 229.063 C 351.933 229.098, 334.600 229.504, 333.500 229.964 M 364.440 372.874 C 327.886 382.374, 333.959 435.500, 371.599 435.500 C 381.167 435.500, 382.853 434.990, 390.827 429.680 C 418.683 411.128, 396.985 364.417, 364.440 372.874 M 463.094 485.273 C 452.331 488.768, 451.736 491.563, 452.176 536.500 C 452.631 582.833, 448.353 579.001, 499.618 578.996 C 551.171 578.991, 546.500 583.669, 546.500 532.044 C 546.500 480.480, 550.451 484.578, 500.500 484.333 C 477.929 484.222, 465.355 484.538, 463.094 485.273 M 619.797 515.745 C 624.361 515.930, 631.561 515.929, 635.797 515.742 C 640.034 515.555, 636.300 515.404, 627.500 515.405 C 618.700 515.406, 615.234 515.559, 619.797 515.745 M 618.199 548.744 C 622.984 548.927, 631.084 548.928, 636.199 548.746 C 641.315 548.564, 637.400 548.414, 627.500 548.413 C 617.600 548.412, 613.415 548.561, 618.199 548.744 M 493.932 709.009 C 455.423 715.529, 462.378 772.882, 501.429 770.829 C 538.172 768.896, 541.715 715.779, 505.546 709.093 C 502.294 708.492, 499.378 708.053, 499.066 708.118 C 498.755 708.182, 496.444 708.583, 493.932 709.009" stroke="none" fill="#ffdc69" fill-rule="evenodd"/><path d="M 292 403.985 L 292 642.971 355.500 643.235 C 416.882 643.491, 419 643.438, 419 641.636 C 418.999 633.679, 429.842 626.233, 439.309 627.689 C 443.561 628.343, 451 634.807, 451 637.848 C 451 642.563, 452.693 643.101, 468.194 643.306 L 482.833 643.500 483.974 639.694 C 489.115 622.530, 515.465 625.417, 516.079 643.210 C 516.122 644.470, 516.385 644.938, 516.662 644.250 C 517.454 642.287, 546 642.473, 546 644.441 C 546 648.176, 547.527 646.272, 547.679 642.348 C 548.282 626.779, 570.401 622.272, 577.627 636.246 C 579.672 640.201, 579.555 648.145, 577.399 651.758 L 575.763 654.500 577.859 652 C 579.027 650.607, 579.965 648.061, 579.978 646.250 L 580 643 643.500 643 L 707 643 707 404 L 707 165 499.500 165 L 292 165 292 403.985 M 331.069 230.521 C 323.350 235.972, 323.500 235.071, 323.500 276.063 L 323.500 312.646 326.184 316.702 C 331.522 324.768, 332.799 325, 371.827 325 C 411.029 325, 412.083 324.809, 417.315 316.743 L 420.067 312.500 419.783 275.421 L 419.500 238.342 416.698 234.670 C 411.534 227.902, 412.170 227.995, 371.300 228.049 L 334.500 228.098 331.069 230.521 M 458.930 230.459 C 451.258 235.492, 451.500 234.007, 451.500 276 L 451.500 313.500 454 317.241 C 459.034 324.774, 460.375 325, 500.103 325 C 551.277 325, 549.339 327.012, 548.724 274.500 C 548.145 224.972, 551.341 227.976, 499.300 228.059 L 462.500 228.118 458.930 230.459 M 590.594 229.041 C 579.939 232.228, 578.834 236.976, 579.201 278 C 579.642 327.419, 575.480 323.500, 627.524 323.500 L 665.549 323.500 668.503 321.177 C 675.196 315.912, 674.986 317.372, 674.993 275.930 L 675 238.360 671.451 234.213 C 666.519 228.452, 605.592 224.555, 590.594 229.041 M 650.099 253.442 C 651.528 255.124, 653.441 257.613, 654.349 258.973 C 655.257 260.332, 656 260.938, 656 260.319 C 656 259.700, 654.087 257.211, 651.750 254.788 C 649.413 252.365, 648.669 251.759, 650.099 253.442 M 595.422 268.344 C 595.138 269.083, 595.045 273.020, 595.214 277.094 L 595.522 284.500 596.011 275.748 C 596.498 267.026, 596.400 265.794, 595.422 268.344 M 623.776 308.733 C 626.128 308.945, 629.728 308.942, 631.776 308.727 C 633.824 308.512, 631.900 308.339, 627.500 308.343 C 623.100 308.346, 621.424 308.522, 623.776 308.733 M 463.647 355.726 C 452.790 357.349, 450.785 364.292, 450.281 402 C 449.578 454.620, 448.045 453.051, 500 452.876 C 551.371 452.703, 548.342 455.766, 548.342 404 C 548.342 352.414, 550.927 354.972, 499 355.174 C 481.125 355.243, 465.216 355.492, 463.647 355.726 M 336 356.693 C 334.625 356.961, 332.037 358.288, 330.249 359.642 C 323.979 364.389, 324 364.237, 324 404.064 C 324 455.616, 321.430 452.999, 372 452.944 C 422.011 452.889, 420 454.933, 420 404.173 C 420 365.949, 419.712 364.162, 412.717 358.913 L 409.500 356.500 374 356.353 C 354.475 356.272, 337.375 356.425, 336 356.693 M 591.013 356.714 C 580.077 358.858, 579 363.096, 579 404 C 579 455.248, 576.794 453.051, 628.116 452.920 C 664.969 452.826, 667.393 452.402, 672.463 445.164 L 675.500 440.828 675.500 404.164 L 675.500 367.500 673.153 363.726 C 668.658 356.495, 668.789 356.517, 629 356.363 C 609.475 356.288, 592.381 356.445, 591.013 356.714 M 463.047 484.280 C 451.500 488.043, 450.735 491.417, 451.176 536.580 L 451.500 569.659 454.302 573.331 C 459.458 580.088, 458.865 580, 499.500 580 C 540.137 580, 539.543 580.088, 544.698 573.329 L 547.500 569.656 547.500 532.078 C 547.500 479.799, 551.104 483.578, 501 483.328 C 477.702 483.211, 465.379 483.521, 463.047 484.280 M 592.037 484.149 C 579.564 487.818, 579 489.871, 579 531.644 C 579 570.895, 579.206 572.099, 586.839 577.388 L 590.608 580 627.325 580 L 664.043 580 667.796 577.516 C 675.624 572.336, 675.500 573.069, 675.500 531.927 L 675.500 495.354 672.839 491.333 C 667.773 483.678, 666.934 483.524, 629 483.315 C 608.615 483.203, 594.144 483.529, 592.037 484.149 M 334.001 485.123 C 324.341 488.975, 324 490.588, 324 532.464 C 324 583.833, 320.131 580, 371.978 580 L 407.324 580 411.566 577.514 C 424.722 569.804, 424.667 493.636, 411.500 486.271 C 407.073 483.794, 339.831 482.799, 334.001 485.123 M 362.750 515.745 C 367.837 515.927, 376.162 515.927, 381.250 515.745 C 386.337 515.564, 382.175 515.415, 372 515.415 C 361.825 515.415, 357.662 515.564, 362.750 515.745 M 346.605 517.922 C 345.013 518.971, 342.832 521.331, 341.759 523.165 C 340.438 525.425, 340.345 525.855, 341.473 524.500 C 342.388 523.400, 343.444 521.992, 343.818 521.371 C 344.193 520.750, 346.075 519.289, 348 518.125 C 349.925 516.960, 351.050 516.009, 350.500 516.010 C 349.950 516.012, 348.197 516.872, 346.605 517.922 M 396.056 518.506 C 397.950 519.884, 400.512 522.880, 401.750 525.163 C 402.988 527.447, 404 528.734, 404 528.025 C 404 524.824, 396.182 516, 393.346 516 C 392.942 516, 394.161 517.128, 396.056 518.506 M 401.674 539.093 C 398.128 546.628, 395.774 547.452, 376.650 547.853 C 352.384 548.361, 349.521 547.870, 344.149 542.281 C 341.756 539.791, 340.276 538.648, 340.861 539.740 C 345.235 547.914, 351.029 549.389, 376.650 548.853 C 392.257 548.526, 393.735 548.333, 396.679 546.232 C 400.008 543.858, 404.404 537.635, 403.833 536.105 C 403.650 535.615, 402.679 536.959, 401.674 539.093 M 514.603 648.500 C 512.818 656.179, 504.196 660.961, 495.623 659.028 C 492.845 658.401, 492.061 658.461, 492.839 659.239 C 498.549 664.949, 518.296 654.131, 515.718 646.705 C 515.488 646.042, 514.986 646.850, 514.603 648.500 M 548.004 650.047 C 547.988 656.517, 567.302 664.175, 570.517 658.973 C 570.774 658.557, 569.298 658.595, 567.237 659.058 C 560.045 660.674, 553.868 657.987, 549.861 651.500 C 548.810 649.800, 548.006 649.170, 548.004 650.047 M 459.664 694.112 C 446.836 700.880, 446.586 776.211, 459.363 784.750 L 464.226 788 499.124 788 C 538.598 788, 539.970 787.768, 545 780.241 L 547.500 776.500 547.500 740 C 547.500 698.897, 547.562 699.274, 539.991 694.495 L 536.040 692 499.770 692.044 C 465.334 692.086, 463.306 692.191, 459.664 694.112 M 494 707.941 C 465.037 711.775, 457.653 753.872, 483.500 767.809 C 490.941 771.821, 504.128 773.531, 508.764 771.083 C 509.719 770.579, 512.008 769.606, 513.851 768.920 C 547.686 756.334, 530.366 703.128, 494 707.941" stroke="none" fill="#63afdb" fill-rule="evenodd"/><path d="M 383.808 84.714 C 379.896 85.306, 373.698 91.775, 372.438 96.581 C 367.588 115.080, 394.131 123.995, 402.370 106.634 C 407.768 95.256, 397.133 82.697, 383.808 84.714 M 446.684 85.449 C 433.837 90.031, 431.911 106.838, 443.418 113.950 C 447.863 116.697, 549.778 117.200, 554.998 114.501 C 567.450 108.062, 565.168 88.892, 551.500 85.116 C 545.205 83.377, 451.660 83.674, 446.684 85.449 M 458.967 359.376 C 452.433 363.816, 452.500 363.350, 452.500 404.402 C 452.500 455.926, 448.076 451.500, 499.578 451.500 L 536.656 451.500 540.314 448.709 C 546.668 443.863, 546.500 445.080, 546.500 404 L 546.500 366.500 544.171 363.235 C 539.711 356.982, 539.840 357, 499.282 357 L 462.464 357 458.967 359.376 M 476.020 390.250 C 468.357 394.165, 465.522 403.200, 469.424 411.270 C 478.357 429.745, 534.758 421.282, 531.493 401.956 C 529.269 388.795, 493.600 381.268, 476.020 390.250 M 426.715 631.141 C 414.081 640.564, 420.276 659, 436.076 659 C 450.571 659, 456.441 642.057, 445.344 632.250 C 440.689 628.136, 431.478 627.588, 426.715 631.141 M 489.703 869.012 C 463.829 876.784, 460.300 916.792, 484.512 927.867 C 486.155 928.618, 488.317 929.653, 489.316 930.167 C 496.194 933.701, 513.956 930.045, 520.856 923.675 C 545.913 900.544, 522.353 859.205, 489.703 869.012" stroke="none" fill="#464655" fill-rule="evenodd"/><path d="M 295 36.875 C 295 37.356, 293.716 38.007, 292.146 38.321 C 280.738 40.602, 266.671 54.837, 261.318 69.516 C 258.479 77.301, 258.479 922.699, 261.318 930.484 C 266.671 945.163, 280.738 959.398, 292.146 961.679 C 293.716 961.993, 295 962.644, 295 963.125 C 295 964.325, 703.711 964.277, 704.452 963.077 C 704.766 962.569, 706.346 961.863, 707.963 961.508 C 718.927 959.100, 733.058 944.619, 737.246 931.500 C 741.034 919.630, 741 923.578, 741 500 C 741 76.422, 741.034 80.370, 737.246 68.500 C 733.058 55.381, 718.927 40.900, 707.963 38.492 C 706.346 38.137, 704.766 37.431, 704.452 36.923 C 703.711 35.723, 295 35.675, 295 36.875 M 383.808 84.714 C 379.896 85.306, 373.698 91.775, 372.438 96.581 C 367.588 115.080, 394.131 123.995, 402.370 106.634 C 407.768 95.256, 397.133 82.697, 383.808 84.714 M 446.684 85.449 C 433.837 90.031, 431.911 106.838, 443.418 113.950 C 447.863 116.697, 549.778 117.200, 554.998 114.501 C 567.450 108.062, 565.168 88.892, 551.500 85.116 C 545.205 83.377, 451.660 83.674, 446.684 85.449 M 291.464 164.248 C 291.202 164.936, 291.103 316.250, 291.244 500.500 L 291.500 835.500 499.500 835.500 L 707.500 835.500 707.500 499.500 L 707.500 163.500 499.720 163.248 C 334.020 163.046, 291.843 163.249, 291.464 164.248 M 451.442 276 C 451.442 292.225, 451.580 298.863, 451.748 290.750 C 451.916 282.637, 451.916 269.362, 451.748 261.250 C 451.580 253.137, 451.442 259.775, 451.442 276 M 482.186 356.748 C 491.363 356.913, 506.663 356.913, 516.186 356.749 C 525.709 356.584, 518.200 356.449, 499.500 356.449 C 480.800 356.449, 473.009 356.583, 482.186 356.748 M 547.448 404 C 547.448 422.425, 547.583 429.962, 547.748 420.750 C 547.913 411.538, 547.913 396.462, 547.748 387.250 C 547.583 378.038, 547.448 385.575, 547.448 404 M 451.447 404 C 451.447 421.875, 451.582 429.188, 451.748 420.250 C 451.914 411.313, 451.914 396.688, 451.748 387.750 C 451.582 378.813, 451.447 386.125, 451.447 404 M 611.813 691.749 C 620.785 691.914, 635.185 691.914, 643.813 691.748 C 652.441 691.581, 645.100 691.446, 627.500 691.446 C 609.900 691.447, 602.841 691.583, 611.813 691.749 M 675.451 740 C 675.451 759.525, 675.585 767.513, 675.748 757.750 C 675.912 747.988, 675.912 732.013, 675.748 722.250 C 675.585 712.488, 675.451 720.475, 675.451 740 M 579.444 739 C 579.444 755.775, 579.581 762.638, 579.748 754.250 C 579.915 745.862, 579.915 732.138, 579.748 723.750 C 579.581 715.362, 579.444 722.225, 579.444 739 M 489.703 869.012 C 463.829 876.784, 460.300 916.792, 484.512 927.867 C 486.155 928.618, 488.317 929.653, 489.316 930.167 C 496.194 933.701, 513.956 930.045, 520.856 923.675 C 545.913 900.544, 522.353 859.205, 489.703 869.012" stroke="none" fill="#707384" fill-rule="evenodd"/><path d="M 291.464 164.248 C 291.202 164.936, 291.103 316.250, 291.244 500.500 L 291.500 835.500 499.500 835.500 L 707.500 835.500 707.500 499.500 L 707.500 163.500 499.720 163.248 C 334.020 163.046, 291.843 163.249, 291.464 164.248 M 292 500 L 292 835 499.500 835 L 707 835 707 500 L 707 165 499.500 165 L 292 165 292 500 M 548.447 276 C 548.447 293.875, 548.582 301.188, 548.748 292.250 C 548.914 283.313, 548.914 268.688, 548.748 259.750 C 548.582 250.813, 548.447 258.125, 548.447 276 M 481.750 324.749 C 491.788 324.912, 508.213 324.912, 518.250 324.749 C 528.288 324.585, 520.075 324.452, 500 324.452 C 479.925 324.452, 471.713 324.585, 481.750 324.749 M 464.191 355.850 C 462.921 356.207, 478.810 356.500, 499.500 356.500 C 520.190 356.500, 536.079 356.207, 534.809 355.850 C 533.539 355.492, 517.650 355.199, 499.500 355.199 C 481.350 355.199, 465.461 355.492, 464.191 355.850 M 548.447 404 C 548.447 421.875, 548.582 429.188, 548.748 420.250 C 548.914 411.313, 548.914 396.688, 548.748 387.750 C 548.582 378.813, 548.447 386.125, 548.447 404 M 500 452 L 465.500 452.540 499.500 452.670 C 518.200 452.742, 534.625 452.440, 536 452 C 537.804 451.422, 537.943 451.236, 536.500 451.330 C 535.400 451.402, 518.975 451.703, 500 452 M 586 785.449 C 586 788.626, 659.919 791.245, 664.656 788.235 C 665.292 787.831, 649.213 787.628, 628.925 787.785 C 597.071 788.031, 591.625 787.857, 589.018 786.509 C 587.358 785.651, 586 785.174, 586 785.449" stroke="none" fill="#6489a9" fill-rule="evenodd"/></svg>